M48
; DRILL file {KiCad (5.1.5)-3} date 03/25/21 21:43:10
; FORMAT={-:-/ absolute / inch / decimal}
; #@! TF.CreationDate,2021-03-25T21:43:10+01:00
; #@! TF.GenerationSoftware,Kicad,Pcbnew,(5.1.5)-3
; #@! TF.FileFunction,Plated,1,4,PTH
FMAT,2
INCH
T1C0.0157
T2C0.0354
T3C0.0394
T4C0.0433
T5C0.0512
T6C0.0787
T7C0.1260
%
G90
G05
T1
X-0.3396Y-1.5315
X-0.2913Y-1.6831
X-0.2726Y-1.9331
X-0.2254Y-1.7185
X-0.22Y-1.0103
X-0.2057Y-1.3996
X-0.1969Y-1.6043
X-0.19Y-1.752
X-0.186Y-1.5394
X-0.1594Y-1.4724
X-0.1437Y-1.9341
X-0.1102Y-1.4016
X-0.0856Y-1.7087
X-0.0797Y-1.747
X-0.0768Y-1.7864
X-0.0738Y-1.8957
X-0.0719Y-1.8543
X-0.0295Y-1.7913
X0.003Y-1.6024
X0.0472Y-1.7323
X0.0502Y-1.4213
X0.0817Y-1.7126
X0.1083Y-1.5177
X0.1457Y-1.7815
X0.2008Y-1.4606
X0.2156Y-1.7717
X0.2283Y-1.1083
X0.252Y-1.1462
X0.2559Y-1.689
X0.2598Y-0.9134
X0.2736Y-1.3425
X0.2943Y-1.5974
X0.3327Y-0.7559
X0.3346Y-1.2717
X0.3406Y-1.4291
X0.3957Y-1.439
X0.4134Y-1.2362
X0.4272Y-0.9902
X0.439Y-0.7579
X0.4961Y-1.1299
X0.4961Y-1.2008
X0.5098Y-1.8858
X0.5118Y-1.311
X0.5496Y-0.7661
X0.5531Y-1.4843
X0.5984Y-1.0984
X0.626Y-1.1422
X0.6299Y-1.7461
X0.6348Y-1.3179
X0.6417Y-0.9094
X0.6811Y-0.7835
X0.7106Y-0.9469
X0.7323Y-1.2972
X0.7953Y-1.2323
X0.8209Y-0.9843
X0.8543Y-1.9193
X0.8622Y-1.126
X0.8976Y-1.2047
X0.8976Y-1.311
X0.9449Y-1.5197
X0.9764Y-1.1516
X0.9803Y-1.0276
X0.9843Y-0.8209
X0.9961Y-1.4606
X0.9961Y-1.6378
X1.0197Y-0.9016
X1.0197Y-1.31
X1.0551Y-1.6752
X1.0551Y-1.8504
X1.1004Y-0.9705
X1.1299Y-1.2992
X1.1772Y-1.2244
X1.1791Y-0.5728
X1.1791Y-1.6752
X1.2087Y-1.4606
X1.2323Y-1.6457
X1.2421Y-1.8819
X1.2539Y-0.9961
X1.2598Y-1.1181
X1.2598Y-1.2953
X1.313Y-1.2028
X1.3189Y-1.1575
X1.4055Y-1.5276
X1.4222Y-0.7313
X1.5787Y-1.939
X1.5807Y-1.7421
X1.6762Y-1.1811
X1.748Y-0.5807
X1.8022Y-1.1929
X1.8504Y-1.4882
X2.0118Y-1.4055
X2.0148Y-0.878
X2.0748Y-1.5945
X2.0768Y-1.8504
X2.0778Y-0.9488
X2.0787Y-0.7372
X2.0906Y-1.3504
X2.0974Y-1.0709
X2.1053Y-0.8425
X2.1329Y-1.2559
X2.1604Y-1.3543
X2.1732Y-1.5925
X2.187Y-1.874
X2.2205Y-1.4016
X2.2313Y-1.7402
X2.2323Y-1.5866
X2.2864Y-0.8071
X2.3809Y-0.6142
X2.4045Y-1.0197
X2.4793Y-0.8307
X2.5384Y-1.185
X2.5423Y-0.9685
X2.6211Y-1.0906
X2.6299Y-0.9478
X2.7953Y-1.4882
X2.8219Y-0.811
X2.8297Y-0.8976
X2.9596Y-1.6575
X2.9636Y-1.7254
X3.0669Y-1.2165
X3.1368Y-0.5
X3.1437Y-1.9134
X3.1526Y-0.7402
X3.3661Y-1.248
X3.3848Y-0.6969
X3.4537Y-1.4695
X3.5138Y-1.9154
X3.6368Y-1.2795
X3.6801Y-1.0276
X3.7037Y-1.2638
X3.7539Y-1.5256
X3.7549Y-1.1378
X3.7904Y-0.9094
X3.8199Y-1.2815
X3.877Y-1.7726
X3.8927Y-1.189
X3.9213Y-1.3976
X3.9557Y-1.6181
X3.9587Y-1.8386
X3.9764Y-1.3524
X3.9872Y-0.5276
X4.0177Y-1.874
X4.0207Y-1.0246
X4.0433Y-1.3563
X4.0512Y-1.5965
X4.0984Y-1.4055
X4.1053Y-0.9016
X4.1093Y-0.7953
X4.1132Y-0.6929
X4.251Y-0.6339
X4.315Y-1.25
X4.3573Y-0.9724
X4.4321Y-1.0551
X4.4409Y-1.748
X4.4449Y-1.5413
X4.4636Y-1.1693
X4.4793Y-0.6024
X4.4872Y-0.8976
X4.5226Y-0.7835
X4.5226Y-1.2677
X4.5344Y-1.185
X4.5512Y-1.6083
X4.6093Y-1.2598
X4.7146Y-1.5256
X4.7313Y-0.7126
X4.7333Y-1.0059
X4.7431Y-0.8346
X4.7657Y-1.4459
X4.7776Y-1.8278
X4.8002Y-0.7067
X4.8012Y-1.6693
X4.8071Y-1.5689
X4.8179Y-0.811
X4.8602Y-1.0758
X4.9114Y-1.7736
X5.0039Y-1.4075
X5.063Y-1.7106
X5.128Y-1.4311
X5.2008Y-1.3445
X5.4114Y-1.5433
X5.4459Y-1.3504
T2
X1.6063Y-1.4567
X1.7063Y-1.4567
X4.4685Y-1.4567
X4.5685Y-1.4567
X2.4591Y-0.563
X2.5591Y-0.563
X3.5157Y-1.4567
X3.6157Y-1.4567
X4.987Y-0.2122
X4.987Y-0.3122
X4.998Y-1.2484
X4.998Y-1.3484
X2.5591Y-1.4567
X2.6591Y-1.4567
X0.6496Y-1.4567
X0.7496Y-1.4567
X0.471Y-0.4987
X0.5709Y-0.5039
X4.4474Y-0.5092
X4.5472Y-0.5039
T3
X4.9882Y-1.7598
X4.9882Y-1.8583
X5.1457Y-1.7598
X5.1457Y-1.8583
X5.3031Y-1.7598
X5.3031Y-1.8583
X-0.1157Y-0.4648
X-0.1157Y-0.5738
X-0.1157Y-0.6829
X-0.1157Y-0.7919
X-0.0039Y-0.4102
X-0.0039Y-0.5193
X-0.0039Y-0.6283
X-0.0039Y-0.7374
X-0.0039Y-0.8465
T4
X5.2933Y-0.7244
X5.2933Y-0.8244
X5.2933Y-0.9244
T5
X4.9094Y-1.6909
X4.9094Y-1.9272
X5.3819Y-1.6909
X5.3819Y-1.9272
T6
X4.2685Y-1.6567
X4.6685Y-1.6567
X2.3591Y-0.363
X2.7591Y-0.363
X3.3157Y-1.6567
X3.7157Y-1.6567
X5.187Y-0.1122
X5.187Y-0.5122
X5.198Y-1.1484
X5.198Y-1.5484
X2.3591Y-1.6567
X2.7591Y-1.6567
X0.4496Y-1.6567
X0.8496Y-1.6567
X0.3816Y-0.2937
X0.7811Y-0.3147
X4.3371Y-0.3147
X4.7365Y-0.2937
X1.4063Y-1.6567
X1.8063Y-1.6567
T7
X-0.0598Y-0.1362
X-0.0598Y-1.1205
T0
M30
