G04 #@! TF.GenerationSoftware,KiCad,Pcbnew,(5.1.5)-3*
G04 #@! TF.CreationDate,2021-03-25T21:43:08+01:00*
G04 #@! TF.ProjectId,tiepieLCR,74696570-6965-44c4-9352-2e6b69636164,rev?*
G04 #@! TF.SameCoordinates,Original*
G04 #@! TF.FileFunction,Soldermask,Top*
G04 #@! TF.FilePolarity,Negative*
%FSLAX46Y46*%
G04 Gerber Fmt 4.6, Leading zero omitted, Abs format (unit mm)*
G04 Created by KiCad (PCBNEW (5.1.5)-3) date 2021-03-25 21:43:08*
%MOMM*%
%LPD*%
G04 APERTURE LIST*
%ADD10C,0.100000*%
G04 APERTURE END LIST*
D10*
G36*
X137006564Y-47939389D02*
G01*
X137197833Y-48018615D01*
X137197835Y-48018616D01*
X137365289Y-48130505D01*
X137369973Y-48133635D01*
X137516365Y-48280027D01*
X137631385Y-48452167D01*
X137710611Y-48643436D01*
X137751000Y-48846484D01*
X137751000Y-49053516D01*
X137710611Y-49256564D01*
X137631385Y-49447833D01*
X137631384Y-49447835D01*
X137516365Y-49619973D01*
X137369973Y-49766365D01*
X137197835Y-49881384D01*
X137197834Y-49881385D01*
X137197833Y-49881385D01*
X137006564Y-49960611D01*
X136803516Y-50001000D01*
X136596484Y-50001000D01*
X136393436Y-49960611D01*
X136202167Y-49881385D01*
X136202166Y-49881385D01*
X136202165Y-49881384D01*
X136030027Y-49766365D01*
X135883635Y-49619973D01*
X135768616Y-49447835D01*
X135768615Y-49447833D01*
X135689389Y-49256564D01*
X135649000Y-49053516D01*
X135649000Y-48846484D01*
X135689389Y-48643436D01*
X135768615Y-48452167D01*
X135883635Y-48280027D01*
X136030027Y-48133635D01*
X136034711Y-48130505D01*
X136202165Y-48018616D01*
X136202167Y-48018615D01*
X136393436Y-47939389D01*
X136596484Y-47899000D01*
X136803516Y-47899000D01*
X137006564Y-47939389D01*
G37*
G36*
X125006564Y-47939389D02*
G01*
X125197833Y-48018615D01*
X125197835Y-48018616D01*
X125365289Y-48130505D01*
X125369973Y-48133635D01*
X125516365Y-48280027D01*
X125631385Y-48452167D01*
X125710611Y-48643436D01*
X125751000Y-48846484D01*
X125751000Y-49053516D01*
X125710611Y-49256564D01*
X125631385Y-49447833D01*
X125631384Y-49447835D01*
X125516365Y-49619973D01*
X125369973Y-49766365D01*
X125197835Y-49881384D01*
X125197834Y-49881385D01*
X125197833Y-49881385D01*
X125006564Y-49960611D01*
X124803516Y-50001000D01*
X124596484Y-50001000D01*
X124393436Y-49960611D01*
X124202167Y-49881385D01*
X124202166Y-49881385D01*
X124202165Y-49881384D01*
X124030027Y-49766365D01*
X123883635Y-49619973D01*
X123768616Y-49447835D01*
X123768615Y-49447833D01*
X123689389Y-49256564D01*
X123649000Y-49053516D01*
X123649000Y-48846484D01*
X123689389Y-48643436D01*
X123768615Y-48452167D01*
X123883635Y-48280027D01*
X124030027Y-48133635D01*
X124034711Y-48130505D01*
X124202165Y-48018616D01*
X124202167Y-48018615D01*
X124393436Y-47939389D01*
X124596484Y-47899000D01*
X124803516Y-47899000D01*
X125006564Y-47939389D01*
G37*
G36*
X-7699000Y-48326000D02*
G01*
X-8801000Y-48326000D01*
X-8801000Y-46024000D01*
X-7699000Y-46024000D01*
X-7699000Y-48326000D01*
G37*
G36*
X-6199000Y-48326000D02*
G01*
X-7301000Y-48326000D01*
X-7301000Y-46024000D01*
X-6199000Y-46024000D01*
X-6199000Y-48326000D01*
G37*
G36*
X-3199000Y-48326000D02*
G01*
X-4301000Y-48326000D01*
X-4301000Y-46024000D01*
X-3199000Y-46024000D01*
X-3199000Y-48326000D01*
G37*
G36*
X-4699000Y-48326000D02*
G01*
X-5801000Y-48326000D01*
X-5801000Y-46024000D01*
X-4699000Y-46024000D01*
X-4699000Y-48326000D01*
G37*
G36*
X3109468Y-46653565D02*
G01*
X3148138Y-46665296D01*
X3183777Y-46684346D01*
X3215017Y-46709983D01*
X3240654Y-46741223D01*
X3259704Y-46776862D01*
X3271435Y-46815532D01*
X3276000Y-46861888D01*
X3276000Y-47938112D01*
X3271435Y-47984468D01*
X3259704Y-48023138D01*
X3240654Y-48058777D01*
X3215017Y-48090017D01*
X3183777Y-48115654D01*
X3148138Y-48134704D01*
X3109468Y-48146435D01*
X3063112Y-48151000D01*
X2411888Y-48151000D01*
X2365532Y-48146435D01*
X2326862Y-48134704D01*
X2291223Y-48115654D01*
X2259983Y-48090017D01*
X2234346Y-48058777D01*
X2215296Y-48023138D01*
X2203565Y-47984468D01*
X2199000Y-47938112D01*
X2199000Y-46861888D01*
X2203565Y-46815532D01*
X2215296Y-46776862D01*
X2234346Y-46741223D01*
X2259983Y-46709983D01*
X2291223Y-46684346D01*
X2326862Y-46665296D01*
X2365532Y-46653565D01*
X2411888Y-46649000D01*
X3063112Y-46649000D01*
X3109468Y-46653565D01*
G37*
G36*
X4984468Y-46653565D02*
G01*
X5023138Y-46665296D01*
X5058777Y-46684346D01*
X5090017Y-46709983D01*
X5115654Y-46741223D01*
X5134704Y-46776862D01*
X5146435Y-46815532D01*
X5151000Y-46861888D01*
X5151000Y-47938112D01*
X5146435Y-47984468D01*
X5134704Y-48023138D01*
X5115654Y-48058777D01*
X5090017Y-48090017D01*
X5058777Y-48115654D01*
X5023138Y-48134704D01*
X4984468Y-48146435D01*
X4938112Y-48151000D01*
X4286888Y-48151000D01*
X4240532Y-48146435D01*
X4201862Y-48134704D01*
X4166223Y-48115654D01*
X4134983Y-48090017D01*
X4109346Y-48058777D01*
X4090296Y-48023138D01*
X4078565Y-47984468D01*
X4074000Y-47938112D01*
X4074000Y-46861888D01*
X4078565Y-46815532D01*
X4090296Y-46776862D01*
X4109346Y-46741223D01*
X4134983Y-46709983D01*
X4166223Y-46684346D01*
X4201862Y-46665296D01*
X4240532Y-46653565D01*
X4286888Y-46649000D01*
X4938112Y-46649000D01*
X4984468Y-46653565D01*
G37*
G36*
X130933642Y-46429781D02*
G01*
X131079414Y-46490162D01*
X131079416Y-46490163D01*
X131210608Y-46577822D01*
X131322178Y-46689392D01*
X131406461Y-46815532D01*
X131409838Y-46820586D01*
X131470219Y-46966358D01*
X131501000Y-47121107D01*
X131501000Y-47278893D01*
X131470219Y-47433642D01*
X131409838Y-47579414D01*
X131409837Y-47579416D01*
X131322178Y-47710608D01*
X131210608Y-47822178D01*
X131079416Y-47909837D01*
X131079415Y-47909838D01*
X131079414Y-47909838D01*
X130933642Y-47970219D01*
X130778893Y-48001000D01*
X130621107Y-48001000D01*
X130466358Y-47970219D01*
X130320586Y-47909838D01*
X130320585Y-47909838D01*
X130320584Y-47909837D01*
X130189392Y-47822178D01*
X130077822Y-47710608D01*
X129990163Y-47579416D01*
X129990162Y-47579414D01*
X129929781Y-47433642D01*
X129899000Y-47278893D01*
X129899000Y-47121107D01*
X129929781Y-46966358D01*
X129990162Y-46820586D01*
X129993539Y-46815532D01*
X130077822Y-46689392D01*
X130189392Y-46577822D01*
X130320584Y-46490163D01*
X130320586Y-46490162D01*
X130466358Y-46429781D01*
X130621107Y-46399000D01*
X130778893Y-46399000D01*
X130933642Y-46429781D01*
G37*
G36*
X134933642Y-46429781D02*
G01*
X135079414Y-46490162D01*
X135079416Y-46490163D01*
X135210608Y-46577822D01*
X135322178Y-46689392D01*
X135406461Y-46815532D01*
X135409838Y-46820586D01*
X135470219Y-46966358D01*
X135501000Y-47121107D01*
X135501000Y-47278893D01*
X135470219Y-47433642D01*
X135409838Y-47579414D01*
X135409837Y-47579416D01*
X135322178Y-47710608D01*
X135210608Y-47822178D01*
X135079416Y-47909837D01*
X135079415Y-47909838D01*
X135079414Y-47909838D01*
X134933642Y-47970219D01*
X134778893Y-48001000D01*
X134621107Y-48001000D01*
X134466358Y-47970219D01*
X134320586Y-47909838D01*
X134320585Y-47909838D01*
X134320584Y-47909837D01*
X134189392Y-47822178D01*
X134077822Y-47710608D01*
X133990163Y-47579416D01*
X133990162Y-47579414D01*
X133929781Y-47433642D01*
X133899000Y-47278893D01*
X133899000Y-47121107D01*
X133929781Y-46966358D01*
X133990162Y-46820586D01*
X133993539Y-46815532D01*
X134077822Y-46689392D01*
X134189392Y-46577822D01*
X134320584Y-46490163D01*
X134320586Y-46490162D01*
X134466358Y-46429781D01*
X134621107Y-46399000D01*
X134778893Y-46399000D01*
X134933642Y-46429781D01*
G37*
G36*
X126933642Y-46429781D02*
G01*
X127079414Y-46490162D01*
X127079416Y-46490163D01*
X127210608Y-46577822D01*
X127322178Y-46689392D01*
X127406461Y-46815532D01*
X127409838Y-46820586D01*
X127470219Y-46966358D01*
X127501000Y-47121107D01*
X127501000Y-47278893D01*
X127470219Y-47433642D01*
X127409838Y-47579414D01*
X127409837Y-47579416D01*
X127322178Y-47710608D01*
X127210608Y-47822178D01*
X127079416Y-47909837D01*
X127079415Y-47909838D01*
X127079414Y-47909838D01*
X126933642Y-47970219D01*
X126778893Y-48001000D01*
X126621107Y-48001000D01*
X126466358Y-47970219D01*
X126320586Y-47909838D01*
X126320585Y-47909838D01*
X126320584Y-47909837D01*
X126189392Y-47822178D01*
X126077822Y-47710608D01*
X125990163Y-47579416D01*
X125990162Y-47579414D01*
X125929781Y-47433642D01*
X125899000Y-47278893D01*
X125899000Y-47121107D01*
X125929781Y-46966358D01*
X125990162Y-46820586D01*
X125993539Y-46815532D01*
X126077822Y-46689392D01*
X126189392Y-46577822D01*
X126320584Y-46490163D01*
X126320586Y-46490162D01*
X126466358Y-46429781D01*
X126621107Y-46399000D01*
X126778893Y-46399000D01*
X126933642Y-46429781D01*
G37*
G36*
X-235501Y-46903445D02*
G01*
X-198005Y-46914820D01*
X-163446Y-46933292D01*
X-133153Y-46958153D01*
X-108292Y-46988446D01*
X-89820Y-47023005D01*
X-78445Y-47060501D01*
X-74000Y-47105638D01*
X-74000Y-47744362D01*
X-78445Y-47789499D01*
X-89820Y-47826995D01*
X-108292Y-47861554D01*
X-133153Y-47891847D01*
X-163446Y-47916708D01*
X-198005Y-47935180D01*
X-235501Y-47946555D01*
X-280638Y-47951000D01*
X-1019362Y-47951000D01*
X-1064499Y-47946555D01*
X-1101995Y-47935180D01*
X-1136554Y-47916708D01*
X-1166847Y-47891847D01*
X-1191708Y-47861554D01*
X-1210180Y-47826995D01*
X-1221555Y-47789499D01*
X-1226000Y-47744362D01*
X-1226000Y-47105638D01*
X-1221555Y-47060501D01*
X-1210180Y-47023005D01*
X-1191708Y-46988446D01*
X-1166847Y-46958153D01*
X-1136554Y-46933292D01*
X-1101995Y-46914820D01*
X-1064499Y-46903445D01*
X-1019362Y-46899000D01*
X-280638Y-46899000D01*
X-235501Y-46903445D01*
G37*
G36*
X1514499Y-46903445D02*
G01*
X1551995Y-46914820D01*
X1586554Y-46933292D01*
X1616847Y-46958153D01*
X1641708Y-46988446D01*
X1660180Y-47023005D01*
X1671555Y-47060501D01*
X1676000Y-47105638D01*
X1676000Y-47744362D01*
X1671555Y-47789499D01*
X1660180Y-47826995D01*
X1641708Y-47861554D01*
X1616847Y-47891847D01*
X1586554Y-47916708D01*
X1551995Y-47935180D01*
X1514499Y-47946555D01*
X1469362Y-47951000D01*
X730638Y-47951000D01*
X685501Y-47946555D01*
X648005Y-47935180D01*
X613446Y-47916708D01*
X583153Y-47891847D01*
X558292Y-47861554D01*
X539820Y-47826995D01*
X528445Y-47789499D01*
X524000Y-47744362D01*
X524000Y-47105638D01*
X528445Y-47060501D01*
X539820Y-47023005D01*
X558292Y-46988446D01*
X583153Y-46958153D01*
X613446Y-46933292D01*
X648005Y-46914820D01*
X685501Y-46903445D01*
X730638Y-46899000D01*
X1469362Y-46899000D01*
X1514499Y-46903445D01*
G37*
G36*
X8376000Y-47776000D02*
G01*
X7674000Y-47776000D01*
X7674000Y-47224000D01*
X8376000Y-47224000D01*
X8376000Y-47776000D01*
G37*
G36*
X6276000Y-47776000D02*
G01*
X5574000Y-47776000D01*
X5574000Y-47224000D01*
X6276000Y-47224000D01*
X6276000Y-47776000D01*
G37*
G36*
X134933642Y-43929781D02*
G01*
X135013839Y-43963000D01*
X135079416Y-43990163D01*
X135210608Y-44077822D01*
X135322178Y-44189392D01*
X135343262Y-44220947D01*
X135409838Y-44320586D01*
X135470219Y-44466358D01*
X135501000Y-44621107D01*
X135501000Y-44778893D01*
X135470219Y-44933642D01*
X135409838Y-45079414D01*
X135409837Y-45079416D01*
X135322178Y-45210608D01*
X135210608Y-45322178D01*
X135079416Y-45409837D01*
X135079415Y-45409838D01*
X135079414Y-45409838D01*
X134933642Y-45470219D01*
X134778893Y-45501000D01*
X134621107Y-45501000D01*
X134466358Y-45470219D01*
X134320586Y-45409838D01*
X134320585Y-45409838D01*
X134320584Y-45409837D01*
X134189392Y-45322178D01*
X134077822Y-45210608D01*
X133990163Y-45079416D01*
X133990162Y-45079414D01*
X133929781Y-44933642D01*
X133899000Y-44778893D01*
X133899000Y-44621107D01*
X133929781Y-44466358D01*
X133990162Y-44320586D01*
X134056738Y-44220947D01*
X134077822Y-44189392D01*
X134189392Y-44077822D01*
X134320584Y-43990163D01*
X134386161Y-43963000D01*
X134466358Y-43929781D01*
X134621107Y-43899000D01*
X134778893Y-43899000D01*
X134933642Y-43929781D01*
G37*
G36*
X126933642Y-43929781D02*
G01*
X127013839Y-43963000D01*
X127079416Y-43990163D01*
X127210608Y-44077822D01*
X127322178Y-44189392D01*
X127343262Y-44220947D01*
X127409838Y-44320586D01*
X127470219Y-44466358D01*
X127501000Y-44621107D01*
X127501000Y-44778893D01*
X127470219Y-44933642D01*
X127409838Y-45079414D01*
X127409837Y-45079416D01*
X127322178Y-45210608D01*
X127210608Y-45322178D01*
X127079416Y-45409837D01*
X127079415Y-45409838D01*
X127079414Y-45409838D01*
X126933642Y-45470219D01*
X126778893Y-45501000D01*
X126621107Y-45501000D01*
X126466358Y-45470219D01*
X126320586Y-45409838D01*
X126320585Y-45409838D01*
X126320584Y-45409837D01*
X126189392Y-45322178D01*
X126077822Y-45210608D01*
X125990163Y-45079416D01*
X125990162Y-45079414D01*
X125929781Y-44933642D01*
X125899000Y-44778893D01*
X125899000Y-44621107D01*
X125929781Y-44466358D01*
X125990162Y-44320586D01*
X126056738Y-44220947D01*
X126077822Y-44189392D01*
X126189392Y-44077822D01*
X126320584Y-43990163D01*
X126386161Y-43963000D01*
X126466358Y-43929781D01*
X126621107Y-43899000D01*
X126778893Y-43899000D01*
X126933642Y-43929781D01*
G37*
G36*
X130933642Y-43929781D02*
G01*
X131013839Y-43963000D01*
X131079416Y-43990163D01*
X131210608Y-44077822D01*
X131322178Y-44189392D01*
X131343262Y-44220947D01*
X131409838Y-44320586D01*
X131470219Y-44466358D01*
X131501000Y-44621107D01*
X131501000Y-44778893D01*
X131470219Y-44933642D01*
X131409838Y-45079414D01*
X131409837Y-45079416D01*
X131322178Y-45210608D01*
X131210608Y-45322178D01*
X131079416Y-45409837D01*
X131079415Y-45409838D01*
X131079414Y-45409838D01*
X130933642Y-45470219D01*
X130778893Y-45501000D01*
X130621107Y-45501000D01*
X130466358Y-45470219D01*
X130320586Y-45409838D01*
X130320585Y-45409838D01*
X130320584Y-45409837D01*
X130189392Y-45322178D01*
X130077822Y-45210608D01*
X129990163Y-45079416D01*
X129990162Y-45079414D01*
X129929781Y-44933642D01*
X129899000Y-44778893D01*
X129899000Y-44621107D01*
X129929781Y-44466358D01*
X129990162Y-44320586D01*
X130056738Y-44220947D01*
X130077822Y-44189392D01*
X130189392Y-44077822D01*
X130320584Y-43990163D01*
X130386161Y-43963000D01*
X130466358Y-43929781D01*
X130621107Y-43899000D01*
X130778893Y-43899000D01*
X130933642Y-43929781D01*
G37*
G36*
X8351000Y-45401000D02*
G01*
X6249000Y-45401000D01*
X6249000Y-44599000D01*
X8351000Y-44599000D01*
X8351000Y-45401000D01*
G37*
G36*
X2351000Y-45401000D02*
G01*
X249000Y-45401000D01*
X249000Y-44599000D01*
X2351000Y-44599000D01*
X2351000Y-45401000D01*
G37*
G36*
X54584468Y-43253565D02*
G01*
X54623138Y-43265296D01*
X54658777Y-43284346D01*
X54690017Y-43309983D01*
X54715654Y-43341223D01*
X54734704Y-43376862D01*
X54746435Y-43415532D01*
X54751000Y-43461888D01*
X54751000Y-44538112D01*
X54746435Y-44584468D01*
X54734704Y-44623138D01*
X54715654Y-44658777D01*
X54690017Y-44690017D01*
X54658777Y-44715654D01*
X54623138Y-44734704D01*
X54584468Y-44746435D01*
X54538112Y-44751000D01*
X53886888Y-44751000D01*
X53840532Y-44746435D01*
X53801862Y-44734704D01*
X53766223Y-44715654D01*
X53734983Y-44690017D01*
X53709346Y-44658777D01*
X53690296Y-44623138D01*
X53678565Y-44584468D01*
X53674000Y-44538112D01*
X53674000Y-43461888D01*
X53678565Y-43415532D01*
X53690296Y-43376862D01*
X53709346Y-43341223D01*
X53734983Y-43309983D01*
X53766223Y-43284346D01*
X53801862Y-43265296D01*
X53840532Y-43253565D01*
X53886888Y-43249000D01*
X54538112Y-43249000D01*
X54584468Y-43253565D01*
G37*
G36*
X52709468Y-43253565D02*
G01*
X52748138Y-43265296D01*
X52783777Y-43284346D01*
X52815017Y-43309983D01*
X52840654Y-43341223D01*
X52859704Y-43376862D01*
X52871435Y-43415532D01*
X52876000Y-43461888D01*
X52876000Y-44538112D01*
X52871435Y-44584468D01*
X52859704Y-44623138D01*
X52840654Y-44658777D01*
X52815017Y-44690017D01*
X52783777Y-44715654D01*
X52748138Y-44734704D01*
X52709468Y-44746435D01*
X52663112Y-44751000D01*
X52011888Y-44751000D01*
X51965532Y-44746435D01*
X51926862Y-44734704D01*
X51891223Y-44715654D01*
X51859983Y-44690017D01*
X51834346Y-44658777D01*
X51815296Y-44623138D01*
X51803565Y-44584468D01*
X51799000Y-44538112D01*
X51799000Y-43461888D01*
X51803565Y-43415532D01*
X51815296Y-43376862D01*
X51834346Y-43341223D01*
X51859983Y-43309983D01*
X51891223Y-43284346D01*
X51926862Y-43265296D01*
X51965532Y-43253565D01*
X52011888Y-43249000D01*
X52663112Y-43249000D01*
X52709468Y-43253565D01*
G37*
G36*
X76939499Y-43178445D02*
G01*
X76976995Y-43189820D01*
X77011554Y-43208292D01*
X77041847Y-43233153D01*
X77066708Y-43263446D01*
X77085180Y-43298005D01*
X77096555Y-43335501D01*
X77101000Y-43380638D01*
X77101000Y-44019362D01*
X77096555Y-44064499D01*
X77085180Y-44101995D01*
X77066708Y-44136554D01*
X77041847Y-44166847D01*
X77011554Y-44191708D01*
X76976995Y-44210180D01*
X76939499Y-44221555D01*
X76894362Y-44226000D01*
X76155638Y-44226000D01*
X76110501Y-44221555D01*
X76073005Y-44210180D01*
X76038446Y-44191708D01*
X76008153Y-44166847D01*
X75983292Y-44136554D01*
X75964820Y-44101995D01*
X75953445Y-44064499D01*
X75949000Y-44019362D01*
X75949000Y-43380638D01*
X75953445Y-43335501D01*
X75964820Y-43298005D01*
X75983292Y-43263446D01*
X76008153Y-43233153D01*
X76038446Y-43208292D01*
X76073005Y-43189820D01*
X76110501Y-43178445D01*
X76155638Y-43174000D01*
X76894362Y-43174000D01*
X76939499Y-43178445D01*
G37*
G36*
X78689499Y-43178445D02*
G01*
X78726995Y-43189820D01*
X78761554Y-43208292D01*
X78791847Y-43233153D01*
X78816708Y-43263446D01*
X78835180Y-43298005D01*
X78846555Y-43335501D01*
X78851000Y-43380638D01*
X78851000Y-44019362D01*
X78846555Y-44064499D01*
X78835180Y-44101995D01*
X78816708Y-44136554D01*
X78791847Y-44166847D01*
X78761554Y-44191708D01*
X78726995Y-44210180D01*
X78689499Y-44221555D01*
X78644362Y-44226000D01*
X77905638Y-44226000D01*
X77860501Y-44221555D01*
X77823005Y-44210180D01*
X77788446Y-44191708D01*
X77758153Y-44166847D01*
X77733292Y-44136554D01*
X77714820Y-44101995D01*
X77703445Y-44064499D01*
X77699000Y-44019362D01*
X77699000Y-43380638D01*
X77703445Y-43335501D01*
X77714820Y-43298005D01*
X77733292Y-43263446D01*
X77758153Y-43233153D01*
X77788446Y-43208292D01*
X77823005Y-43189820D01*
X77860501Y-43178445D01*
X77905638Y-43174000D01*
X78644362Y-43174000D01*
X78689499Y-43178445D01*
G37*
G36*
X137006564Y-41939389D02*
G01*
X137197833Y-42018615D01*
X137197835Y-42018616D01*
X137369973Y-42133635D01*
X137516365Y-42280027D01*
X137631385Y-42452167D01*
X137710611Y-42643436D01*
X137751000Y-42846484D01*
X137751000Y-43053516D01*
X137710611Y-43256564D01*
X137677914Y-43335501D01*
X137631384Y-43447835D01*
X137516365Y-43619973D01*
X137369973Y-43766365D01*
X137197835Y-43881384D01*
X137197834Y-43881385D01*
X137197833Y-43881385D01*
X137006564Y-43960611D01*
X136803516Y-44001000D01*
X136596484Y-44001000D01*
X136393436Y-43960611D01*
X136202167Y-43881385D01*
X136202166Y-43881385D01*
X136202165Y-43881384D01*
X136030027Y-43766365D01*
X135883635Y-43619973D01*
X135768616Y-43447835D01*
X135722086Y-43335501D01*
X135689389Y-43256564D01*
X135649000Y-43053516D01*
X135649000Y-42846484D01*
X135689389Y-42643436D01*
X135768615Y-42452167D01*
X135883635Y-42280027D01*
X136030027Y-42133635D01*
X136202165Y-42018616D01*
X136202167Y-42018615D01*
X136393436Y-41939389D01*
X136596484Y-41899000D01*
X136803516Y-41899000D01*
X137006564Y-41939389D01*
G37*
G36*
X125006564Y-41939389D02*
G01*
X125197833Y-42018615D01*
X125197835Y-42018616D01*
X125369973Y-42133635D01*
X125516365Y-42280027D01*
X125631385Y-42452167D01*
X125710611Y-42643436D01*
X125751000Y-42846484D01*
X125751000Y-43053516D01*
X125710611Y-43256564D01*
X125677914Y-43335501D01*
X125631384Y-43447835D01*
X125516365Y-43619973D01*
X125369973Y-43766365D01*
X125197835Y-43881384D01*
X125197834Y-43881385D01*
X125197833Y-43881385D01*
X125006564Y-43960611D01*
X124803516Y-44001000D01*
X124596484Y-44001000D01*
X124393436Y-43960611D01*
X124202167Y-43881385D01*
X124202166Y-43881385D01*
X124202165Y-43881384D01*
X124030027Y-43766365D01*
X123883635Y-43619973D01*
X123768616Y-43447835D01*
X123722086Y-43335501D01*
X123689389Y-43256564D01*
X123649000Y-43053516D01*
X123649000Y-42846484D01*
X123689389Y-42643436D01*
X123768615Y-42452167D01*
X123883635Y-42280027D01*
X124030027Y-42133635D01*
X124202165Y-42018616D01*
X124202167Y-42018615D01*
X124393436Y-41939389D01*
X124596484Y-41899000D01*
X124803516Y-41899000D01*
X125006564Y-41939389D01*
G37*
G36*
X60222585Y-40558802D02*
G01*
X60372410Y-40588604D01*
X60654674Y-40705521D01*
X60908705Y-40875259D01*
X61124741Y-41091295D01*
X61294479Y-41345326D01*
X61411396Y-41627590D01*
X61471000Y-41927240D01*
X61471000Y-42232760D01*
X61411396Y-42532410D01*
X61294479Y-42814674D01*
X61124741Y-43068705D01*
X60908705Y-43284741D01*
X60654674Y-43454479D01*
X60372410Y-43571396D01*
X60222585Y-43601198D01*
X60072761Y-43631000D01*
X59767239Y-43631000D01*
X59617415Y-43601198D01*
X59467590Y-43571396D01*
X59185326Y-43454479D01*
X58931295Y-43284741D01*
X58715259Y-43068705D01*
X58545521Y-42814674D01*
X58428604Y-42532410D01*
X58369000Y-42232760D01*
X58369000Y-41927240D01*
X58428604Y-41627590D01*
X58545521Y-41345326D01*
X58715259Y-41091295D01*
X58931295Y-40875259D01*
X59185326Y-40705521D01*
X59467590Y-40588604D01*
X59617415Y-40558802D01*
X59767239Y-40529000D01*
X60072761Y-40529000D01*
X60222585Y-40558802D01*
G37*
G36*
X118882585Y-40558802D02*
G01*
X119032410Y-40588604D01*
X119314674Y-40705521D01*
X119568705Y-40875259D01*
X119784741Y-41091295D01*
X119954479Y-41345326D01*
X120071396Y-41627590D01*
X120131000Y-41927240D01*
X120131000Y-42232760D01*
X120071396Y-42532410D01*
X119954479Y-42814674D01*
X119784741Y-43068705D01*
X119568705Y-43284741D01*
X119314674Y-43454479D01*
X119032410Y-43571396D01*
X118882585Y-43601198D01*
X118732761Y-43631000D01*
X118427239Y-43631000D01*
X118277415Y-43601198D01*
X118127590Y-43571396D01*
X117845326Y-43454479D01*
X117591295Y-43284741D01*
X117375259Y-43068705D01*
X117205521Y-42814674D01*
X117088604Y-42532410D01*
X117029000Y-42232760D01*
X117029000Y-41927240D01*
X117088604Y-41627590D01*
X117205521Y-41345326D01*
X117375259Y-41091295D01*
X117591295Y-40875259D01*
X117845326Y-40705521D01*
X118127590Y-40588604D01*
X118277415Y-40558802D01*
X118427239Y-40529000D01*
X118732761Y-40529000D01*
X118882585Y-40558802D01*
G37*
G36*
X21882585Y-40558802D02*
G01*
X22032410Y-40588604D01*
X22314674Y-40705521D01*
X22568705Y-40875259D01*
X22784741Y-41091295D01*
X22954479Y-41345326D01*
X23071396Y-41627590D01*
X23131000Y-41927240D01*
X23131000Y-42232760D01*
X23071396Y-42532410D01*
X22954479Y-42814674D01*
X22784741Y-43068705D01*
X22568705Y-43284741D01*
X22314674Y-43454479D01*
X22032410Y-43571396D01*
X21882585Y-43601198D01*
X21732761Y-43631000D01*
X21427239Y-43631000D01*
X21277415Y-43601198D01*
X21127590Y-43571396D01*
X20845326Y-43454479D01*
X20591295Y-43284741D01*
X20375259Y-43068705D01*
X20205521Y-42814674D01*
X20088604Y-42532410D01*
X20029000Y-42232760D01*
X20029000Y-41927240D01*
X20088604Y-41627590D01*
X20205521Y-41345326D01*
X20375259Y-41091295D01*
X20591295Y-40875259D01*
X20845326Y-40705521D01*
X21127590Y-40588604D01*
X21277415Y-40558802D01*
X21427239Y-40529000D01*
X21732761Y-40529000D01*
X21882585Y-40558802D01*
G37*
G36*
X11722585Y-40558802D02*
G01*
X11872410Y-40588604D01*
X12154674Y-40705521D01*
X12408705Y-40875259D01*
X12624741Y-41091295D01*
X12794479Y-41345326D01*
X12911396Y-41627590D01*
X12971000Y-41927240D01*
X12971000Y-42232760D01*
X12911396Y-42532410D01*
X12794479Y-42814674D01*
X12624741Y-43068705D01*
X12408705Y-43284741D01*
X12154674Y-43454479D01*
X11872410Y-43571396D01*
X11722585Y-43601198D01*
X11572761Y-43631000D01*
X11267239Y-43631000D01*
X11117415Y-43601198D01*
X10967590Y-43571396D01*
X10685326Y-43454479D01*
X10431295Y-43284741D01*
X10215259Y-43068705D01*
X10045521Y-42814674D01*
X9928604Y-42532410D01*
X9869000Y-42232760D01*
X9869000Y-41927240D01*
X9928604Y-41627590D01*
X10045521Y-41345326D01*
X10215259Y-41091295D01*
X10431295Y-40875259D01*
X10685326Y-40705521D01*
X10967590Y-40588604D01*
X11117415Y-40558802D01*
X11267239Y-40529000D01*
X11572761Y-40529000D01*
X11722585Y-40558802D01*
G37*
G36*
X36022585Y-40558802D02*
G01*
X36172410Y-40588604D01*
X36454674Y-40705521D01*
X36708705Y-40875259D01*
X36924741Y-41091295D01*
X37094479Y-41345326D01*
X37211396Y-41627590D01*
X37271000Y-41927240D01*
X37271000Y-42232760D01*
X37211396Y-42532410D01*
X37094479Y-42814674D01*
X36924741Y-43068705D01*
X36708705Y-43284741D01*
X36454674Y-43454479D01*
X36172410Y-43571396D01*
X36022585Y-43601198D01*
X35872761Y-43631000D01*
X35567239Y-43631000D01*
X35417415Y-43601198D01*
X35267590Y-43571396D01*
X34985326Y-43454479D01*
X34731295Y-43284741D01*
X34515259Y-43068705D01*
X34345521Y-42814674D01*
X34228604Y-42532410D01*
X34169000Y-42232760D01*
X34169000Y-41927240D01*
X34228604Y-41627590D01*
X34345521Y-41345326D01*
X34515259Y-41091295D01*
X34731295Y-40875259D01*
X34985326Y-40705521D01*
X35267590Y-40588604D01*
X35417415Y-40558802D01*
X35567239Y-40529000D01*
X35872761Y-40529000D01*
X36022585Y-40558802D01*
G37*
G36*
X46182585Y-40558802D02*
G01*
X46332410Y-40588604D01*
X46614674Y-40705521D01*
X46868705Y-40875259D01*
X47084741Y-41091295D01*
X47254479Y-41345326D01*
X47371396Y-41627590D01*
X47431000Y-41927240D01*
X47431000Y-42232760D01*
X47371396Y-42532410D01*
X47254479Y-42814674D01*
X47084741Y-43068705D01*
X46868705Y-43284741D01*
X46614674Y-43454479D01*
X46332410Y-43571396D01*
X46182585Y-43601198D01*
X46032761Y-43631000D01*
X45727239Y-43631000D01*
X45577415Y-43601198D01*
X45427590Y-43571396D01*
X45145326Y-43454479D01*
X44891295Y-43284741D01*
X44675259Y-43068705D01*
X44505521Y-42814674D01*
X44388604Y-42532410D01*
X44329000Y-42232760D01*
X44329000Y-41927240D01*
X44388604Y-41627590D01*
X44505521Y-41345326D01*
X44675259Y-41091295D01*
X44891295Y-40875259D01*
X45145326Y-40705521D01*
X45427590Y-40588604D01*
X45577415Y-40558802D01*
X45727239Y-40529000D01*
X46032761Y-40529000D01*
X46182585Y-40558802D01*
G37*
G36*
X70382585Y-40558802D02*
G01*
X70532410Y-40588604D01*
X70814674Y-40705521D01*
X71068705Y-40875259D01*
X71284741Y-41091295D01*
X71454479Y-41345326D01*
X71571396Y-41627590D01*
X71631000Y-41927240D01*
X71631000Y-42232760D01*
X71571396Y-42532410D01*
X71454479Y-42814674D01*
X71284741Y-43068705D01*
X71068705Y-43284741D01*
X70814674Y-43454479D01*
X70532410Y-43571396D01*
X70382585Y-43601198D01*
X70232761Y-43631000D01*
X69927239Y-43631000D01*
X69777415Y-43601198D01*
X69627590Y-43571396D01*
X69345326Y-43454479D01*
X69091295Y-43284741D01*
X68875259Y-43068705D01*
X68705521Y-42814674D01*
X68588604Y-42532410D01*
X68529000Y-42232760D01*
X68529000Y-41927240D01*
X68588604Y-41627590D01*
X68705521Y-41345326D01*
X68875259Y-41091295D01*
X69091295Y-40875259D01*
X69345326Y-40705521D01*
X69627590Y-40588604D01*
X69777415Y-40558802D01*
X69927239Y-40529000D01*
X70232761Y-40529000D01*
X70382585Y-40558802D01*
G37*
G36*
X84522585Y-40558802D02*
G01*
X84672410Y-40588604D01*
X84954674Y-40705521D01*
X85208705Y-40875259D01*
X85424741Y-41091295D01*
X85594479Y-41345326D01*
X85711396Y-41627590D01*
X85771000Y-41927240D01*
X85771000Y-42232760D01*
X85711396Y-42532410D01*
X85594479Y-42814674D01*
X85424741Y-43068705D01*
X85208705Y-43284741D01*
X84954674Y-43454479D01*
X84672410Y-43571396D01*
X84522585Y-43601198D01*
X84372761Y-43631000D01*
X84067239Y-43631000D01*
X83917415Y-43601198D01*
X83767590Y-43571396D01*
X83485326Y-43454479D01*
X83231295Y-43284741D01*
X83015259Y-43068705D01*
X82845521Y-42814674D01*
X82728604Y-42532410D01*
X82669000Y-42232760D01*
X82669000Y-41927240D01*
X82728604Y-41627590D01*
X82845521Y-41345326D01*
X83015259Y-41091295D01*
X83231295Y-40875259D01*
X83485326Y-40705521D01*
X83767590Y-40588604D01*
X83917415Y-40558802D01*
X84067239Y-40529000D01*
X84372761Y-40529000D01*
X84522585Y-40558802D01*
G37*
G36*
X108722585Y-40558802D02*
G01*
X108872410Y-40588604D01*
X109154674Y-40705521D01*
X109408705Y-40875259D01*
X109624741Y-41091295D01*
X109794479Y-41345326D01*
X109911396Y-41627590D01*
X109971000Y-41927240D01*
X109971000Y-42232760D01*
X109911396Y-42532410D01*
X109794479Y-42814674D01*
X109624741Y-43068705D01*
X109408705Y-43284741D01*
X109154674Y-43454479D01*
X108872410Y-43571396D01*
X108722585Y-43601198D01*
X108572761Y-43631000D01*
X108267239Y-43631000D01*
X108117415Y-43601198D01*
X107967590Y-43571396D01*
X107685326Y-43454479D01*
X107431295Y-43284741D01*
X107215259Y-43068705D01*
X107045521Y-42814674D01*
X106928604Y-42532410D01*
X106869000Y-42232760D01*
X106869000Y-41927240D01*
X106928604Y-41627590D01*
X107045521Y-41345326D01*
X107215259Y-41091295D01*
X107431295Y-40875259D01*
X107685326Y-40705521D01*
X107967590Y-40588604D01*
X108117415Y-40558802D01*
X108267239Y-40529000D01*
X108572761Y-40529000D01*
X108722585Y-40558802D01*
G37*
G36*
X94682585Y-40558802D02*
G01*
X94832410Y-40588604D01*
X95114674Y-40705521D01*
X95368705Y-40875259D01*
X95584741Y-41091295D01*
X95754479Y-41345326D01*
X95871396Y-41627590D01*
X95931000Y-41927240D01*
X95931000Y-42232760D01*
X95871396Y-42532410D01*
X95754479Y-42814674D01*
X95584741Y-43068705D01*
X95368705Y-43284741D01*
X95114674Y-43454479D01*
X94832410Y-43571396D01*
X94682585Y-43601198D01*
X94532761Y-43631000D01*
X94227239Y-43631000D01*
X94077415Y-43601198D01*
X93927590Y-43571396D01*
X93645326Y-43454479D01*
X93391295Y-43284741D01*
X93175259Y-43068705D01*
X93005521Y-42814674D01*
X92888604Y-42532410D01*
X92829000Y-42232760D01*
X92829000Y-41927240D01*
X92888604Y-41627590D01*
X93005521Y-41345326D01*
X93175259Y-41091295D01*
X93391295Y-40875259D01*
X93645326Y-40705521D01*
X93927590Y-40588604D01*
X94077415Y-40558802D01*
X94227239Y-40529000D01*
X94532761Y-40529000D01*
X94682585Y-40558802D01*
G37*
G36*
X52839499Y-41778445D02*
G01*
X52876995Y-41789820D01*
X52911554Y-41808292D01*
X52941847Y-41833153D01*
X52966708Y-41863446D01*
X52985180Y-41898005D01*
X52996555Y-41935501D01*
X53001000Y-41980638D01*
X53001000Y-42619362D01*
X52996555Y-42664499D01*
X52985180Y-42701995D01*
X52966708Y-42736554D01*
X52941847Y-42766847D01*
X52911554Y-42791708D01*
X52876995Y-42810180D01*
X52839499Y-42821555D01*
X52794362Y-42826000D01*
X52055638Y-42826000D01*
X52010501Y-42821555D01*
X51973005Y-42810180D01*
X51938446Y-42791708D01*
X51908153Y-42766847D01*
X51883292Y-42736554D01*
X51864820Y-42701995D01*
X51853445Y-42664499D01*
X51849000Y-42619362D01*
X51849000Y-41980638D01*
X51853445Y-41935501D01*
X51864820Y-41898005D01*
X51883292Y-41863446D01*
X51908153Y-41833153D01*
X51938446Y-41808292D01*
X51973005Y-41789820D01*
X52010501Y-41778445D01*
X52055638Y-41774000D01*
X52794362Y-41774000D01*
X52839499Y-41778445D01*
G37*
G36*
X54589499Y-41778445D02*
G01*
X54626995Y-41789820D01*
X54661554Y-41808292D01*
X54691847Y-41833153D01*
X54716708Y-41863446D01*
X54735180Y-41898005D01*
X54746555Y-41935501D01*
X54751000Y-41980638D01*
X54751000Y-42619362D01*
X54746555Y-42664499D01*
X54735180Y-42701995D01*
X54716708Y-42736554D01*
X54691847Y-42766847D01*
X54661554Y-42791708D01*
X54626995Y-42810180D01*
X54589499Y-42821555D01*
X54544362Y-42826000D01*
X53805638Y-42826000D01*
X53760501Y-42821555D01*
X53723005Y-42810180D01*
X53688446Y-42791708D01*
X53658153Y-42766847D01*
X53633292Y-42736554D01*
X53614820Y-42701995D01*
X53603445Y-42664499D01*
X53599000Y-42619362D01*
X53599000Y-41980638D01*
X53603445Y-41935501D01*
X53614820Y-41898005D01*
X53633292Y-41863446D01*
X53658153Y-41833153D01*
X53688446Y-41808292D01*
X53723005Y-41789820D01*
X53760501Y-41778445D01*
X53805638Y-41774000D01*
X54544362Y-41774000D01*
X54589499Y-41778445D01*
G37*
G36*
X78709468Y-41253565D02*
G01*
X78748138Y-41265296D01*
X78783777Y-41284346D01*
X78815017Y-41309983D01*
X78840654Y-41341223D01*
X78859704Y-41376862D01*
X78871435Y-41415532D01*
X78876000Y-41461888D01*
X78876000Y-42538112D01*
X78871435Y-42584468D01*
X78859704Y-42623138D01*
X78840654Y-42658777D01*
X78815017Y-42690017D01*
X78783777Y-42715654D01*
X78748138Y-42734704D01*
X78709468Y-42746435D01*
X78663112Y-42751000D01*
X78011888Y-42751000D01*
X77965532Y-42746435D01*
X77926862Y-42734704D01*
X77891223Y-42715654D01*
X77859983Y-42690017D01*
X77834346Y-42658777D01*
X77815296Y-42623138D01*
X77803565Y-42584468D01*
X77799000Y-42538112D01*
X77799000Y-41461888D01*
X77803565Y-41415532D01*
X77815296Y-41376862D01*
X77834346Y-41341223D01*
X77859983Y-41309983D01*
X77891223Y-41284346D01*
X77926862Y-41265296D01*
X77965532Y-41253565D01*
X78011888Y-41249000D01*
X78663112Y-41249000D01*
X78709468Y-41253565D01*
G37*
G36*
X76834468Y-41253565D02*
G01*
X76873138Y-41265296D01*
X76908777Y-41284346D01*
X76940017Y-41309983D01*
X76965654Y-41341223D01*
X76984704Y-41376862D01*
X76996435Y-41415532D01*
X77001000Y-41461888D01*
X77001000Y-42538112D01*
X76996435Y-42584468D01*
X76984704Y-42623138D01*
X76965654Y-42658777D01*
X76940017Y-42690017D01*
X76908777Y-42715654D01*
X76873138Y-42734704D01*
X76834468Y-42746435D01*
X76788112Y-42751000D01*
X76136888Y-42751000D01*
X76090532Y-42746435D01*
X76051862Y-42734704D01*
X76016223Y-42715654D01*
X75984983Y-42690017D01*
X75959346Y-42658777D01*
X75940296Y-42623138D01*
X75928565Y-42584468D01*
X75924000Y-42538112D01*
X75924000Y-41461888D01*
X75928565Y-41415532D01*
X75940296Y-41376862D01*
X75959346Y-41341223D01*
X75984983Y-41309983D01*
X76016223Y-41284346D01*
X76051862Y-41265296D01*
X76090532Y-41253565D01*
X76136888Y-41249000D01*
X76788112Y-41249000D01*
X76834468Y-41253565D01*
G37*
G36*
X2351000Y-42201000D02*
G01*
X249000Y-42201000D01*
X249000Y-41399000D01*
X2351000Y-41399000D01*
X2351000Y-42201000D01*
G37*
G36*
X8351000Y-42201000D02*
G01*
X6249000Y-42201000D01*
X6249000Y-41399000D01*
X8351000Y-41399000D01*
X8351000Y-42201000D01*
G37*
G36*
X-4249000Y-41826000D02*
G01*
X-7751000Y-41826000D01*
X-7751000Y-39924000D01*
X-4249000Y-39924000D01*
X-4249000Y-41826000D01*
G37*
G36*
X25664499Y-39803445D02*
G01*
X25701995Y-39814820D01*
X25736554Y-39833292D01*
X25766847Y-39858153D01*
X25791708Y-39888446D01*
X25810180Y-39923005D01*
X25821555Y-39960501D01*
X25826000Y-40005638D01*
X25826000Y-40744362D01*
X25821555Y-40789499D01*
X25810180Y-40826995D01*
X25791708Y-40861554D01*
X25766847Y-40891847D01*
X25736554Y-40916708D01*
X25701995Y-40935180D01*
X25664499Y-40946555D01*
X25619362Y-40951000D01*
X24980638Y-40951000D01*
X24935501Y-40946555D01*
X24898005Y-40935180D01*
X24863446Y-40916708D01*
X24833153Y-40891847D01*
X24808292Y-40861554D01*
X24789820Y-40826995D01*
X24778445Y-40789499D01*
X24774000Y-40744362D01*
X24774000Y-40005638D01*
X24778445Y-39960501D01*
X24789820Y-39923005D01*
X24808292Y-39888446D01*
X24833153Y-39858153D01*
X24863446Y-39833292D01*
X24898005Y-39814820D01*
X24935501Y-39803445D01*
X24980638Y-39799000D01*
X25619362Y-39799000D01*
X25664499Y-39803445D01*
G37*
G36*
X30271000Y-40926000D02*
G01*
X28949000Y-40926000D01*
X28949000Y-40174000D01*
X30271000Y-40174000D01*
X30271000Y-40926000D01*
G37*
G36*
X27651000Y-40926000D02*
G01*
X26329000Y-40926000D01*
X26329000Y-38274000D01*
X27651000Y-38274000D01*
X27651000Y-40926000D01*
G37*
G36*
X132271015Y-37796555D02*
G01*
X132482410Y-37838604D01*
X132764674Y-37955521D01*
X133018705Y-38125259D01*
X133234741Y-38341295D01*
X133404479Y-38595326D01*
X133521396Y-38877590D01*
X133533412Y-38938000D01*
X133581000Y-39177239D01*
X133581000Y-39482761D01*
X133567426Y-39551000D01*
X133521396Y-39782410D01*
X133404479Y-40064674D01*
X133234741Y-40318705D01*
X133018705Y-40534741D01*
X132764674Y-40704479D01*
X132482410Y-40821396D01*
X132418467Y-40834115D01*
X132182761Y-40881000D01*
X131877239Y-40881000D01*
X131641533Y-40834115D01*
X131577590Y-40821396D01*
X131295326Y-40704479D01*
X131041295Y-40534741D01*
X130825259Y-40318705D01*
X130655521Y-40064674D01*
X130538604Y-39782410D01*
X130492574Y-39551000D01*
X130479000Y-39482761D01*
X130479000Y-39177239D01*
X130526588Y-38938000D01*
X130538604Y-38877590D01*
X130655521Y-38595326D01*
X130825259Y-38341295D01*
X131041295Y-38125259D01*
X131295326Y-37955521D01*
X131577590Y-37838604D01*
X131788985Y-37796555D01*
X131877239Y-37779000D01*
X132182761Y-37779000D01*
X132271015Y-37796555D01*
G37*
G36*
X2351000Y-40001000D02*
G01*
X249000Y-40001000D01*
X249000Y-39199000D01*
X2351000Y-39199000D01*
X2351000Y-40001000D01*
G37*
G36*
X8351000Y-40001000D02*
G01*
X6249000Y-40001000D01*
X6249000Y-39199000D01*
X8351000Y-39199000D01*
X8351000Y-40001000D01*
G37*
G36*
X101251000Y-39676000D02*
G01*
X99929000Y-39676000D01*
X99929000Y-37024000D01*
X101251000Y-37024000D01*
X101251000Y-39676000D01*
G37*
G36*
X103871000Y-39676000D02*
G01*
X102549000Y-39676000D01*
X102549000Y-38924000D01*
X103871000Y-38924000D01*
X103871000Y-39676000D01*
G37*
G36*
X51364499Y-38403445D02*
G01*
X51401995Y-38414820D01*
X51436554Y-38433292D01*
X51466847Y-38458153D01*
X51491708Y-38488446D01*
X51510180Y-38523005D01*
X51521555Y-38560501D01*
X51526000Y-38605638D01*
X51526000Y-39344362D01*
X51521555Y-39389499D01*
X51510180Y-39426995D01*
X51491708Y-39461554D01*
X51466847Y-39491847D01*
X51436554Y-39516708D01*
X51401995Y-39535180D01*
X51364499Y-39546555D01*
X51319362Y-39551000D01*
X50680638Y-39551000D01*
X50635501Y-39546555D01*
X50598005Y-39535180D01*
X50563446Y-39516708D01*
X50533153Y-39491847D01*
X50508292Y-39461554D01*
X50489820Y-39426995D01*
X50478445Y-39389499D01*
X50474000Y-39344362D01*
X50474000Y-38605638D01*
X50478445Y-38560501D01*
X50489820Y-38523005D01*
X50508292Y-38488446D01*
X50533153Y-38458153D01*
X50563446Y-38433292D01*
X50598005Y-38414820D01*
X50635501Y-38403445D01*
X50680638Y-38399000D01*
X51319362Y-38399000D01*
X51364499Y-38403445D01*
G37*
G36*
X99264499Y-38353445D02*
G01*
X99301995Y-38364820D01*
X99336554Y-38383292D01*
X99366847Y-38408153D01*
X99391708Y-38438446D01*
X99410180Y-38473005D01*
X99421555Y-38510501D01*
X99426000Y-38555638D01*
X99426000Y-39294362D01*
X99421555Y-39339499D01*
X99410180Y-39376995D01*
X99391708Y-39411554D01*
X99366847Y-39441847D01*
X99336554Y-39466708D01*
X99301995Y-39485180D01*
X99264499Y-39496555D01*
X99219362Y-39501000D01*
X98580638Y-39501000D01*
X98535501Y-39496555D01*
X98498005Y-39485180D01*
X98463446Y-39466708D01*
X98433153Y-39441847D01*
X98408292Y-39411554D01*
X98389820Y-39376995D01*
X98378445Y-39339499D01*
X98374000Y-39294362D01*
X98374000Y-38555638D01*
X98378445Y-38510501D01*
X98389820Y-38473005D01*
X98408292Y-38438446D01*
X98433153Y-38408153D01*
X98463446Y-38383292D01*
X98498005Y-38364820D01*
X98535501Y-38353445D01*
X98580638Y-38349000D01*
X99219362Y-38349000D01*
X99264499Y-38353445D01*
G37*
G36*
X55971000Y-39426000D02*
G01*
X54649000Y-39426000D01*
X54649000Y-38674000D01*
X55971000Y-38674000D01*
X55971000Y-39426000D01*
G37*
G36*
X-7985501Y-38378445D02*
G01*
X-7948005Y-38389820D01*
X-7913446Y-38408292D01*
X-7883153Y-38433153D01*
X-7858292Y-38463446D01*
X-7839820Y-38498005D01*
X-7828445Y-38535501D01*
X-7824000Y-38580638D01*
X-7824000Y-39219362D01*
X-7828445Y-39264499D01*
X-7839820Y-39301995D01*
X-7858292Y-39336554D01*
X-7883153Y-39366847D01*
X-7913446Y-39391708D01*
X-7948005Y-39410180D01*
X-7985501Y-39421555D01*
X-8030638Y-39426000D01*
X-8769362Y-39426000D01*
X-8814499Y-39421555D01*
X-8851995Y-39410180D01*
X-8886554Y-39391708D01*
X-8916847Y-39366847D01*
X-8941708Y-39336554D01*
X-8960180Y-39301995D01*
X-8971555Y-39264499D01*
X-8976000Y-39219362D01*
X-8976000Y-38580638D01*
X-8971555Y-38535501D01*
X-8960180Y-38498005D01*
X-8941708Y-38463446D01*
X-8916847Y-38433153D01*
X-8886554Y-38408292D01*
X-8851995Y-38389820D01*
X-8814499Y-38378445D01*
X-8769362Y-38374000D01*
X-8030638Y-38374000D01*
X-7985501Y-38378445D01*
G37*
G36*
X-6235501Y-38378445D02*
G01*
X-6198005Y-38389820D01*
X-6163446Y-38408292D01*
X-6133153Y-38433153D01*
X-6108292Y-38463446D01*
X-6089820Y-38498005D01*
X-6078445Y-38535501D01*
X-6074000Y-38580638D01*
X-6074000Y-39219362D01*
X-6078445Y-39264499D01*
X-6089820Y-39301995D01*
X-6108292Y-39336554D01*
X-6133153Y-39366847D01*
X-6163446Y-39391708D01*
X-6198005Y-39410180D01*
X-6235501Y-39421555D01*
X-6280638Y-39426000D01*
X-7019362Y-39426000D01*
X-7064499Y-39421555D01*
X-7101995Y-39410180D01*
X-7136554Y-39391708D01*
X-7166847Y-39366847D01*
X-7191708Y-39336554D01*
X-7210180Y-39301995D01*
X-7221555Y-39264499D01*
X-7226000Y-39219362D01*
X-7226000Y-38580638D01*
X-7221555Y-38535501D01*
X-7210180Y-38498005D01*
X-7191708Y-38463446D01*
X-7166847Y-38433153D01*
X-7136554Y-38408292D01*
X-7101995Y-38389820D01*
X-7064499Y-38378445D01*
X-7019362Y-38374000D01*
X-6280638Y-38374000D01*
X-6235501Y-38378445D01*
G37*
G36*
X-4585501Y-38378445D02*
G01*
X-4548005Y-38389820D01*
X-4513446Y-38408292D01*
X-4483153Y-38433153D01*
X-4458292Y-38463446D01*
X-4439820Y-38498005D01*
X-4428445Y-38535501D01*
X-4424000Y-38580638D01*
X-4424000Y-39219362D01*
X-4428445Y-39264499D01*
X-4439820Y-39301995D01*
X-4458292Y-39336554D01*
X-4483153Y-39366847D01*
X-4513446Y-39391708D01*
X-4548005Y-39410180D01*
X-4585501Y-39421555D01*
X-4630638Y-39426000D01*
X-5369362Y-39426000D01*
X-5414499Y-39421555D01*
X-5451995Y-39410180D01*
X-5486554Y-39391708D01*
X-5516847Y-39366847D01*
X-5541708Y-39336554D01*
X-5560180Y-39301995D01*
X-5571555Y-39264499D01*
X-5576000Y-39219362D01*
X-5576000Y-38580638D01*
X-5571555Y-38535501D01*
X-5560180Y-38498005D01*
X-5541708Y-38463446D01*
X-5516847Y-38433153D01*
X-5486554Y-38408292D01*
X-5451995Y-38389820D01*
X-5414499Y-38378445D01*
X-5369362Y-38374000D01*
X-4630638Y-38374000D01*
X-4585501Y-38378445D01*
G37*
G36*
X-2835501Y-38378445D02*
G01*
X-2798005Y-38389820D01*
X-2763446Y-38408292D01*
X-2733153Y-38433153D01*
X-2708292Y-38463446D01*
X-2689820Y-38498005D01*
X-2678445Y-38535501D01*
X-2674000Y-38580638D01*
X-2674000Y-39219362D01*
X-2678445Y-39264499D01*
X-2689820Y-39301995D01*
X-2708292Y-39336554D01*
X-2733153Y-39366847D01*
X-2763446Y-39391708D01*
X-2798005Y-39410180D01*
X-2835501Y-39421555D01*
X-2880638Y-39426000D01*
X-3619362Y-39426000D01*
X-3664499Y-39421555D01*
X-3701995Y-39410180D01*
X-3736554Y-39391708D01*
X-3766847Y-39366847D01*
X-3791708Y-39336554D01*
X-3810180Y-39301995D01*
X-3821555Y-39264499D01*
X-3826000Y-39219362D01*
X-3826000Y-38580638D01*
X-3821555Y-38535501D01*
X-3810180Y-38498005D01*
X-3791708Y-38463446D01*
X-3766847Y-38433153D01*
X-3736554Y-38408292D01*
X-3701995Y-38389820D01*
X-3664499Y-38378445D01*
X-3619362Y-38374000D01*
X-2880638Y-38374000D01*
X-2835501Y-38378445D01*
G37*
G36*
X53351000Y-39426000D02*
G01*
X52029000Y-39426000D01*
X52029000Y-36774000D01*
X53351000Y-36774000D01*
X53351000Y-39426000D01*
G37*
G36*
X25664499Y-38053445D02*
G01*
X25701995Y-38064820D01*
X25736554Y-38083292D01*
X25766847Y-38108153D01*
X25791708Y-38138446D01*
X25810180Y-38173005D01*
X25821555Y-38210501D01*
X25826000Y-38255638D01*
X25826000Y-38994362D01*
X25821555Y-39039499D01*
X25810180Y-39076995D01*
X25791708Y-39111554D01*
X25766847Y-39141847D01*
X25736554Y-39166708D01*
X25701995Y-39185180D01*
X25664499Y-39196555D01*
X25619362Y-39201000D01*
X24980638Y-39201000D01*
X24935501Y-39196555D01*
X24898005Y-39185180D01*
X24863446Y-39166708D01*
X24833153Y-39141847D01*
X24808292Y-39111554D01*
X24789820Y-39076995D01*
X24778445Y-39039499D01*
X24774000Y-38994362D01*
X24774000Y-38255638D01*
X24778445Y-38210501D01*
X24789820Y-38173005D01*
X24808292Y-38138446D01*
X24833153Y-38108153D01*
X24863446Y-38083292D01*
X24898005Y-38064820D01*
X24935501Y-38053445D01*
X24980638Y-38049000D01*
X25619362Y-38049000D01*
X25664499Y-38053445D01*
G37*
G36*
X30271000Y-39026000D02*
G01*
X28949000Y-39026000D01*
X28949000Y-38274000D01*
X30271000Y-38274000D01*
X30271000Y-39026000D01*
G37*
G36*
X-2410501Y-36753445D02*
G01*
X-2373005Y-36764820D01*
X-2338446Y-36783292D01*
X-2308153Y-36808153D01*
X-2283292Y-36838446D01*
X-2264820Y-36873005D01*
X-2253445Y-36910501D01*
X-2249000Y-36955638D01*
X-2249000Y-37694362D01*
X-2253445Y-37739499D01*
X-2264820Y-37776995D01*
X-2283292Y-37811554D01*
X-2308153Y-37841847D01*
X-2338446Y-37866708D01*
X-2373005Y-37885180D01*
X-2410501Y-37896555D01*
X-2455638Y-37901000D01*
X-3094362Y-37901000D01*
X-3139499Y-37896555D01*
X-3176995Y-37885180D01*
X-3211554Y-37866708D01*
X-3241847Y-37841847D01*
X-3266708Y-37811554D01*
X-3285180Y-37776995D01*
X-3296555Y-37739499D01*
X-3301000Y-37694362D01*
X-3301000Y-36955638D01*
X-3296555Y-36910501D01*
X-3285180Y-36873005D01*
X-3266708Y-36838446D01*
X-3241847Y-36808153D01*
X-3211554Y-36783292D01*
X-3176995Y-36764820D01*
X-3139499Y-36753445D01*
X-3094362Y-36749000D01*
X-2455638Y-36749000D01*
X-2410501Y-36753445D01*
G37*
G36*
X-5274000Y-37901000D02*
G01*
X-6176000Y-37901000D01*
X-6176000Y-36899000D01*
X-5274000Y-36899000D01*
X-5274000Y-37901000D01*
G37*
G36*
X-8060501Y-36703445D02*
G01*
X-8023005Y-36714820D01*
X-7988446Y-36733292D01*
X-7958153Y-36758153D01*
X-7933292Y-36788446D01*
X-7914820Y-36823005D01*
X-7903445Y-36860501D01*
X-7899000Y-36905638D01*
X-7899000Y-37644362D01*
X-7903445Y-37689499D01*
X-7914820Y-37726995D01*
X-7933292Y-37761554D01*
X-7958153Y-37791847D01*
X-7988446Y-37816708D01*
X-8023005Y-37835180D01*
X-8060501Y-37846555D01*
X-8105638Y-37851000D01*
X-8744362Y-37851000D01*
X-8789499Y-37846555D01*
X-8826995Y-37835180D01*
X-8861554Y-37816708D01*
X-8891847Y-37791847D01*
X-8916708Y-37761554D01*
X-8935180Y-37726995D01*
X-8946555Y-37689499D01*
X-8951000Y-37644362D01*
X-8951000Y-36905638D01*
X-8946555Y-36860501D01*
X-8935180Y-36823005D01*
X-8916708Y-36788446D01*
X-8891847Y-36758153D01*
X-8861554Y-36733292D01*
X-8826995Y-36714820D01*
X-8789499Y-36703445D01*
X-8744362Y-36699000D01*
X-8105638Y-36699000D01*
X-8060501Y-36703445D01*
G37*
G36*
X89537142Y-36218242D02*
G01*
X89685101Y-36279529D01*
X89818255Y-36368499D01*
X89931501Y-36481745D01*
X90020471Y-36614899D01*
X90081758Y-36762858D01*
X90113000Y-36919925D01*
X90113000Y-37080075D01*
X90081758Y-37237142D01*
X90020471Y-37385101D01*
X89931501Y-37518255D01*
X89818255Y-37631501D01*
X89685101Y-37720471D01*
X89537142Y-37781758D01*
X89380075Y-37813000D01*
X89219925Y-37813000D01*
X89062858Y-37781758D01*
X88914899Y-37720471D01*
X88781745Y-37631501D01*
X88668499Y-37518255D01*
X88579529Y-37385101D01*
X88518242Y-37237142D01*
X88487000Y-37080075D01*
X88487000Y-36919925D01*
X88518242Y-36762858D01*
X88579529Y-36614899D01*
X88668499Y-36481745D01*
X88781745Y-36368499D01*
X88914899Y-36279529D01*
X89062858Y-36218242D01*
X89219925Y-36187000D01*
X89380075Y-36187000D01*
X89537142Y-36218242D01*
G37*
G36*
X67777142Y-36218242D02*
G01*
X67925101Y-36279529D01*
X68058255Y-36368499D01*
X68171501Y-36481745D01*
X68260471Y-36614899D01*
X68321758Y-36762858D01*
X68353000Y-36919925D01*
X68353000Y-37080075D01*
X68321758Y-37237142D01*
X68260471Y-37385101D01*
X68171501Y-37518255D01*
X68058255Y-37631501D01*
X67925101Y-37720471D01*
X67777142Y-37781758D01*
X67620075Y-37813000D01*
X67459925Y-37813000D01*
X67302858Y-37781758D01*
X67154899Y-37720471D01*
X67021745Y-37631501D01*
X66908499Y-37518255D01*
X66819529Y-37385101D01*
X66758242Y-37237142D01*
X66727000Y-37080075D01*
X66727000Y-36919925D01*
X66758242Y-36762858D01*
X66819529Y-36614899D01*
X66908499Y-36481745D01*
X67021745Y-36368499D01*
X67154899Y-36279529D01*
X67302858Y-36218242D01*
X67459925Y-36187000D01*
X67620075Y-36187000D01*
X67777142Y-36218242D01*
G37*
G36*
X65237142Y-36218242D02*
G01*
X65385101Y-36279529D01*
X65518255Y-36368499D01*
X65631501Y-36481745D01*
X65720471Y-36614899D01*
X65781758Y-36762858D01*
X65813000Y-36919925D01*
X65813000Y-37080075D01*
X65781758Y-37237142D01*
X65720471Y-37385101D01*
X65631501Y-37518255D01*
X65518255Y-37631501D01*
X65385101Y-37720471D01*
X65237142Y-37781758D01*
X65080075Y-37813000D01*
X64919925Y-37813000D01*
X64762858Y-37781758D01*
X64614899Y-37720471D01*
X64481745Y-37631501D01*
X64368499Y-37518255D01*
X64279529Y-37385101D01*
X64218242Y-37237142D01*
X64187000Y-37080075D01*
X64187000Y-36919925D01*
X64218242Y-36762858D01*
X64279529Y-36614899D01*
X64368499Y-36481745D01*
X64481745Y-36368499D01*
X64614899Y-36279529D01*
X64762858Y-36218242D01*
X64919925Y-36187000D01*
X65080075Y-36187000D01*
X65237142Y-36218242D01*
G37*
G36*
X43577142Y-36218242D02*
G01*
X43725101Y-36279529D01*
X43858255Y-36368499D01*
X43971501Y-36481745D01*
X44060471Y-36614899D01*
X44121758Y-36762858D01*
X44153000Y-36919925D01*
X44153000Y-37080075D01*
X44121758Y-37237142D01*
X44060471Y-37385101D01*
X43971501Y-37518255D01*
X43858255Y-37631501D01*
X43725101Y-37720471D01*
X43577142Y-37781758D01*
X43420075Y-37813000D01*
X43259925Y-37813000D01*
X43102858Y-37781758D01*
X42954899Y-37720471D01*
X42821745Y-37631501D01*
X42708499Y-37518255D01*
X42619529Y-37385101D01*
X42558242Y-37237142D01*
X42527000Y-37080075D01*
X42527000Y-36919925D01*
X42558242Y-36762858D01*
X42619529Y-36614899D01*
X42708499Y-36481745D01*
X42821745Y-36368499D01*
X42954899Y-36279529D01*
X43102858Y-36218242D01*
X43259925Y-36187000D01*
X43420075Y-36187000D01*
X43577142Y-36218242D01*
G37*
G36*
X41037142Y-36218242D02*
G01*
X41185101Y-36279529D01*
X41318255Y-36368499D01*
X41431501Y-36481745D01*
X41520471Y-36614899D01*
X41581758Y-36762858D01*
X41613000Y-36919925D01*
X41613000Y-37080075D01*
X41581758Y-37237142D01*
X41520471Y-37385101D01*
X41431501Y-37518255D01*
X41318255Y-37631501D01*
X41185101Y-37720471D01*
X41037142Y-37781758D01*
X40880075Y-37813000D01*
X40719925Y-37813000D01*
X40562858Y-37781758D01*
X40414899Y-37720471D01*
X40281745Y-37631501D01*
X40168499Y-37518255D01*
X40079529Y-37385101D01*
X40018242Y-37237142D01*
X39987000Y-37080075D01*
X39987000Y-36919925D01*
X40018242Y-36762858D01*
X40079529Y-36614899D01*
X40168499Y-36481745D01*
X40281745Y-36368499D01*
X40414899Y-36279529D01*
X40562858Y-36218242D01*
X40719925Y-36187000D01*
X40880075Y-36187000D01*
X41037142Y-36218242D01*
G37*
G36*
X16737142Y-36218242D02*
G01*
X16885101Y-36279529D01*
X17018255Y-36368499D01*
X17131501Y-36481745D01*
X17220471Y-36614899D01*
X17281758Y-36762858D01*
X17313000Y-36919925D01*
X17313000Y-37080075D01*
X17281758Y-37237142D01*
X17220471Y-37385101D01*
X17131501Y-37518255D01*
X17018255Y-37631501D01*
X16885101Y-37720471D01*
X16737142Y-37781758D01*
X16580075Y-37813000D01*
X16419925Y-37813000D01*
X16262858Y-37781758D01*
X16114899Y-37720471D01*
X15981745Y-37631501D01*
X15868499Y-37518255D01*
X15779529Y-37385101D01*
X15718242Y-37237142D01*
X15687000Y-37080075D01*
X15687000Y-36919925D01*
X15718242Y-36762858D01*
X15779529Y-36614899D01*
X15868499Y-36481745D01*
X15981745Y-36368499D01*
X16114899Y-36279529D01*
X16262858Y-36218242D01*
X16419925Y-36187000D01*
X16580075Y-36187000D01*
X16737142Y-36218242D01*
G37*
G36*
X19277142Y-36218242D02*
G01*
X19425101Y-36279529D01*
X19558255Y-36368499D01*
X19671501Y-36481745D01*
X19760471Y-36614899D01*
X19821758Y-36762858D01*
X19853000Y-36919925D01*
X19853000Y-37080075D01*
X19821758Y-37237142D01*
X19760471Y-37385101D01*
X19671501Y-37518255D01*
X19558255Y-37631501D01*
X19425101Y-37720471D01*
X19277142Y-37781758D01*
X19120075Y-37813000D01*
X18959925Y-37813000D01*
X18802858Y-37781758D01*
X18654899Y-37720471D01*
X18521745Y-37631501D01*
X18408499Y-37518255D01*
X18319529Y-37385101D01*
X18258242Y-37237142D01*
X18227000Y-37080075D01*
X18227000Y-36919925D01*
X18258242Y-36762858D01*
X18319529Y-36614899D01*
X18408499Y-36481745D01*
X18521745Y-36368499D01*
X18654899Y-36279529D01*
X18802858Y-36218242D01*
X18959925Y-36187000D01*
X19120075Y-36187000D01*
X19277142Y-36218242D01*
G37*
G36*
X92077142Y-36218242D02*
G01*
X92225101Y-36279529D01*
X92358255Y-36368499D01*
X92471501Y-36481745D01*
X92560471Y-36614899D01*
X92621758Y-36762858D01*
X92653000Y-36919925D01*
X92653000Y-37080075D01*
X92621758Y-37237142D01*
X92560471Y-37385101D01*
X92471501Y-37518255D01*
X92358255Y-37631501D01*
X92225101Y-37720471D01*
X92077142Y-37781758D01*
X91920075Y-37813000D01*
X91759925Y-37813000D01*
X91602858Y-37781758D01*
X91454899Y-37720471D01*
X91321745Y-37631501D01*
X91208499Y-37518255D01*
X91119529Y-37385101D01*
X91058242Y-37237142D01*
X91027000Y-37080075D01*
X91027000Y-36919925D01*
X91058242Y-36762858D01*
X91119529Y-36614899D01*
X91208499Y-36481745D01*
X91321745Y-36368499D01*
X91454899Y-36279529D01*
X91602858Y-36218242D01*
X91759925Y-36187000D01*
X91920075Y-36187000D01*
X92077142Y-36218242D01*
G37*
G36*
X116277142Y-36218242D02*
G01*
X116425101Y-36279529D01*
X116558255Y-36368499D01*
X116671501Y-36481745D01*
X116760471Y-36614899D01*
X116821758Y-36762858D01*
X116853000Y-36919925D01*
X116853000Y-37080075D01*
X116821758Y-37237142D01*
X116760471Y-37385101D01*
X116671501Y-37518255D01*
X116558255Y-37631501D01*
X116425101Y-37720471D01*
X116277142Y-37781758D01*
X116120075Y-37813000D01*
X115959925Y-37813000D01*
X115802858Y-37781758D01*
X115654899Y-37720471D01*
X115521745Y-37631501D01*
X115408499Y-37518255D01*
X115319529Y-37385101D01*
X115258242Y-37237142D01*
X115227000Y-37080075D01*
X115227000Y-36919925D01*
X115258242Y-36762858D01*
X115319529Y-36614899D01*
X115408499Y-36481745D01*
X115521745Y-36368499D01*
X115654899Y-36279529D01*
X115802858Y-36218242D01*
X115959925Y-36187000D01*
X116120075Y-36187000D01*
X116277142Y-36218242D01*
G37*
G36*
X113737142Y-36218242D02*
G01*
X113885101Y-36279529D01*
X114018255Y-36368499D01*
X114131501Y-36481745D01*
X114220471Y-36614899D01*
X114281758Y-36762858D01*
X114313000Y-36919925D01*
X114313000Y-37080075D01*
X114281758Y-37237142D01*
X114220471Y-37385101D01*
X114131501Y-37518255D01*
X114018255Y-37631501D01*
X113885101Y-37720471D01*
X113737142Y-37781758D01*
X113580075Y-37813000D01*
X113419925Y-37813000D01*
X113262858Y-37781758D01*
X113114899Y-37720471D01*
X112981745Y-37631501D01*
X112868499Y-37518255D01*
X112779529Y-37385101D01*
X112718242Y-37237142D01*
X112687000Y-37080075D01*
X112687000Y-36919925D01*
X112718242Y-36762858D01*
X112779529Y-36614899D01*
X112868499Y-36481745D01*
X112981745Y-36368499D01*
X113114899Y-36279529D01*
X113262858Y-36218242D01*
X113419925Y-36187000D01*
X113580075Y-36187000D01*
X113737142Y-36218242D01*
G37*
G36*
X2351000Y-37801000D02*
G01*
X249000Y-37801000D01*
X249000Y-36999000D01*
X2351000Y-36999000D01*
X2351000Y-37801000D01*
G37*
G36*
X51364499Y-36653445D02*
G01*
X51401995Y-36664820D01*
X51436554Y-36683292D01*
X51466847Y-36708153D01*
X51491708Y-36738446D01*
X51510180Y-36773005D01*
X51521555Y-36810501D01*
X51526000Y-36855638D01*
X51526000Y-37594362D01*
X51521555Y-37639499D01*
X51510180Y-37676995D01*
X51491708Y-37711554D01*
X51466847Y-37741847D01*
X51436554Y-37766708D01*
X51401995Y-37785180D01*
X51364499Y-37796555D01*
X51319362Y-37801000D01*
X50680638Y-37801000D01*
X50635501Y-37796555D01*
X50598005Y-37785180D01*
X50563446Y-37766708D01*
X50533153Y-37741847D01*
X50508292Y-37711554D01*
X50489820Y-37676995D01*
X50478445Y-37639499D01*
X50474000Y-37594362D01*
X50474000Y-36855638D01*
X50478445Y-36810501D01*
X50489820Y-36773005D01*
X50508292Y-36738446D01*
X50533153Y-36708153D01*
X50563446Y-36683292D01*
X50598005Y-36664820D01*
X50635501Y-36653445D01*
X50680638Y-36649000D01*
X51319362Y-36649000D01*
X51364499Y-36653445D01*
G37*
G36*
X8351000Y-37801000D02*
G01*
X6249000Y-37801000D01*
X6249000Y-36999000D01*
X8351000Y-36999000D01*
X8351000Y-37801000D01*
G37*
G36*
X103871000Y-37776000D02*
G01*
X102549000Y-37776000D01*
X102549000Y-37024000D01*
X103871000Y-37024000D01*
X103871000Y-37776000D01*
G37*
G36*
X99264499Y-36603445D02*
G01*
X99301995Y-36614820D01*
X99336554Y-36633292D01*
X99366847Y-36658153D01*
X99391708Y-36688446D01*
X99410180Y-36723005D01*
X99421555Y-36760501D01*
X99426000Y-36805638D01*
X99426000Y-37544362D01*
X99421555Y-37589499D01*
X99410180Y-37626995D01*
X99391708Y-37661554D01*
X99366847Y-37691847D01*
X99336554Y-37716708D01*
X99301995Y-37735180D01*
X99264499Y-37746555D01*
X99219362Y-37751000D01*
X98580638Y-37751000D01*
X98535501Y-37746555D01*
X98498005Y-37735180D01*
X98463446Y-37716708D01*
X98433153Y-37691847D01*
X98408292Y-37661554D01*
X98389820Y-37626995D01*
X98378445Y-37589499D01*
X98374000Y-37544362D01*
X98374000Y-36805638D01*
X98378445Y-36760501D01*
X98389820Y-36723005D01*
X98408292Y-36688446D01*
X98433153Y-36658153D01*
X98463446Y-36633292D01*
X98498005Y-36614820D01*
X98535501Y-36603445D01*
X98580638Y-36599000D01*
X99219362Y-36599000D01*
X99264499Y-36603445D01*
G37*
G36*
X29689499Y-36578445D02*
G01*
X29726995Y-36589820D01*
X29761554Y-36608292D01*
X29791847Y-36633153D01*
X29816708Y-36663446D01*
X29835180Y-36698005D01*
X29846555Y-36735501D01*
X29851000Y-36780638D01*
X29851000Y-37419362D01*
X29846555Y-37464499D01*
X29835180Y-37501995D01*
X29816708Y-37536554D01*
X29791847Y-37566847D01*
X29761554Y-37591708D01*
X29726995Y-37610180D01*
X29689499Y-37621555D01*
X29644362Y-37626000D01*
X28905638Y-37626000D01*
X28860501Y-37621555D01*
X28823005Y-37610180D01*
X28788446Y-37591708D01*
X28758153Y-37566847D01*
X28733292Y-37536554D01*
X28714820Y-37501995D01*
X28703445Y-37464499D01*
X28699000Y-37419362D01*
X28699000Y-36780638D01*
X28703445Y-36735501D01*
X28714820Y-36698005D01*
X28733292Y-36663446D01*
X28758153Y-36633153D01*
X28788446Y-36608292D01*
X28823005Y-36589820D01*
X28860501Y-36578445D01*
X28905638Y-36574000D01*
X29644362Y-36574000D01*
X29689499Y-36578445D01*
G37*
G36*
X27939499Y-36578445D02*
G01*
X27976995Y-36589820D01*
X28011554Y-36608292D01*
X28041847Y-36633153D01*
X28066708Y-36663446D01*
X28085180Y-36698005D01*
X28096555Y-36735501D01*
X28101000Y-36780638D01*
X28101000Y-37419362D01*
X28096555Y-37464499D01*
X28085180Y-37501995D01*
X28066708Y-37536554D01*
X28041847Y-37566847D01*
X28011554Y-37591708D01*
X27976995Y-37610180D01*
X27939499Y-37621555D01*
X27894362Y-37626000D01*
X27155638Y-37626000D01*
X27110501Y-37621555D01*
X27073005Y-37610180D01*
X27038446Y-37591708D01*
X27008153Y-37566847D01*
X26983292Y-37536554D01*
X26964820Y-37501995D01*
X26953445Y-37464499D01*
X26949000Y-37419362D01*
X26949000Y-36780638D01*
X26953445Y-36735501D01*
X26964820Y-36698005D01*
X26983292Y-36663446D01*
X27008153Y-36633153D01*
X27038446Y-36608292D01*
X27073005Y-36589820D01*
X27110501Y-36578445D01*
X27155638Y-36574000D01*
X27894362Y-36574000D01*
X27939499Y-36578445D01*
G37*
G36*
X55971000Y-37526000D02*
G01*
X54649000Y-37526000D01*
X54649000Y-36774000D01*
X55971000Y-36774000D01*
X55971000Y-37526000D01*
G37*
G36*
X-2410501Y-35003445D02*
G01*
X-2373005Y-35014820D01*
X-2338446Y-35033292D01*
X-2308153Y-35058153D01*
X-2283292Y-35088446D01*
X-2264820Y-35123005D01*
X-2253445Y-35160501D01*
X-2249000Y-35205638D01*
X-2249000Y-35944362D01*
X-2253445Y-35989499D01*
X-2264820Y-36026995D01*
X-2283292Y-36061554D01*
X-2308153Y-36091847D01*
X-2338446Y-36116708D01*
X-2373005Y-36135180D01*
X-2410501Y-36146555D01*
X-2455638Y-36151000D01*
X-3094362Y-36151000D01*
X-3139499Y-36146555D01*
X-3176995Y-36135180D01*
X-3211554Y-36116708D01*
X-3241847Y-36091847D01*
X-3266708Y-36061554D01*
X-3285180Y-36026995D01*
X-3296555Y-35989499D01*
X-3301000Y-35944362D01*
X-3301000Y-35205638D01*
X-3296555Y-35160501D01*
X-3285180Y-35123005D01*
X-3266708Y-35088446D01*
X-3241847Y-35058153D01*
X-3211554Y-35033292D01*
X-3176995Y-35014820D01*
X-3139499Y-35003445D01*
X-3094362Y-34999000D01*
X-2455638Y-34999000D01*
X-2410501Y-35003445D01*
G37*
G36*
X101339499Y-35078445D02*
G01*
X101376995Y-35089820D01*
X101411554Y-35108292D01*
X101441847Y-35133153D01*
X101466708Y-35163446D01*
X101485180Y-35198005D01*
X101496555Y-35235501D01*
X101501000Y-35280638D01*
X101501000Y-35919362D01*
X101496555Y-35964499D01*
X101485180Y-36001995D01*
X101466708Y-36036554D01*
X101441847Y-36066847D01*
X101411554Y-36091708D01*
X101376995Y-36110180D01*
X101339499Y-36121555D01*
X101294362Y-36126000D01*
X100555638Y-36126000D01*
X100510501Y-36121555D01*
X100473005Y-36110180D01*
X100438446Y-36091708D01*
X100408153Y-36066847D01*
X100383292Y-36036554D01*
X100364820Y-36001995D01*
X100353445Y-35964499D01*
X100349000Y-35919362D01*
X100349000Y-35280638D01*
X100353445Y-35235501D01*
X100364820Y-35198005D01*
X100383292Y-35163446D01*
X100408153Y-35133153D01*
X100438446Y-35108292D01*
X100473005Y-35089820D01*
X100510501Y-35078445D01*
X100555638Y-35074000D01*
X101294362Y-35074000D01*
X101339499Y-35078445D01*
G37*
G36*
X103089499Y-35078445D02*
G01*
X103126995Y-35089820D01*
X103161554Y-35108292D01*
X103191847Y-35133153D01*
X103216708Y-35163446D01*
X103235180Y-35198005D01*
X103246555Y-35235501D01*
X103251000Y-35280638D01*
X103251000Y-35919362D01*
X103246555Y-35964499D01*
X103235180Y-36001995D01*
X103216708Y-36036554D01*
X103191847Y-36066847D01*
X103161554Y-36091708D01*
X103126995Y-36110180D01*
X103089499Y-36121555D01*
X103044362Y-36126000D01*
X102305638Y-36126000D01*
X102260501Y-36121555D01*
X102223005Y-36110180D01*
X102188446Y-36091708D01*
X102158153Y-36066847D01*
X102133292Y-36036554D01*
X102114820Y-36001995D01*
X102103445Y-35964499D01*
X102099000Y-35919362D01*
X102099000Y-35280638D01*
X102103445Y-35235501D01*
X102114820Y-35198005D01*
X102133292Y-35163446D01*
X102158153Y-35133153D01*
X102188446Y-35108292D01*
X102223005Y-35089820D01*
X102260501Y-35078445D01*
X102305638Y-35074000D01*
X103044362Y-35074000D01*
X103089499Y-35078445D01*
G37*
G36*
X-8060501Y-34953445D02*
G01*
X-8023005Y-34964820D01*
X-7988446Y-34983292D01*
X-7958153Y-35008153D01*
X-7933292Y-35038446D01*
X-7914820Y-35073005D01*
X-7903445Y-35110501D01*
X-7899000Y-35155638D01*
X-7899000Y-35894362D01*
X-7903445Y-35939499D01*
X-7914820Y-35976995D01*
X-7933292Y-36011554D01*
X-7958153Y-36041847D01*
X-7988446Y-36066708D01*
X-8023005Y-36085180D01*
X-8060501Y-36096555D01*
X-8105638Y-36101000D01*
X-8744362Y-36101000D01*
X-8789499Y-36096555D01*
X-8826995Y-36085180D01*
X-8861554Y-36066708D01*
X-8891847Y-36041847D01*
X-8916708Y-36011554D01*
X-8935180Y-35976995D01*
X-8946555Y-35939499D01*
X-8951000Y-35894362D01*
X-8951000Y-35155638D01*
X-8946555Y-35110501D01*
X-8935180Y-35073005D01*
X-8916708Y-35038446D01*
X-8891847Y-35008153D01*
X-8861554Y-34983292D01*
X-8826995Y-34964820D01*
X-8789499Y-34953445D01*
X-8744362Y-34949000D01*
X-8105638Y-34949000D01*
X-8060501Y-34953445D01*
G37*
G36*
X55289499Y-35028445D02*
G01*
X55326995Y-35039820D01*
X55361554Y-35058292D01*
X55391847Y-35083153D01*
X55416708Y-35113446D01*
X55435180Y-35148005D01*
X55446555Y-35185501D01*
X55451000Y-35230638D01*
X55451000Y-35869362D01*
X55446555Y-35914499D01*
X55435180Y-35951995D01*
X55416708Y-35986554D01*
X55391847Y-36016847D01*
X55361554Y-36041708D01*
X55326995Y-36060180D01*
X55289499Y-36071555D01*
X55244362Y-36076000D01*
X54505638Y-36076000D01*
X54460501Y-36071555D01*
X54423005Y-36060180D01*
X54388446Y-36041708D01*
X54358153Y-36016847D01*
X54333292Y-35986554D01*
X54314820Y-35951995D01*
X54303445Y-35914499D01*
X54299000Y-35869362D01*
X54299000Y-35230638D01*
X54303445Y-35185501D01*
X54314820Y-35148005D01*
X54333292Y-35113446D01*
X54358153Y-35083153D01*
X54388446Y-35058292D01*
X54423005Y-35039820D01*
X54460501Y-35028445D01*
X54505638Y-35024000D01*
X55244362Y-35024000D01*
X55289499Y-35028445D01*
G37*
G36*
X53539499Y-35028445D02*
G01*
X53576995Y-35039820D01*
X53611554Y-35058292D01*
X53641847Y-35083153D01*
X53666708Y-35113446D01*
X53685180Y-35148005D01*
X53696555Y-35185501D01*
X53701000Y-35230638D01*
X53701000Y-35869362D01*
X53696555Y-35914499D01*
X53685180Y-35951995D01*
X53666708Y-35986554D01*
X53641847Y-36016847D01*
X53611554Y-36041708D01*
X53576995Y-36060180D01*
X53539499Y-36071555D01*
X53494362Y-36076000D01*
X52755638Y-36076000D01*
X52710501Y-36071555D01*
X52673005Y-36060180D01*
X52638446Y-36041708D01*
X52608153Y-36016847D01*
X52583292Y-35986554D01*
X52564820Y-35951995D01*
X52553445Y-35914499D01*
X52549000Y-35869362D01*
X52549000Y-35230638D01*
X52553445Y-35185501D01*
X52564820Y-35148005D01*
X52583292Y-35113446D01*
X52608153Y-35083153D01*
X52638446Y-35058292D01*
X52673005Y-35039820D01*
X52710501Y-35028445D01*
X52755638Y-35024000D01*
X53494362Y-35024000D01*
X53539499Y-35028445D01*
G37*
G36*
X-4324000Y-35901000D02*
G01*
X-5226000Y-35901000D01*
X-5226000Y-34899000D01*
X-4324000Y-34899000D01*
X-4324000Y-35901000D01*
G37*
G36*
X-6224000Y-35901000D02*
G01*
X-7126000Y-35901000D01*
X-7126000Y-34899000D01*
X-6224000Y-34899000D01*
X-6224000Y-35901000D01*
G37*
G36*
X127187142Y-33468242D02*
G01*
X127335101Y-33529529D01*
X127468255Y-33618499D01*
X127581501Y-33731745D01*
X127670471Y-33864899D01*
X127731758Y-34012858D01*
X127763000Y-34169925D01*
X127763000Y-34330075D01*
X127731758Y-34487142D01*
X127670471Y-34635101D01*
X127581501Y-34768255D01*
X127468255Y-34881501D01*
X127335101Y-34970471D01*
X127187142Y-35031758D01*
X127030075Y-35063000D01*
X126869925Y-35063000D01*
X126712858Y-35031758D01*
X126564899Y-34970471D01*
X126431745Y-34881501D01*
X126318499Y-34768255D01*
X126229529Y-34635101D01*
X126168242Y-34487142D01*
X126137000Y-34330075D01*
X126137000Y-34169925D01*
X126168242Y-34012858D01*
X126229529Y-33864899D01*
X126318499Y-33731745D01*
X126431745Y-33618499D01*
X126564899Y-33529529D01*
X126712858Y-33468242D01*
X126869925Y-33437000D01*
X127030075Y-33437000D01*
X127187142Y-33468242D01*
G37*
G36*
X56364499Y-32478445D02*
G01*
X56401995Y-32489820D01*
X56436554Y-32508292D01*
X56466847Y-32533153D01*
X56491708Y-32563446D01*
X56510180Y-32598005D01*
X56521555Y-32635501D01*
X56526000Y-32680638D01*
X56526000Y-33319362D01*
X56521555Y-33364499D01*
X56510180Y-33401995D01*
X56491708Y-33436554D01*
X56466847Y-33466847D01*
X56436554Y-33491708D01*
X56401995Y-33510180D01*
X56364499Y-33521555D01*
X56319362Y-33526000D01*
X55580638Y-33526000D01*
X55535501Y-33521555D01*
X55498005Y-33510180D01*
X55463446Y-33491708D01*
X55433153Y-33466847D01*
X55408292Y-33436554D01*
X55389820Y-33401995D01*
X55378445Y-33364499D01*
X55374000Y-33319362D01*
X55374000Y-32680638D01*
X55378445Y-32635501D01*
X55389820Y-32598005D01*
X55408292Y-32563446D01*
X55433153Y-32533153D01*
X55463446Y-32508292D01*
X55498005Y-32489820D01*
X55535501Y-32478445D01*
X55580638Y-32474000D01*
X56319362Y-32474000D01*
X56364499Y-32478445D01*
G37*
G36*
X54614499Y-32478445D02*
G01*
X54651995Y-32489820D01*
X54686554Y-32508292D01*
X54716847Y-32533153D01*
X54741708Y-32563446D01*
X54760180Y-32598005D01*
X54771555Y-32635501D01*
X54776000Y-32680638D01*
X54776000Y-33319362D01*
X54771555Y-33364499D01*
X54760180Y-33401995D01*
X54741708Y-33436554D01*
X54716847Y-33466847D01*
X54686554Y-33491708D01*
X54651995Y-33510180D01*
X54614499Y-33521555D01*
X54569362Y-33526000D01*
X53830638Y-33526000D01*
X53785501Y-33521555D01*
X53748005Y-33510180D01*
X53713446Y-33491708D01*
X53683153Y-33466847D01*
X53658292Y-33436554D01*
X53639820Y-33401995D01*
X53628445Y-33364499D01*
X53624000Y-33319362D01*
X53624000Y-32680638D01*
X53628445Y-32635501D01*
X53639820Y-32598005D01*
X53658292Y-32563446D01*
X53683153Y-32533153D01*
X53713446Y-32508292D01*
X53748005Y-32489820D01*
X53785501Y-32478445D01*
X53830638Y-32474000D01*
X54569362Y-32474000D01*
X54614499Y-32478445D01*
G37*
G36*
X127187142Y-30928242D02*
G01*
X127335101Y-30989529D01*
X127468255Y-31078499D01*
X127581501Y-31191745D01*
X127670471Y-31324899D01*
X127731758Y-31472858D01*
X127763000Y-31629925D01*
X127763000Y-31790075D01*
X127731758Y-31947142D01*
X127670471Y-32095101D01*
X127581501Y-32228255D01*
X127468255Y-32341501D01*
X127335101Y-32430471D01*
X127187142Y-32491758D01*
X127030075Y-32523000D01*
X126869925Y-32523000D01*
X126712858Y-32491758D01*
X126564899Y-32430471D01*
X126431745Y-32341501D01*
X126318499Y-32228255D01*
X126229529Y-32095101D01*
X126168242Y-31947142D01*
X126137000Y-31790075D01*
X126137000Y-31629925D01*
X126168242Y-31472858D01*
X126229529Y-31324899D01*
X126318499Y-31191745D01*
X126431745Y-31078499D01*
X126564899Y-30989529D01*
X126712858Y-30928242D01*
X126869925Y-30897000D01*
X127030075Y-30897000D01*
X127187142Y-30928242D01*
G37*
G36*
X56114499Y-30978445D02*
G01*
X56151995Y-30989820D01*
X56186554Y-31008292D01*
X56216847Y-31033153D01*
X56241708Y-31063446D01*
X56260180Y-31098005D01*
X56271555Y-31135501D01*
X56276000Y-31180638D01*
X56276000Y-31819362D01*
X56271555Y-31864499D01*
X56260180Y-31901995D01*
X56241708Y-31936554D01*
X56216847Y-31966847D01*
X56186554Y-31991708D01*
X56151995Y-32010180D01*
X56114499Y-32021555D01*
X56069362Y-32026000D01*
X55330638Y-32026000D01*
X55285501Y-32021555D01*
X55248005Y-32010180D01*
X55213446Y-31991708D01*
X55183153Y-31966847D01*
X55158292Y-31936554D01*
X55139820Y-31901995D01*
X55128445Y-31864499D01*
X55124000Y-31819362D01*
X55124000Y-31180638D01*
X55128445Y-31135501D01*
X55139820Y-31098005D01*
X55158292Y-31063446D01*
X55183153Y-31033153D01*
X55213446Y-31008292D01*
X55248005Y-30989820D01*
X55285501Y-30978445D01*
X55330638Y-30974000D01*
X56069362Y-30974000D01*
X56114499Y-30978445D01*
G37*
G36*
X59714499Y-30978445D02*
G01*
X59751995Y-30989820D01*
X59786554Y-31008292D01*
X59816847Y-31033153D01*
X59841708Y-31063446D01*
X59860180Y-31098005D01*
X59871555Y-31135501D01*
X59876000Y-31180638D01*
X59876000Y-31819362D01*
X59871555Y-31864499D01*
X59860180Y-31901995D01*
X59841708Y-31936554D01*
X59816847Y-31966847D01*
X59786554Y-31991708D01*
X59751995Y-32010180D01*
X59714499Y-32021555D01*
X59669362Y-32026000D01*
X58930638Y-32026000D01*
X58885501Y-32021555D01*
X58848005Y-32010180D01*
X58813446Y-31991708D01*
X58783153Y-31966847D01*
X58758292Y-31936554D01*
X58739820Y-31901995D01*
X58728445Y-31864499D01*
X58724000Y-31819362D01*
X58724000Y-31180638D01*
X58728445Y-31135501D01*
X58739820Y-31098005D01*
X58758292Y-31063446D01*
X58783153Y-31033153D01*
X58813446Y-31008292D01*
X58848005Y-30989820D01*
X58885501Y-30978445D01*
X58930638Y-30974000D01*
X59669362Y-30974000D01*
X59714499Y-30978445D01*
G37*
G36*
X61464499Y-30978445D02*
G01*
X61501995Y-30989820D01*
X61536554Y-31008292D01*
X61566847Y-31033153D01*
X61591708Y-31063446D01*
X61610180Y-31098005D01*
X61621555Y-31135501D01*
X61626000Y-31180638D01*
X61626000Y-31819362D01*
X61621555Y-31864499D01*
X61610180Y-31901995D01*
X61591708Y-31936554D01*
X61566847Y-31966847D01*
X61536554Y-31991708D01*
X61501995Y-32010180D01*
X61464499Y-32021555D01*
X61419362Y-32026000D01*
X60680638Y-32026000D01*
X60635501Y-32021555D01*
X60598005Y-32010180D01*
X60563446Y-31991708D01*
X60533153Y-31966847D01*
X60508292Y-31936554D01*
X60489820Y-31901995D01*
X60478445Y-31864499D01*
X60474000Y-31819362D01*
X60474000Y-31180638D01*
X60478445Y-31135501D01*
X60489820Y-31098005D01*
X60508292Y-31063446D01*
X60533153Y-31033153D01*
X60563446Y-31008292D01*
X60598005Y-30989820D01*
X60635501Y-30978445D01*
X60680638Y-30974000D01*
X61419362Y-30974000D01*
X61464499Y-30978445D01*
G37*
G36*
X57864499Y-30978445D02*
G01*
X57901995Y-30989820D01*
X57936554Y-31008292D01*
X57966847Y-31033153D01*
X57991708Y-31063446D01*
X58010180Y-31098005D01*
X58021555Y-31135501D01*
X58026000Y-31180638D01*
X58026000Y-31819362D01*
X58021555Y-31864499D01*
X58010180Y-31901995D01*
X57991708Y-31936554D01*
X57966847Y-31966847D01*
X57936554Y-31991708D01*
X57901995Y-32010180D01*
X57864499Y-32021555D01*
X57819362Y-32026000D01*
X57080638Y-32026000D01*
X57035501Y-32021555D01*
X56998005Y-32010180D01*
X56963446Y-31991708D01*
X56933153Y-31966847D01*
X56908292Y-31936554D01*
X56889820Y-31901995D01*
X56878445Y-31864499D01*
X56874000Y-31819362D01*
X56874000Y-31180638D01*
X56878445Y-31135501D01*
X56889820Y-31098005D01*
X56908292Y-31063446D01*
X56933153Y-31033153D01*
X56963446Y-31008292D01*
X56998005Y-30989820D01*
X57035501Y-30978445D01*
X57080638Y-30974000D01*
X57819362Y-30974000D01*
X57864499Y-30978445D01*
G37*
G36*
X32951000Y-32001000D02*
G01*
X30849000Y-32001000D01*
X30849000Y-31199000D01*
X32951000Y-31199000D01*
X32951000Y-32001000D01*
G37*
G36*
X13651000Y-32001000D02*
G01*
X11549000Y-32001000D01*
X11549000Y-31199000D01*
X13651000Y-31199000D01*
X13651000Y-32001000D01*
G37*
G36*
X23151000Y-32001000D02*
G01*
X21049000Y-32001000D01*
X21049000Y-31199000D01*
X23151000Y-31199000D01*
X23151000Y-32001000D01*
G37*
G36*
X7651000Y-32001000D02*
G01*
X5549000Y-32001000D01*
X5549000Y-31199000D01*
X7651000Y-31199000D01*
X7651000Y-32001000D01*
G37*
G36*
X17151000Y-32001000D02*
G01*
X15049000Y-32001000D01*
X15049000Y-31199000D01*
X17151000Y-31199000D01*
X17151000Y-32001000D01*
G37*
G36*
X26951000Y-32001000D02*
G01*
X24849000Y-32001000D01*
X24849000Y-31199000D01*
X26951000Y-31199000D01*
X26951000Y-32001000D01*
G37*
G36*
X132332585Y-27648802D02*
G01*
X132482410Y-27678604D01*
X132764674Y-27795521D01*
X133018705Y-27965259D01*
X133234741Y-28181295D01*
X133404479Y-28435326D01*
X133521396Y-28717590D01*
X133581000Y-29017240D01*
X133581000Y-29322760D01*
X133521396Y-29622410D01*
X133404479Y-29904674D01*
X133234741Y-30158705D01*
X133018705Y-30374741D01*
X132764674Y-30544479D01*
X132482410Y-30661396D01*
X132332585Y-30691198D01*
X132182761Y-30721000D01*
X131877239Y-30721000D01*
X131727415Y-30691198D01*
X131577590Y-30661396D01*
X131295326Y-30544479D01*
X131041295Y-30374741D01*
X130825259Y-30158705D01*
X130655521Y-29904674D01*
X130538604Y-29622410D01*
X130479000Y-29322760D01*
X130479000Y-29017240D01*
X130538604Y-28717590D01*
X130655521Y-28435326D01*
X130825259Y-28181295D01*
X131041295Y-27965259D01*
X131295326Y-27795521D01*
X131577590Y-27678604D01*
X131727415Y-27648802D01*
X131877239Y-27619000D01*
X132182761Y-27619000D01*
X132332585Y-27648802D01*
G37*
G36*
X-921746Y-26487818D02*
G01*
X-548489Y-26642426D01*
X-548487Y-26642427D01*
X-212564Y-26866884D01*
X73116Y-27152564D01*
X297574Y-27488489D01*
X452182Y-27861746D01*
X531000Y-28257993D01*
X531000Y-28662007D01*
X452182Y-29058254D01*
X297574Y-29431511D01*
X297573Y-29431513D01*
X73116Y-29767436D01*
X-212564Y-30053116D01*
X-548487Y-30277573D01*
X-548488Y-30277574D01*
X-548489Y-30277574D01*
X-921746Y-30432182D01*
X-1317993Y-30511000D01*
X-1722007Y-30511000D01*
X-2118254Y-30432182D01*
X-2491511Y-30277574D01*
X-2491512Y-30277574D01*
X-2491513Y-30277573D01*
X-2827436Y-30053116D01*
X-3113116Y-29767436D01*
X-3337573Y-29431513D01*
X-3337574Y-29431511D01*
X-3492182Y-29058254D01*
X-3571000Y-28662007D01*
X-3571000Y-28257993D01*
X-3492182Y-27861746D01*
X-3337574Y-27488489D01*
X-3113116Y-27152564D01*
X-2827436Y-26866884D01*
X-2491513Y-26642427D01*
X-2491511Y-26642426D01*
X-2118254Y-26487818D01*
X-1722007Y-26409000D01*
X-1317993Y-26409000D01*
X-921746Y-26487818D01*
G37*
G36*
X23151000Y-29801000D02*
G01*
X21049000Y-29801000D01*
X21049000Y-28999000D01*
X23151000Y-28999000D01*
X23151000Y-29801000D01*
G37*
G36*
X17151000Y-29801000D02*
G01*
X15049000Y-29801000D01*
X15049000Y-28999000D01*
X17151000Y-28999000D01*
X17151000Y-29801000D01*
G37*
G36*
X7651000Y-29801000D02*
G01*
X5549000Y-29801000D01*
X5549000Y-28999000D01*
X7651000Y-28999000D01*
X7651000Y-29801000D01*
G37*
G36*
X13651000Y-29801000D02*
G01*
X11549000Y-29801000D01*
X11549000Y-28999000D01*
X13651000Y-28999000D01*
X13651000Y-29801000D01*
G37*
G36*
X26951000Y-29801000D02*
G01*
X24849000Y-29801000D01*
X24849000Y-28999000D01*
X26951000Y-28999000D01*
X26951000Y-29801000D01*
G37*
G36*
X32951000Y-29801000D02*
G01*
X30849000Y-29801000D01*
X30849000Y-28999000D01*
X32951000Y-28999000D01*
X32951000Y-29801000D01*
G37*
G36*
X56301000Y-29701000D02*
G01*
X54199000Y-29701000D01*
X54199000Y-28899000D01*
X56301000Y-28899000D01*
X56301000Y-29701000D01*
G37*
G36*
X62301000Y-29701000D02*
G01*
X60199000Y-29701000D01*
X60199000Y-28899000D01*
X62301000Y-28899000D01*
X62301000Y-29701000D01*
G37*
G36*
X26951000Y-27601000D02*
G01*
X24849000Y-27601000D01*
X24849000Y-26799000D01*
X26951000Y-26799000D01*
X26951000Y-27601000D01*
G37*
G36*
X23151000Y-27601000D02*
G01*
X21049000Y-27601000D01*
X21049000Y-26799000D01*
X23151000Y-26799000D01*
X23151000Y-27601000D01*
G37*
G36*
X17151000Y-27601000D02*
G01*
X15049000Y-27601000D01*
X15049000Y-26799000D01*
X17151000Y-26799000D01*
X17151000Y-27601000D01*
G37*
G36*
X7651000Y-27601000D02*
G01*
X5549000Y-27601000D01*
X5549000Y-26799000D01*
X7651000Y-26799000D01*
X7651000Y-27601000D01*
G37*
G36*
X13651000Y-27601000D02*
G01*
X11549000Y-27601000D01*
X11549000Y-26799000D01*
X13651000Y-26799000D01*
X13651000Y-27601000D01*
G37*
G36*
X32951000Y-27601000D02*
G01*
X30849000Y-27601000D01*
X30849000Y-26799000D01*
X32951000Y-26799000D01*
X32951000Y-27601000D01*
G37*
G36*
X56301000Y-27501000D02*
G01*
X54199000Y-27501000D01*
X54199000Y-26699000D01*
X56301000Y-26699000D01*
X56301000Y-27501000D01*
G37*
G36*
X62301000Y-27501000D02*
G01*
X60199000Y-27501000D01*
X60199000Y-26699000D01*
X62301000Y-26699000D01*
X62301000Y-27501000D01*
G37*
G36*
X62301000Y-25301000D02*
G01*
X60199000Y-25301000D01*
X60199000Y-24499000D01*
X62301000Y-24499000D01*
X62301000Y-25301000D01*
G37*
G36*
X56301000Y-25301000D02*
G01*
X54199000Y-25301000D01*
X54199000Y-24499000D01*
X56301000Y-24499000D01*
X56301000Y-25301000D01*
G37*
G36*
X134664795Y-22400156D02*
G01*
X134771150Y-22421311D01*
X134871334Y-22462809D01*
X134971520Y-22504307D01*
X135151844Y-22624795D01*
X135305205Y-22778156D01*
X135425693Y-22958480D01*
X135508689Y-23158851D01*
X135551000Y-23371560D01*
X135551000Y-23588440D01*
X135508689Y-23801149D01*
X135425693Y-24001520D01*
X135305205Y-24181844D01*
X135151844Y-24335205D01*
X134971520Y-24455693D01*
X134771150Y-24538689D01*
X134664795Y-24559844D01*
X134558440Y-24581000D01*
X134341560Y-24581000D01*
X134235205Y-24559844D01*
X134128850Y-24538689D01*
X133928480Y-24455693D01*
X133748156Y-24335205D01*
X133594795Y-24181844D01*
X133474307Y-24001520D01*
X133391311Y-23801149D01*
X133349000Y-23588440D01*
X133349000Y-23371560D01*
X133391311Y-23158851D01*
X133474307Y-22958480D01*
X133594795Y-22778156D01*
X133748156Y-22624795D01*
X133928480Y-22504307D01*
X134028666Y-22462809D01*
X134128850Y-22421311D01*
X134235206Y-22400155D01*
X134341560Y-22379000D01*
X134558440Y-22379000D01*
X134664795Y-22400156D01*
G37*
G36*
X17151000Y-24401000D02*
G01*
X15049000Y-24401000D01*
X15049000Y-23599000D01*
X17151000Y-23599000D01*
X17151000Y-24401000D01*
G37*
G36*
X7651000Y-24401000D02*
G01*
X5549000Y-24401000D01*
X5549000Y-23599000D01*
X7651000Y-23599000D01*
X7651000Y-24401000D01*
G37*
G36*
X23151000Y-24401000D02*
G01*
X21049000Y-24401000D01*
X21049000Y-23599000D01*
X23151000Y-23599000D01*
X23151000Y-24401000D01*
G37*
G36*
X32951000Y-24401000D02*
G01*
X30849000Y-24401000D01*
X30849000Y-23599000D01*
X32951000Y-23599000D01*
X32951000Y-24401000D01*
G37*
G36*
X13651000Y-24401000D02*
G01*
X11549000Y-24401000D01*
X11549000Y-23599000D01*
X13651000Y-23599000D01*
X13651000Y-24401000D01*
G37*
G36*
X26951000Y-24401000D02*
G01*
X24849000Y-24401000D01*
X24849000Y-23599000D01*
X26951000Y-23599000D01*
X26951000Y-24401000D01*
G37*
G36*
X113126000Y-23801000D02*
G01*
X111024000Y-23801000D01*
X111024000Y-22999000D01*
X113126000Y-22999000D01*
X113126000Y-23801000D01*
G37*
G36*
X107126000Y-23801000D02*
G01*
X105024000Y-23801000D01*
X105024000Y-22999000D01*
X107126000Y-22999000D01*
X107126000Y-23801000D01*
G37*
G36*
X20259468Y-20853565D02*
G01*
X20298138Y-20865296D01*
X20333777Y-20884346D01*
X20365017Y-20909983D01*
X20390654Y-20941223D01*
X20409704Y-20976862D01*
X20421435Y-21015532D01*
X20426000Y-21061888D01*
X20426000Y-22138112D01*
X20421435Y-22184468D01*
X20409704Y-22223138D01*
X20390654Y-22258777D01*
X20365017Y-22290017D01*
X20333777Y-22315654D01*
X20298138Y-22334704D01*
X20259468Y-22346435D01*
X20213112Y-22351000D01*
X19561888Y-22351000D01*
X19515532Y-22346435D01*
X19476862Y-22334704D01*
X19441223Y-22315654D01*
X19409983Y-22290017D01*
X19384346Y-22258777D01*
X19365296Y-22223138D01*
X19353565Y-22184468D01*
X19349000Y-22138112D01*
X19349000Y-21061888D01*
X19353565Y-21015532D01*
X19365296Y-20976862D01*
X19384346Y-20941223D01*
X19409983Y-20909983D01*
X19441223Y-20884346D01*
X19476862Y-20865296D01*
X19515532Y-20853565D01*
X19561888Y-20849000D01*
X20213112Y-20849000D01*
X20259468Y-20853565D01*
G37*
G36*
X18384468Y-20853565D02*
G01*
X18423138Y-20865296D01*
X18458777Y-20884346D01*
X18490017Y-20909983D01*
X18515654Y-20941223D01*
X18534704Y-20976862D01*
X18546435Y-21015532D01*
X18551000Y-21061888D01*
X18551000Y-22138112D01*
X18546435Y-22184468D01*
X18534704Y-22223138D01*
X18515654Y-22258777D01*
X18490017Y-22290017D01*
X18458777Y-22315654D01*
X18423138Y-22334704D01*
X18384468Y-22346435D01*
X18338112Y-22351000D01*
X17686888Y-22351000D01*
X17640532Y-22346435D01*
X17601862Y-22334704D01*
X17566223Y-22315654D01*
X17534983Y-22290017D01*
X17509346Y-22258777D01*
X17490296Y-22223138D01*
X17478565Y-22184468D01*
X17474000Y-22138112D01*
X17474000Y-21061888D01*
X17478565Y-21015532D01*
X17490296Y-20976862D01*
X17509346Y-20941223D01*
X17534983Y-20909983D01*
X17566223Y-20884346D01*
X17601862Y-20865296D01*
X17640532Y-20853565D01*
X17686888Y-20849000D01*
X18338112Y-20849000D01*
X18384468Y-20853565D01*
G37*
G36*
X751000Y-22351000D02*
G01*
X-951000Y-22351000D01*
X-951000Y-20649000D01*
X751000Y-20649000D01*
X751000Y-22351000D01*
G37*
G36*
X31964499Y-21178445D02*
G01*
X32001995Y-21189820D01*
X32036554Y-21208292D01*
X32066847Y-21233153D01*
X32091708Y-21263446D01*
X32110180Y-21298005D01*
X32121555Y-21335501D01*
X32126000Y-21380638D01*
X32126000Y-22119362D01*
X32121555Y-22164499D01*
X32110180Y-22201995D01*
X32091708Y-22236554D01*
X32066847Y-22266847D01*
X32036554Y-22291708D01*
X32001995Y-22310180D01*
X31964499Y-22321555D01*
X31919362Y-22326000D01*
X31280638Y-22326000D01*
X31235501Y-22321555D01*
X31198005Y-22310180D01*
X31163446Y-22291708D01*
X31133153Y-22266847D01*
X31108292Y-22236554D01*
X31089820Y-22201995D01*
X31078445Y-22164499D01*
X31074000Y-22119362D01*
X31074000Y-21380638D01*
X31078445Y-21335501D01*
X31089820Y-21298005D01*
X31108292Y-21263446D01*
X31133153Y-21233153D01*
X31163446Y-21208292D01*
X31198005Y-21189820D01*
X31235501Y-21178445D01*
X31280638Y-21174000D01*
X31919362Y-21174000D01*
X31964499Y-21178445D01*
G37*
G36*
X30084468Y-20828565D02*
G01*
X30123138Y-20840296D01*
X30158777Y-20859346D01*
X30190017Y-20884983D01*
X30215654Y-20916223D01*
X30234704Y-20951862D01*
X30246435Y-20990532D01*
X30251000Y-21036888D01*
X30251000Y-22113112D01*
X30246435Y-22159468D01*
X30234704Y-22198138D01*
X30215654Y-22233777D01*
X30190017Y-22265017D01*
X30158777Y-22290654D01*
X30123138Y-22309704D01*
X30084468Y-22321435D01*
X30038112Y-22326000D01*
X29386888Y-22326000D01*
X29340532Y-22321435D01*
X29301862Y-22309704D01*
X29266223Y-22290654D01*
X29234983Y-22265017D01*
X29209346Y-22233777D01*
X29190296Y-22198138D01*
X29178565Y-22159468D01*
X29174000Y-22113112D01*
X29174000Y-21036888D01*
X29178565Y-20990532D01*
X29190296Y-20951862D01*
X29209346Y-20916223D01*
X29234983Y-20884983D01*
X29266223Y-20859346D01*
X29301862Y-20840296D01*
X29340532Y-20828565D01*
X29386888Y-20824000D01*
X30038112Y-20824000D01*
X30084468Y-20828565D01*
G37*
G36*
X28209468Y-20828565D02*
G01*
X28248138Y-20840296D01*
X28283777Y-20859346D01*
X28315017Y-20884983D01*
X28340654Y-20916223D01*
X28359704Y-20951862D01*
X28371435Y-20990532D01*
X28376000Y-21036888D01*
X28376000Y-22113112D01*
X28371435Y-22159468D01*
X28359704Y-22198138D01*
X28340654Y-22233777D01*
X28315017Y-22265017D01*
X28283777Y-22290654D01*
X28248138Y-22309704D01*
X28209468Y-22321435D01*
X28163112Y-22326000D01*
X27511888Y-22326000D01*
X27465532Y-22321435D01*
X27426862Y-22309704D01*
X27391223Y-22290654D01*
X27359983Y-22265017D01*
X27334346Y-22233777D01*
X27315296Y-22198138D01*
X27303565Y-22159468D01*
X27299000Y-22113112D01*
X27299000Y-21036888D01*
X27303565Y-20990532D01*
X27315296Y-20951862D01*
X27334346Y-20916223D01*
X27359983Y-20884983D01*
X27391223Y-20859346D01*
X27426862Y-20840296D01*
X27465532Y-20828565D01*
X27511888Y-20824000D01*
X28163112Y-20824000D01*
X28209468Y-20828565D01*
G37*
G36*
X13089499Y-21178445D02*
G01*
X13126995Y-21189820D01*
X13161554Y-21208292D01*
X13191847Y-21233153D01*
X13216708Y-21263446D01*
X13235180Y-21298005D01*
X13246555Y-21335501D01*
X13251000Y-21380638D01*
X13251000Y-22119362D01*
X13246555Y-22164499D01*
X13235180Y-22201995D01*
X13216708Y-22236554D01*
X13191847Y-22266847D01*
X13161554Y-22291708D01*
X13126995Y-22310180D01*
X13089499Y-22321555D01*
X13044362Y-22326000D01*
X12405638Y-22326000D01*
X12360501Y-22321555D01*
X12323005Y-22310180D01*
X12288446Y-22291708D01*
X12258153Y-22266847D01*
X12233292Y-22236554D01*
X12214820Y-22201995D01*
X12203445Y-22164499D01*
X12199000Y-22119362D01*
X12199000Y-21380638D01*
X12203445Y-21335501D01*
X12214820Y-21298005D01*
X12233292Y-21263446D01*
X12258153Y-21233153D01*
X12288446Y-21208292D01*
X12323005Y-21189820D01*
X12360501Y-21178445D01*
X12405638Y-21174000D01*
X13044362Y-21174000D01*
X13089499Y-21178445D01*
G37*
G36*
X22439499Y-21103445D02*
G01*
X22476995Y-21114820D01*
X22511554Y-21133292D01*
X22541847Y-21158153D01*
X22566708Y-21188446D01*
X22585180Y-21223005D01*
X22596555Y-21260501D01*
X22601000Y-21305638D01*
X22601000Y-22044362D01*
X22596555Y-22089499D01*
X22585180Y-22126995D01*
X22566708Y-22161554D01*
X22541847Y-22191847D01*
X22511554Y-22216708D01*
X22476995Y-22235180D01*
X22439499Y-22246555D01*
X22394362Y-22251000D01*
X21755638Y-22251000D01*
X21710501Y-22246555D01*
X21673005Y-22235180D01*
X21638446Y-22216708D01*
X21608153Y-22191847D01*
X21583292Y-22161554D01*
X21564820Y-22126995D01*
X21553445Y-22089499D01*
X21549000Y-22044362D01*
X21549000Y-21305638D01*
X21553445Y-21260501D01*
X21564820Y-21223005D01*
X21583292Y-21188446D01*
X21608153Y-21158153D01*
X21638446Y-21133292D01*
X21673005Y-21114820D01*
X21710501Y-21103445D01*
X21755638Y-21099000D01*
X22394362Y-21099000D01*
X22439499Y-21103445D01*
G37*
G36*
X10909468Y-20728565D02*
G01*
X10948138Y-20740296D01*
X10983777Y-20759346D01*
X11015017Y-20784983D01*
X11040654Y-20816223D01*
X11059704Y-20851862D01*
X11071435Y-20890532D01*
X11076000Y-20936888D01*
X11076000Y-22013112D01*
X11071435Y-22059468D01*
X11059704Y-22098138D01*
X11040654Y-22133777D01*
X11015017Y-22165017D01*
X10983777Y-22190654D01*
X10948138Y-22209704D01*
X10909468Y-22221435D01*
X10863112Y-22226000D01*
X10211888Y-22226000D01*
X10165532Y-22221435D01*
X10126862Y-22209704D01*
X10091223Y-22190654D01*
X10059983Y-22165017D01*
X10034346Y-22133777D01*
X10015296Y-22098138D01*
X10003565Y-22059468D01*
X9999000Y-22013112D01*
X9999000Y-20936888D01*
X10003565Y-20890532D01*
X10015296Y-20851862D01*
X10034346Y-20816223D01*
X10059983Y-20784983D01*
X10091223Y-20759346D01*
X10126862Y-20740296D01*
X10165532Y-20728565D01*
X10211888Y-20724000D01*
X10863112Y-20724000D01*
X10909468Y-20728565D01*
G37*
G36*
X9034468Y-20728565D02*
G01*
X9073138Y-20740296D01*
X9108777Y-20759346D01*
X9140017Y-20784983D01*
X9165654Y-20816223D01*
X9184704Y-20851862D01*
X9196435Y-20890532D01*
X9201000Y-20936888D01*
X9201000Y-22013112D01*
X9196435Y-22059468D01*
X9184704Y-22098138D01*
X9165654Y-22133777D01*
X9140017Y-22165017D01*
X9108777Y-22190654D01*
X9073138Y-22209704D01*
X9034468Y-22221435D01*
X8988112Y-22226000D01*
X8336888Y-22226000D01*
X8290532Y-22221435D01*
X8251862Y-22209704D01*
X8216223Y-22190654D01*
X8184983Y-22165017D01*
X8159346Y-22133777D01*
X8140296Y-22098138D01*
X8128565Y-22059468D01*
X8124000Y-22013112D01*
X8124000Y-20936888D01*
X8128565Y-20890532D01*
X8140296Y-20851862D01*
X8159346Y-20816223D01*
X8184983Y-20784983D01*
X8216223Y-20759346D01*
X8251862Y-20740296D01*
X8290532Y-20728565D01*
X8336888Y-20724000D01*
X8988112Y-20724000D01*
X9034468Y-20728565D01*
G37*
G36*
X7101000Y-22226000D02*
G01*
X6549000Y-22226000D01*
X6549000Y-21524000D01*
X7101000Y-21524000D01*
X7101000Y-22226000D01*
G37*
G36*
X16576000Y-22201000D02*
G01*
X16024000Y-22201000D01*
X16024000Y-21499000D01*
X16576000Y-21499000D01*
X16576000Y-22201000D01*
G37*
G36*
X26076000Y-22151000D02*
G01*
X25524000Y-22151000D01*
X25524000Y-21449000D01*
X26076000Y-21449000D01*
X26076000Y-22151000D01*
G37*
G36*
X62301000Y-22101000D02*
G01*
X60199000Y-22101000D01*
X60199000Y-21299000D01*
X62301000Y-21299000D01*
X62301000Y-22101000D01*
G37*
G36*
X56301000Y-22101000D02*
G01*
X54199000Y-22101000D01*
X54199000Y-21299000D01*
X56301000Y-21299000D01*
X56301000Y-22101000D01*
G37*
G36*
X134642008Y-19855623D02*
G01*
X134771150Y-19881311D01*
X134856605Y-19916708D01*
X134971520Y-19964307D01*
X135151844Y-20084795D01*
X135305205Y-20238156D01*
X135425693Y-20418480D01*
X135459032Y-20498969D01*
X135489099Y-20571555D01*
X135508689Y-20618851D01*
X135536636Y-20759346D01*
X135551000Y-20831561D01*
X135551000Y-21048439D01*
X135516277Y-21223005D01*
X135508689Y-21261149D01*
X135425693Y-21461520D01*
X135305205Y-21641844D01*
X135151844Y-21795205D01*
X134971520Y-21915693D01*
X134872399Y-21956750D01*
X134771150Y-21998689D01*
X134698641Y-22013112D01*
X134558440Y-22041000D01*
X134341560Y-22041000D01*
X134201359Y-22013112D01*
X134128850Y-21998689D01*
X134027601Y-21956750D01*
X133928480Y-21915693D01*
X133748156Y-21795205D01*
X133594795Y-21641844D01*
X133474307Y-21461520D01*
X133391311Y-21261149D01*
X133383724Y-21223005D01*
X133349000Y-21048439D01*
X133349000Y-20831561D01*
X133363365Y-20759346D01*
X133391311Y-20618851D01*
X133410902Y-20571555D01*
X133440968Y-20498969D01*
X133474307Y-20418480D01*
X133594795Y-20238156D01*
X133748156Y-20084795D01*
X133928480Y-19964307D01*
X134043395Y-19916708D01*
X134128850Y-19881311D01*
X134257992Y-19855623D01*
X134341560Y-19839000D01*
X134558440Y-19839000D01*
X134642008Y-19855623D01*
G37*
G36*
X113126000Y-21601000D02*
G01*
X111024000Y-21601000D01*
X111024000Y-20799000D01*
X113126000Y-20799000D01*
X113126000Y-21601000D01*
G37*
G36*
X107126000Y-21601000D02*
G01*
X105024000Y-21601000D01*
X105024000Y-20799000D01*
X107126000Y-20799000D01*
X107126000Y-21601000D01*
G37*
G36*
X-2691772Y-19296703D02*
G01*
X-2536900Y-19360853D01*
X-2397519Y-19453985D01*
X-2278985Y-19572519D01*
X-2185853Y-19711900D01*
X-2121703Y-19866772D01*
X-2089000Y-20031184D01*
X-2089000Y-20198816D01*
X-2121703Y-20363228D01*
X-2185853Y-20518100D01*
X-2278985Y-20657481D01*
X-2397519Y-20776015D01*
X-2536900Y-20869147D01*
X-2691772Y-20933297D01*
X-2856184Y-20966000D01*
X-3023816Y-20966000D01*
X-3188228Y-20933297D01*
X-3343100Y-20869147D01*
X-3482481Y-20776015D01*
X-3601015Y-20657481D01*
X-3694147Y-20518100D01*
X-3758297Y-20363228D01*
X-3791000Y-20198816D01*
X-3791000Y-20031184D01*
X-3758297Y-19866772D01*
X-3694147Y-19711900D01*
X-3601015Y-19572519D01*
X-3482481Y-19453985D01*
X-3343100Y-19360853D01*
X-3188228Y-19296703D01*
X-3023816Y-19264000D01*
X-2856184Y-19264000D01*
X-2691772Y-19296703D01*
G37*
G36*
X13089499Y-19428445D02*
G01*
X13126995Y-19439820D01*
X13161554Y-19458292D01*
X13191847Y-19483153D01*
X13216708Y-19513446D01*
X13235180Y-19548005D01*
X13246555Y-19585501D01*
X13251000Y-19630638D01*
X13251000Y-20369362D01*
X13246555Y-20414499D01*
X13235180Y-20451995D01*
X13216708Y-20486554D01*
X13191847Y-20516847D01*
X13161554Y-20541708D01*
X13126995Y-20560180D01*
X13089499Y-20571555D01*
X13044362Y-20576000D01*
X12405638Y-20576000D01*
X12360501Y-20571555D01*
X12323005Y-20560180D01*
X12288446Y-20541708D01*
X12258153Y-20516847D01*
X12233292Y-20486554D01*
X12214820Y-20451995D01*
X12203445Y-20414499D01*
X12199000Y-20369362D01*
X12199000Y-19630638D01*
X12203445Y-19585501D01*
X12214820Y-19548005D01*
X12233292Y-19513446D01*
X12258153Y-19483153D01*
X12288446Y-19458292D01*
X12323005Y-19439820D01*
X12360501Y-19428445D01*
X12405638Y-19424000D01*
X13044362Y-19424000D01*
X13089499Y-19428445D01*
G37*
G36*
X31964499Y-19428445D02*
G01*
X32001995Y-19439820D01*
X32036554Y-19458292D01*
X32066847Y-19483153D01*
X32091708Y-19513446D01*
X32110180Y-19548005D01*
X32121555Y-19585501D01*
X32126000Y-19630638D01*
X32126000Y-20369362D01*
X32121555Y-20414499D01*
X32110180Y-20451995D01*
X32091708Y-20486554D01*
X32066847Y-20516847D01*
X32036554Y-20541708D01*
X32001995Y-20560180D01*
X31964499Y-20571555D01*
X31919362Y-20576000D01*
X31280638Y-20576000D01*
X31235501Y-20571555D01*
X31198005Y-20560180D01*
X31163446Y-20541708D01*
X31133153Y-20516847D01*
X31108292Y-20486554D01*
X31089820Y-20451995D01*
X31078445Y-20414499D01*
X31074000Y-20369362D01*
X31074000Y-19630638D01*
X31078445Y-19585501D01*
X31089820Y-19548005D01*
X31108292Y-19513446D01*
X31133153Y-19483153D01*
X31163446Y-19458292D01*
X31198005Y-19439820D01*
X31235501Y-19428445D01*
X31280638Y-19424000D01*
X31919362Y-19424000D01*
X31964499Y-19428445D01*
G37*
G36*
X22439499Y-19353445D02*
G01*
X22476995Y-19364820D01*
X22511554Y-19383292D01*
X22541847Y-19408153D01*
X22566708Y-19438446D01*
X22585180Y-19473005D01*
X22596555Y-19510501D01*
X22601000Y-19555638D01*
X22601000Y-20294362D01*
X22596555Y-20339499D01*
X22585180Y-20376995D01*
X22566708Y-20411554D01*
X22541847Y-20441847D01*
X22511554Y-20466708D01*
X22476995Y-20485180D01*
X22439499Y-20496555D01*
X22394362Y-20501000D01*
X21755638Y-20501000D01*
X21710501Y-20496555D01*
X21673005Y-20485180D01*
X21638446Y-20466708D01*
X21608153Y-20441847D01*
X21583292Y-20411554D01*
X21564820Y-20376995D01*
X21553445Y-20339499D01*
X21549000Y-20294362D01*
X21549000Y-19555638D01*
X21553445Y-19510501D01*
X21564820Y-19473005D01*
X21583292Y-19438446D01*
X21608153Y-19408153D01*
X21638446Y-19383292D01*
X21673005Y-19364820D01*
X21710501Y-19353445D01*
X21755638Y-19349000D01*
X22394362Y-19349000D01*
X22439499Y-19353445D01*
G37*
G36*
X7101000Y-20126000D02*
G01*
X6549000Y-20126000D01*
X6549000Y-19424000D01*
X7101000Y-19424000D01*
X7101000Y-20126000D01*
G37*
G36*
X16576000Y-20101000D02*
G01*
X16024000Y-20101000D01*
X16024000Y-19399000D01*
X16576000Y-19399000D01*
X16576000Y-20101000D01*
G37*
G36*
X26076000Y-20051000D02*
G01*
X25524000Y-20051000D01*
X25524000Y-19349000D01*
X26076000Y-19349000D01*
X26076000Y-20051000D01*
G37*
G36*
X55451000Y-20001000D02*
G01*
X54899000Y-20001000D01*
X54899000Y-19299000D01*
X55451000Y-19299000D01*
X55451000Y-20001000D01*
G37*
G36*
X61639499Y-18803445D02*
G01*
X61676995Y-18814820D01*
X61711554Y-18833292D01*
X61741847Y-18858153D01*
X61766708Y-18888446D01*
X61785180Y-18923005D01*
X61796555Y-18960501D01*
X61801000Y-19005638D01*
X61801000Y-19744362D01*
X61796555Y-19789499D01*
X61785180Y-19826995D01*
X61766708Y-19861554D01*
X61741847Y-19891847D01*
X61711554Y-19916708D01*
X61676995Y-19935180D01*
X61639499Y-19946555D01*
X61594362Y-19951000D01*
X60955638Y-19951000D01*
X60910501Y-19946555D01*
X60873005Y-19935180D01*
X60838446Y-19916708D01*
X60808153Y-19891847D01*
X60783292Y-19861554D01*
X60764820Y-19826995D01*
X60753445Y-19789499D01*
X60749000Y-19744362D01*
X60749000Y-19005638D01*
X60753445Y-18960501D01*
X60764820Y-18923005D01*
X60783292Y-18888446D01*
X60808153Y-18858153D01*
X60838446Y-18833292D01*
X60873005Y-18814820D01*
X60910501Y-18803445D01*
X60955638Y-18799000D01*
X61594362Y-18799000D01*
X61639499Y-18803445D01*
G37*
G36*
X59584468Y-18403565D02*
G01*
X59623138Y-18415296D01*
X59658777Y-18434346D01*
X59690017Y-18459983D01*
X59715654Y-18491223D01*
X59734704Y-18526862D01*
X59746435Y-18565532D01*
X59751000Y-18611888D01*
X59751000Y-19688112D01*
X59746435Y-19734468D01*
X59734704Y-19773138D01*
X59715654Y-19808777D01*
X59690017Y-19840017D01*
X59658777Y-19865654D01*
X59623138Y-19884704D01*
X59584468Y-19896435D01*
X59538112Y-19901000D01*
X58886888Y-19901000D01*
X58840532Y-19896435D01*
X58801862Y-19884704D01*
X58766223Y-19865654D01*
X58734983Y-19840017D01*
X58709346Y-19808777D01*
X58690296Y-19773138D01*
X58678565Y-19734468D01*
X58674000Y-19688112D01*
X58674000Y-18611888D01*
X58678565Y-18565532D01*
X58690296Y-18526862D01*
X58709346Y-18491223D01*
X58734983Y-18459983D01*
X58766223Y-18434346D01*
X58801862Y-18415296D01*
X58840532Y-18403565D01*
X58886888Y-18399000D01*
X59538112Y-18399000D01*
X59584468Y-18403565D01*
G37*
G36*
X57709468Y-18403565D02*
G01*
X57748138Y-18415296D01*
X57783777Y-18434346D01*
X57815017Y-18459983D01*
X57840654Y-18491223D01*
X57859704Y-18526862D01*
X57871435Y-18565532D01*
X57876000Y-18611888D01*
X57876000Y-19688112D01*
X57871435Y-19734468D01*
X57859704Y-19773138D01*
X57840654Y-19808777D01*
X57815017Y-19840017D01*
X57783777Y-19865654D01*
X57748138Y-19884704D01*
X57709468Y-19896435D01*
X57663112Y-19901000D01*
X57011888Y-19901000D01*
X56965532Y-19896435D01*
X56926862Y-19884704D01*
X56891223Y-19865654D01*
X56859983Y-19840017D01*
X56834346Y-19808777D01*
X56815296Y-19773138D01*
X56803565Y-19734468D01*
X56799000Y-19688112D01*
X56799000Y-18611888D01*
X56803565Y-18565532D01*
X56815296Y-18526862D01*
X56834346Y-18491223D01*
X56859983Y-18459983D01*
X56891223Y-18434346D01*
X56926862Y-18415296D01*
X56965532Y-18403565D01*
X57011888Y-18399000D01*
X57663112Y-18399000D01*
X57709468Y-18403565D01*
G37*
G36*
X148228Y-17911703D02*
G01*
X303100Y-17975853D01*
X442481Y-18068985D01*
X561015Y-18187519D01*
X654147Y-18326900D01*
X718297Y-18481772D01*
X751000Y-18646184D01*
X751000Y-18813816D01*
X718297Y-18978228D01*
X654147Y-19133100D01*
X561015Y-19272481D01*
X442481Y-19391015D01*
X303100Y-19484147D01*
X148228Y-19548297D01*
X-16184Y-19581000D01*
X-183816Y-19581000D01*
X-348228Y-19548297D01*
X-503100Y-19484147D01*
X-642481Y-19391015D01*
X-761015Y-19272481D01*
X-854147Y-19133100D01*
X-918297Y-18978228D01*
X-951000Y-18813816D01*
X-951000Y-18646184D01*
X-918297Y-18481772D01*
X-854147Y-18326900D01*
X-761015Y-18187519D01*
X-642481Y-18068985D01*
X-503100Y-17975853D01*
X-348228Y-17911703D01*
X-183816Y-17879000D01*
X-16184Y-17879000D01*
X148228Y-17911703D01*
G37*
G36*
X135551000Y-19501000D02*
G01*
X133349000Y-19501000D01*
X133349000Y-17299000D01*
X135551000Y-17299000D01*
X135551000Y-19501000D01*
G37*
G36*
X113126000Y-19401000D02*
G01*
X111024000Y-19401000D01*
X111024000Y-18599000D01*
X113126000Y-18599000D01*
X113126000Y-19401000D01*
G37*
G36*
X107126000Y-19401000D02*
G01*
X105024000Y-19401000D01*
X105024000Y-18599000D01*
X107126000Y-18599000D01*
X107126000Y-19401000D01*
G37*
G36*
X61639499Y-17053445D02*
G01*
X61676995Y-17064820D01*
X61711554Y-17083292D01*
X61741847Y-17108153D01*
X61766708Y-17138446D01*
X61785180Y-17173005D01*
X61796555Y-17210501D01*
X61801000Y-17255638D01*
X61801000Y-17994362D01*
X61796555Y-18039499D01*
X61785180Y-18076995D01*
X61766708Y-18111554D01*
X61741847Y-18141847D01*
X61711554Y-18166708D01*
X61676995Y-18185180D01*
X61639499Y-18196555D01*
X61594362Y-18201000D01*
X60955638Y-18201000D01*
X60910501Y-18196555D01*
X60873005Y-18185180D01*
X60838446Y-18166708D01*
X60808153Y-18141847D01*
X60783292Y-18111554D01*
X60764820Y-18076995D01*
X60753445Y-18039499D01*
X60749000Y-17994362D01*
X60749000Y-17255638D01*
X60753445Y-17210501D01*
X60764820Y-17173005D01*
X60783292Y-17138446D01*
X60808153Y-17108153D01*
X60838446Y-17083292D01*
X60873005Y-17064820D01*
X60910501Y-17053445D01*
X60955638Y-17049000D01*
X61594362Y-17049000D01*
X61639499Y-17053445D01*
G37*
G36*
X-2691772Y-16526703D02*
G01*
X-2536900Y-16590853D01*
X-2397519Y-16683985D01*
X-2278985Y-16802519D01*
X-2185853Y-16941900D01*
X-2121703Y-17096772D01*
X-2089000Y-17261184D01*
X-2089000Y-17428816D01*
X-2121703Y-17593228D01*
X-2185853Y-17748100D01*
X-2278985Y-17887481D01*
X-2397519Y-18006015D01*
X-2536900Y-18099147D01*
X-2691772Y-18163297D01*
X-2856184Y-18196000D01*
X-3023816Y-18196000D01*
X-3188228Y-18163297D01*
X-3343100Y-18099147D01*
X-3482481Y-18006015D01*
X-3601015Y-17887481D01*
X-3694147Y-17748100D01*
X-3758297Y-17593228D01*
X-3791000Y-17428816D01*
X-3791000Y-17261184D01*
X-3758297Y-17096772D01*
X-3694147Y-16941900D01*
X-3601015Y-16802519D01*
X-3482481Y-16683985D01*
X-3343100Y-16590853D01*
X-3188228Y-16526703D01*
X-3023816Y-16494000D01*
X-2856184Y-16494000D01*
X-2691772Y-16526703D01*
G37*
G36*
X55451000Y-17901000D02*
G01*
X54899000Y-17901000D01*
X54899000Y-17199000D01*
X55451000Y-17199000D01*
X55451000Y-17901000D01*
G37*
G36*
X148228Y-15141703D02*
G01*
X303100Y-15205853D01*
X442481Y-15298985D01*
X561015Y-15417519D01*
X654147Y-15556900D01*
X718297Y-15711772D01*
X751000Y-15876184D01*
X751000Y-16043816D01*
X718297Y-16208228D01*
X654147Y-16363100D01*
X561015Y-16502481D01*
X442481Y-16621015D01*
X303100Y-16714147D01*
X148228Y-16778297D01*
X-16184Y-16811000D01*
X-183816Y-16811000D01*
X-348228Y-16778297D01*
X-503100Y-16714147D01*
X-642481Y-16621015D01*
X-761015Y-16502481D01*
X-854147Y-16363100D01*
X-918297Y-16208228D01*
X-951000Y-16043816D01*
X-951000Y-15876184D01*
X-918297Y-15711772D01*
X-854147Y-15556900D01*
X-761015Y-15417519D01*
X-642481Y-15298985D01*
X-503100Y-15205853D01*
X-348228Y-15141703D01*
X-183816Y-15109000D01*
X-16184Y-15109000D01*
X148228Y-15141703D01*
G37*
G36*
X107126000Y-16201000D02*
G01*
X105024000Y-16201000D01*
X105024000Y-15399000D01*
X107126000Y-15399000D01*
X107126000Y-16201000D01*
G37*
G36*
X113126000Y-16201000D02*
G01*
X111024000Y-16201000D01*
X111024000Y-15399000D01*
X113126000Y-15399000D01*
X113126000Y-16201000D01*
G37*
G36*
X-2691772Y-13756703D02*
G01*
X-2536900Y-13820853D01*
X-2397519Y-13913985D01*
X-2278985Y-14032519D01*
X-2185853Y-14171900D01*
X-2121703Y-14326772D01*
X-2089000Y-14491184D01*
X-2089000Y-14658816D01*
X-2121703Y-14823228D01*
X-2185853Y-14978100D01*
X-2278985Y-15117481D01*
X-2397519Y-15236015D01*
X-2536900Y-15329147D01*
X-2691772Y-15393297D01*
X-2856184Y-15426000D01*
X-3023816Y-15426000D01*
X-3188228Y-15393297D01*
X-3343100Y-15329147D01*
X-3482481Y-15236015D01*
X-3601015Y-15117481D01*
X-3694147Y-14978100D01*
X-3758297Y-14823228D01*
X-3791000Y-14658816D01*
X-3791000Y-14491184D01*
X-3758297Y-14326772D01*
X-3694147Y-14171900D01*
X-3601015Y-14032519D01*
X-3482481Y-13913985D01*
X-3343100Y-13820853D01*
X-3188228Y-13756703D01*
X-3023816Y-13724000D01*
X-2856184Y-13724000D01*
X-2691772Y-13756703D01*
G37*
G36*
X65237142Y-13518242D02*
G01*
X65385101Y-13579529D01*
X65518255Y-13668499D01*
X65631501Y-13781745D01*
X65720471Y-13914899D01*
X65781758Y-14062858D01*
X65813000Y-14219925D01*
X65813000Y-14380075D01*
X65781758Y-14537142D01*
X65720471Y-14685101D01*
X65631501Y-14818255D01*
X65518255Y-14931501D01*
X65385101Y-15020471D01*
X65237142Y-15081758D01*
X65080075Y-15113000D01*
X64919925Y-15113000D01*
X64762858Y-15081758D01*
X64614899Y-15020471D01*
X64481745Y-14931501D01*
X64368499Y-14818255D01*
X64279529Y-14685101D01*
X64218242Y-14537142D01*
X64187000Y-14380075D01*
X64187000Y-14219925D01*
X64218242Y-14062858D01*
X64279529Y-13914899D01*
X64368499Y-13781745D01*
X64481745Y-13668499D01*
X64614899Y-13579529D01*
X64762858Y-13518242D01*
X64919925Y-13487000D01*
X65080075Y-13487000D01*
X65237142Y-13518242D01*
G37*
G36*
X62697142Y-13518242D02*
G01*
X62845101Y-13579529D01*
X62978255Y-13668499D01*
X63091501Y-13781745D01*
X63180471Y-13914899D01*
X63241758Y-14062858D01*
X63273000Y-14219925D01*
X63273000Y-14380075D01*
X63241758Y-14537142D01*
X63180471Y-14685101D01*
X63091501Y-14818255D01*
X62978255Y-14931501D01*
X62845101Y-15020471D01*
X62697142Y-15081758D01*
X62540075Y-15113000D01*
X62379925Y-15113000D01*
X62222858Y-15081758D01*
X62074899Y-15020471D01*
X61941745Y-14931501D01*
X61828499Y-14818255D01*
X61739529Y-14685101D01*
X61678242Y-14537142D01*
X61647000Y-14380075D01*
X61647000Y-14219925D01*
X61678242Y-14062858D01*
X61739529Y-13914899D01*
X61828499Y-13781745D01*
X61941745Y-13668499D01*
X62074899Y-13579529D01*
X62222858Y-13518242D01*
X62379925Y-13487000D01*
X62540075Y-13487000D01*
X62697142Y-13518242D01*
G37*
G36*
X132052585Y-11488802D02*
G01*
X132202410Y-11518604D01*
X132484674Y-11635521D01*
X132738705Y-11805259D01*
X132954741Y-12021295D01*
X133124479Y-12275326D01*
X133241396Y-12557590D01*
X133254466Y-12623297D01*
X133300129Y-12852858D01*
X133301000Y-12857240D01*
X133301000Y-13162760D01*
X133241396Y-13462410D01*
X133124479Y-13744674D01*
X132954741Y-13998705D01*
X132738705Y-14214741D01*
X132484674Y-14384479D01*
X132202410Y-14501396D01*
X132052585Y-14531198D01*
X131902761Y-14561000D01*
X131597239Y-14561000D01*
X131447415Y-14531198D01*
X131297590Y-14501396D01*
X131015326Y-14384479D01*
X130761295Y-14214741D01*
X130545259Y-13998705D01*
X130375521Y-13744674D01*
X130258604Y-13462410D01*
X130199000Y-13162760D01*
X130199000Y-12857240D01*
X130199872Y-12852858D01*
X130245534Y-12623297D01*
X130258604Y-12557590D01*
X130375521Y-12275326D01*
X130545259Y-12021295D01*
X130761295Y-11805259D01*
X131015326Y-11635521D01*
X131297590Y-11518604D01*
X131447415Y-11488802D01*
X131597239Y-11459000D01*
X131902761Y-11459000D01*
X132052585Y-11488802D01*
G37*
G36*
X106659468Y-13003565D02*
G01*
X106698138Y-13015296D01*
X106733777Y-13034346D01*
X106765017Y-13059983D01*
X106790654Y-13091223D01*
X106809704Y-13126862D01*
X106821435Y-13165532D01*
X106826000Y-13211888D01*
X106826000Y-13863112D01*
X106821435Y-13909468D01*
X106809704Y-13948138D01*
X106790654Y-13983777D01*
X106765017Y-14015017D01*
X106733777Y-14040654D01*
X106698138Y-14059704D01*
X106659468Y-14071435D01*
X106613112Y-14076000D01*
X105536888Y-14076000D01*
X105490532Y-14071435D01*
X105451862Y-14059704D01*
X105416223Y-14040654D01*
X105384983Y-14015017D01*
X105359346Y-13983777D01*
X105340296Y-13948138D01*
X105328565Y-13909468D01*
X105324000Y-13863112D01*
X105324000Y-13211888D01*
X105328565Y-13165532D01*
X105340296Y-13126862D01*
X105359346Y-13091223D01*
X105384983Y-13059983D01*
X105416223Y-13034346D01*
X105451862Y-13015296D01*
X105490532Y-13003565D01*
X105536888Y-12999000D01*
X106613112Y-12999000D01*
X106659468Y-13003565D01*
G37*
G36*
X148228Y-12371703D02*
G01*
X303100Y-12435853D01*
X442481Y-12528985D01*
X561015Y-12647519D01*
X654147Y-12786900D01*
X718297Y-12941772D01*
X751000Y-13106184D01*
X751000Y-13273816D01*
X718297Y-13438228D01*
X654147Y-13593100D01*
X561015Y-13732481D01*
X442481Y-13851015D01*
X303100Y-13944147D01*
X148228Y-14008297D01*
X-16184Y-14041000D01*
X-183816Y-14041000D01*
X-348228Y-14008297D01*
X-503100Y-13944147D01*
X-642481Y-13851015D01*
X-761015Y-13732481D01*
X-854147Y-13593100D01*
X-918297Y-13438228D01*
X-951000Y-13273816D01*
X-951000Y-13106184D01*
X-918297Y-12941772D01*
X-854147Y-12786900D01*
X-761015Y-12647519D01*
X-642481Y-12528985D01*
X-503100Y-12435853D01*
X-348228Y-12371703D01*
X-183816Y-12339000D01*
X-16184Y-12339000D01*
X148228Y-12371703D01*
G37*
G36*
X104351000Y-14001000D02*
G01*
X103799000Y-14001000D01*
X103799000Y-13299000D01*
X104351000Y-13299000D01*
X104351000Y-14001000D01*
G37*
G36*
X113200623Y-12151175D02*
G01*
X113348582Y-12212462D01*
X113481736Y-12301432D01*
X113594982Y-12414678D01*
X113683952Y-12547832D01*
X113745239Y-12695791D01*
X113776481Y-12852858D01*
X113776481Y-13013008D01*
X113745239Y-13170075D01*
X113683952Y-13318034D01*
X113594982Y-13451188D01*
X113481736Y-13564434D01*
X113348582Y-13653404D01*
X113200623Y-13714691D01*
X113043556Y-13745933D01*
X112883406Y-13745933D01*
X112726339Y-13714691D01*
X112578380Y-13653404D01*
X112445226Y-13564434D01*
X112331980Y-13451188D01*
X112243010Y-13318034D01*
X112181723Y-13170075D01*
X112150481Y-13013008D01*
X112150481Y-12852858D01*
X112181723Y-12695791D01*
X112243010Y-12547832D01*
X112331980Y-12414678D01*
X112445226Y-12301432D01*
X112578380Y-12212462D01*
X112726339Y-12151175D01*
X112883406Y-12119933D01*
X113043556Y-12119933D01*
X113200623Y-12151175D01*
G37*
G36*
X115737142Y-12018242D02*
G01*
X115885101Y-12079529D01*
X116018255Y-12168499D01*
X116131501Y-12281745D01*
X116220471Y-12414899D01*
X116281758Y-12562858D01*
X116313000Y-12719925D01*
X116313000Y-12880075D01*
X116281758Y-13037142D01*
X116220471Y-13185101D01*
X116131501Y-13318255D01*
X116018255Y-13431501D01*
X115885101Y-13520471D01*
X115737142Y-13581758D01*
X115580075Y-13613000D01*
X115419925Y-13613000D01*
X115262858Y-13581758D01*
X115114899Y-13520471D01*
X114981745Y-13431501D01*
X114868499Y-13318255D01*
X114779529Y-13185101D01*
X114718242Y-13037142D01*
X114687000Y-12880075D01*
X114687000Y-12719925D01*
X114718242Y-12562858D01*
X114779529Y-12414899D01*
X114868499Y-12281745D01*
X114981745Y-12168499D01*
X115114899Y-12079529D01*
X115262858Y-12018242D01*
X115419925Y-11987000D01*
X115580075Y-11987000D01*
X115737142Y-12018242D01*
G37*
G36*
X14737142Y-12018242D02*
G01*
X14885101Y-12079529D01*
X15018255Y-12168499D01*
X15131501Y-12281745D01*
X15220471Y-12414899D01*
X15281758Y-12562858D01*
X15313000Y-12719925D01*
X15313000Y-12880075D01*
X15281758Y-13037142D01*
X15220471Y-13185101D01*
X15131501Y-13318255D01*
X15018255Y-13431501D01*
X14885101Y-13520471D01*
X14737142Y-13581758D01*
X14580075Y-13613000D01*
X14419925Y-13613000D01*
X14262858Y-13581758D01*
X14114899Y-13520471D01*
X13981745Y-13431501D01*
X13868499Y-13318255D01*
X13779529Y-13185101D01*
X13718242Y-13037142D01*
X13687000Y-12880075D01*
X13687000Y-12719925D01*
X13718242Y-12562858D01*
X13779529Y-12414899D01*
X13868499Y-12281745D01*
X13981745Y-12168499D01*
X14114899Y-12079529D01*
X14262858Y-12018242D01*
X14419925Y-11987000D01*
X14580075Y-11987000D01*
X14737142Y-12018242D01*
G37*
G36*
X12200623Y-11885309D02*
G01*
X12348582Y-11946596D01*
X12481736Y-12035566D01*
X12594982Y-12148812D01*
X12683952Y-12281966D01*
X12745239Y-12429925D01*
X12776481Y-12586992D01*
X12776481Y-12747142D01*
X12745239Y-12904209D01*
X12683952Y-13052168D01*
X12594982Y-13185322D01*
X12481736Y-13298568D01*
X12348582Y-13387538D01*
X12200623Y-13448825D01*
X12043556Y-13480067D01*
X11883406Y-13480067D01*
X11726339Y-13448825D01*
X11578380Y-13387538D01*
X11445226Y-13298568D01*
X11331980Y-13185322D01*
X11243010Y-13052168D01*
X11181723Y-12904209D01*
X11150481Y-12747142D01*
X11150481Y-12586992D01*
X11181723Y-12429925D01*
X11243010Y-12281966D01*
X11331980Y-12148812D01*
X11445226Y-12035566D01*
X11578380Y-11946596D01*
X11726339Y-11885309D01*
X11883406Y-11854067D01*
X12043556Y-11854067D01*
X12200623Y-11885309D01*
G37*
G36*
X-2691772Y-10986703D02*
G01*
X-2536900Y-11050853D01*
X-2397519Y-11143985D01*
X-2278985Y-11262519D01*
X-2185853Y-11401900D01*
X-2121703Y-11556772D01*
X-2089000Y-11721184D01*
X-2089000Y-11888816D01*
X-2121703Y-12053228D01*
X-2185853Y-12208100D01*
X-2278985Y-12347481D01*
X-2397519Y-12466015D01*
X-2536900Y-12559147D01*
X-2691772Y-12623297D01*
X-2856184Y-12656000D01*
X-3023816Y-12656000D01*
X-3188228Y-12623297D01*
X-3343100Y-12559147D01*
X-3482481Y-12466015D01*
X-3601015Y-12347481D01*
X-3694147Y-12208100D01*
X-3758297Y-12053228D01*
X-3791000Y-11888816D01*
X-3791000Y-11721184D01*
X-3758297Y-11556772D01*
X-3694147Y-11401900D01*
X-3601015Y-11262519D01*
X-3482481Y-11143985D01*
X-3343100Y-11050853D01*
X-3188228Y-10986703D01*
X-3023816Y-10954000D01*
X-2856184Y-10954000D01*
X-2691772Y-10986703D01*
G37*
G36*
X106659468Y-11128565D02*
G01*
X106698138Y-11140296D01*
X106733777Y-11159346D01*
X106765017Y-11184983D01*
X106790654Y-11216223D01*
X106809704Y-11251862D01*
X106821435Y-11290532D01*
X106826000Y-11336888D01*
X106826000Y-11988112D01*
X106821435Y-12034468D01*
X106809704Y-12073138D01*
X106790654Y-12108777D01*
X106765017Y-12140017D01*
X106733777Y-12165654D01*
X106698138Y-12184704D01*
X106659468Y-12196435D01*
X106613112Y-12201000D01*
X105536888Y-12201000D01*
X105490532Y-12196435D01*
X105451862Y-12184704D01*
X105416223Y-12165654D01*
X105384983Y-12140017D01*
X105359346Y-12108777D01*
X105340296Y-12073138D01*
X105328565Y-12034468D01*
X105324000Y-11988112D01*
X105324000Y-11336888D01*
X105328565Y-11290532D01*
X105340296Y-11251862D01*
X105359346Y-11216223D01*
X105384983Y-11184983D01*
X105416223Y-11159346D01*
X105451862Y-11140296D01*
X105490532Y-11128565D01*
X105536888Y-11124000D01*
X106613112Y-11124000D01*
X106659468Y-11128565D01*
G37*
G36*
X104351000Y-11901000D02*
G01*
X103799000Y-11901000D01*
X103799000Y-11199000D01*
X104351000Y-11199000D01*
X104351000Y-11901000D01*
G37*
G36*
X148228Y-9601703D02*
G01*
X303100Y-9665853D01*
X442481Y-9758985D01*
X561015Y-9877519D01*
X654147Y-10016900D01*
X718297Y-10171772D01*
X751000Y-10336184D01*
X751000Y-10503816D01*
X718297Y-10668228D01*
X654147Y-10823100D01*
X561015Y-10962481D01*
X442481Y-11081015D01*
X303100Y-11174147D01*
X148228Y-11238297D01*
X-16184Y-11271000D01*
X-183816Y-11271000D01*
X-348228Y-11238297D01*
X-503100Y-11174147D01*
X-642481Y-11081015D01*
X-761015Y-10962481D01*
X-854147Y-10823100D01*
X-918297Y-10668228D01*
X-951000Y-10503816D01*
X-951000Y-10336184D01*
X-918297Y-10171772D01*
X-854147Y-10016900D01*
X-761015Y-9877519D01*
X-642481Y-9758985D01*
X-503100Y-9665853D01*
X-348228Y-9601703D01*
X-183816Y-9569000D01*
X-16184Y-9569000D01*
X148228Y-9601703D01*
G37*
G36*
X70382585Y-7698802D02*
G01*
X70532410Y-7728604D01*
X70814674Y-7845521D01*
X71068705Y-8015259D01*
X71284741Y-8231295D01*
X71454479Y-8485326D01*
X71571396Y-8767590D01*
X71631000Y-9067240D01*
X71631000Y-9372760D01*
X71571396Y-9672410D01*
X71454479Y-9954674D01*
X71284741Y-10208705D01*
X71068705Y-10424741D01*
X70814674Y-10594479D01*
X70532410Y-10711396D01*
X70382585Y-10741198D01*
X70232761Y-10771000D01*
X69927239Y-10771000D01*
X69777415Y-10741198D01*
X69627590Y-10711396D01*
X69345326Y-10594479D01*
X69091295Y-10424741D01*
X68875259Y-10208705D01*
X68705521Y-9954674D01*
X68588604Y-9672410D01*
X68529000Y-9372760D01*
X68529000Y-9067240D01*
X68588604Y-8767590D01*
X68705521Y-8485326D01*
X68875259Y-8231295D01*
X69091295Y-8015259D01*
X69345326Y-7845521D01*
X69627590Y-7728604D01*
X69777415Y-7698802D01*
X69927239Y-7669000D01*
X70232761Y-7669000D01*
X70382585Y-7698802D01*
G37*
G36*
X60222585Y-7698802D02*
G01*
X60372410Y-7728604D01*
X60654674Y-7845521D01*
X60908705Y-8015259D01*
X61124741Y-8231295D01*
X61294479Y-8485326D01*
X61411396Y-8767590D01*
X61471000Y-9067240D01*
X61471000Y-9372760D01*
X61411396Y-9672410D01*
X61294479Y-9954674D01*
X61124741Y-10208705D01*
X60908705Y-10424741D01*
X60654674Y-10594479D01*
X60372410Y-10711396D01*
X60222585Y-10741198D01*
X60072761Y-10771000D01*
X59767239Y-10771000D01*
X59617415Y-10741198D01*
X59467590Y-10711396D01*
X59185326Y-10594479D01*
X58931295Y-10424741D01*
X58715259Y-10208705D01*
X58545521Y-9954674D01*
X58428604Y-9672410D01*
X58369000Y-9372760D01*
X58369000Y-9067240D01*
X58428604Y-8767590D01*
X58545521Y-8485326D01*
X58715259Y-8231295D01*
X58931295Y-8015259D01*
X59185326Y-7845521D01*
X59467590Y-7728604D01*
X59617415Y-7698802D01*
X59767239Y-7669000D01*
X60072761Y-7669000D01*
X60222585Y-7698802D01*
G37*
G36*
X106164499Y-9578445D02*
G01*
X106201995Y-9589820D01*
X106236554Y-9608292D01*
X106266847Y-9633153D01*
X106291708Y-9663446D01*
X106310180Y-9698005D01*
X106321555Y-9735501D01*
X106326000Y-9780638D01*
X106326000Y-10419362D01*
X106321555Y-10464499D01*
X106310180Y-10501995D01*
X106291708Y-10536554D01*
X106266847Y-10566847D01*
X106236554Y-10591708D01*
X106201995Y-10610180D01*
X106164499Y-10621555D01*
X106119362Y-10626000D01*
X105380638Y-10626000D01*
X105335501Y-10621555D01*
X105298005Y-10610180D01*
X105263446Y-10591708D01*
X105233153Y-10566847D01*
X105208292Y-10536554D01*
X105189820Y-10501995D01*
X105178445Y-10464499D01*
X105174000Y-10419362D01*
X105174000Y-9780638D01*
X105178445Y-9735501D01*
X105189820Y-9698005D01*
X105208292Y-9663446D01*
X105233153Y-9633153D01*
X105263446Y-9608292D01*
X105298005Y-9589820D01*
X105335501Y-9578445D01*
X105380638Y-9574000D01*
X106119362Y-9574000D01*
X106164499Y-9578445D01*
G37*
G36*
X104414499Y-9578445D02*
G01*
X104451995Y-9589820D01*
X104486554Y-9608292D01*
X104516847Y-9633153D01*
X104541708Y-9663446D01*
X104560180Y-9698005D01*
X104571555Y-9735501D01*
X104576000Y-9780638D01*
X104576000Y-10419362D01*
X104571555Y-10464499D01*
X104560180Y-10501995D01*
X104541708Y-10536554D01*
X104516847Y-10566847D01*
X104486554Y-10591708D01*
X104451995Y-10610180D01*
X104414499Y-10621555D01*
X104369362Y-10626000D01*
X103630638Y-10626000D01*
X103585501Y-10621555D01*
X103548005Y-10610180D01*
X103513446Y-10591708D01*
X103483153Y-10566847D01*
X103458292Y-10536554D01*
X103439820Y-10501995D01*
X103428445Y-10464499D01*
X103424000Y-10419362D01*
X103424000Y-9780638D01*
X103428445Y-9735501D01*
X103439820Y-9698005D01*
X103458292Y-9663446D01*
X103483153Y-9633153D01*
X103513446Y-9608292D01*
X103548005Y-9589820D01*
X103585501Y-9578445D01*
X103630638Y-9574000D01*
X104369362Y-9574000D01*
X104414499Y-9578445D01*
G37*
G36*
X110463680Y-6471631D02*
G01*
X110613505Y-6501433D01*
X110895769Y-6618350D01*
X111149800Y-6788088D01*
X111365836Y-7004124D01*
X111535574Y-7258155D01*
X111652491Y-7540419D01*
X111712095Y-7840069D01*
X111712095Y-8145589D01*
X111652491Y-8445239D01*
X111535574Y-8727503D01*
X111365836Y-8981534D01*
X111149800Y-9197570D01*
X110895769Y-9367308D01*
X110613505Y-9484225D01*
X110463680Y-9514027D01*
X110313856Y-9543829D01*
X110008334Y-9543829D01*
X109858510Y-9514027D01*
X109708685Y-9484225D01*
X109426421Y-9367308D01*
X109172390Y-9197570D01*
X108956354Y-8981534D01*
X108786616Y-8727503D01*
X108669699Y-8445239D01*
X108610095Y-8145589D01*
X108610095Y-7840069D01*
X108669699Y-7540419D01*
X108786616Y-7258155D01*
X108956354Y-7004124D01*
X109172390Y-6788088D01*
X109426421Y-6618350D01*
X109708685Y-6501433D01*
X109858510Y-6471631D01*
X110008334Y-6441829D01*
X110313856Y-6441829D01*
X110463680Y-6471631D01*
G37*
G36*
X20141490Y-6471631D02*
G01*
X20291315Y-6501433D01*
X20573579Y-6618350D01*
X20827610Y-6788088D01*
X21043646Y-7004124D01*
X21213384Y-7258155D01*
X21330301Y-7540419D01*
X21389905Y-7840069D01*
X21389905Y-8145589D01*
X21330301Y-8445239D01*
X21213384Y-8727503D01*
X21043646Y-8981534D01*
X20827610Y-9197570D01*
X20573579Y-9367308D01*
X20291315Y-9484225D01*
X20141490Y-9514027D01*
X19991666Y-9543829D01*
X19686144Y-9543829D01*
X19536320Y-9514027D01*
X19386495Y-9484225D01*
X19104231Y-9367308D01*
X18850200Y-9197570D01*
X18634164Y-8981534D01*
X18464426Y-8727503D01*
X18347509Y-8445239D01*
X18287905Y-8145589D01*
X18287905Y-7840069D01*
X18347509Y-7540419D01*
X18464426Y-7258155D01*
X18634164Y-7004124D01*
X18850200Y-6788088D01*
X19104231Y-6618350D01*
X19386495Y-6501433D01*
X19536320Y-6471631D01*
X19686144Y-6441829D01*
X19991666Y-6441829D01*
X20141490Y-6471631D01*
G37*
G36*
X120609756Y-5939897D02*
G01*
X120759581Y-5969699D01*
X121041845Y-6086616D01*
X121295876Y-6256354D01*
X121511912Y-6472390D01*
X121681650Y-6726421D01*
X121798567Y-7008685D01*
X121858171Y-7308335D01*
X121858171Y-7613855D01*
X121798567Y-7913505D01*
X121681650Y-8195769D01*
X121511912Y-8449800D01*
X121295876Y-8665836D01*
X121041845Y-8835574D01*
X120759581Y-8952491D01*
X120613577Y-8981533D01*
X120459932Y-9012095D01*
X120154410Y-9012095D01*
X120000765Y-8981533D01*
X119854761Y-8952491D01*
X119572497Y-8835574D01*
X119318466Y-8665836D01*
X119102430Y-8449800D01*
X118932692Y-8195769D01*
X118815775Y-7913505D01*
X118756171Y-7613855D01*
X118756171Y-7308335D01*
X118815775Y-7008685D01*
X118932692Y-6726421D01*
X119102430Y-6472390D01*
X119318466Y-6256354D01*
X119572497Y-6086616D01*
X119854761Y-5969699D01*
X120004586Y-5939897D01*
X120154410Y-5910095D01*
X120459932Y-5910095D01*
X120609756Y-5939897D01*
G37*
G36*
X9995414Y-5939897D02*
G01*
X10145239Y-5969699D01*
X10427503Y-6086616D01*
X10681534Y-6256354D01*
X10897570Y-6472390D01*
X11067308Y-6726421D01*
X11184225Y-7008685D01*
X11243829Y-7308335D01*
X11243829Y-7613855D01*
X11184225Y-7913505D01*
X11067308Y-8195769D01*
X10897570Y-8449800D01*
X10681534Y-8665836D01*
X10427503Y-8835574D01*
X10145239Y-8952491D01*
X9999235Y-8981533D01*
X9845590Y-9012095D01*
X9540068Y-9012095D01*
X9386423Y-8981533D01*
X9240419Y-8952491D01*
X8958155Y-8835574D01*
X8704124Y-8665836D01*
X8488088Y-8449800D01*
X8318350Y-8195769D01*
X8201433Y-7913505D01*
X8141829Y-7613855D01*
X8141829Y-7308335D01*
X8201433Y-7008685D01*
X8318350Y-6726421D01*
X8488088Y-6472390D01*
X8704124Y-6256354D01*
X8958155Y-6086616D01*
X9240419Y-5969699D01*
X9390244Y-5939897D01*
X9540068Y-5910095D01*
X9845590Y-5910095D01*
X9995414Y-5939897D01*
G37*
G36*
X126907142Y-7148242D02*
G01*
X127055101Y-7209529D01*
X127188255Y-7298499D01*
X127301501Y-7411745D01*
X127390471Y-7544899D01*
X127451758Y-7692858D01*
X127483000Y-7849925D01*
X127483000Y-8010075D01*
X127451758Y-8167142D01*
X127390471Y-8315101D01*
X127301501Y-8448255D01*
X127188255Y-8561501D01*
X127055101Y-8650471D01*
X126907142Y-8711758D01*
X126750075Y-8743000D01*
X126589925Y-8743000D01*
X126432858Y-8711758D01*
X126284899Y-8650471D01*
X126151745Y-8561501D01*
X126038499Y-8448255D01*
X125949529Y-8315101D01*
X125888242Y-8167142D01*
X125857000Y-8010075D01*
X125857000Y-7849925D01*
X125888242Y-7692858D01*
X125949529Y-7544899D01*
X126038499Y-7411745D01*
X126151745Y-7298499D01*
X126284899Y-7209529D01*
X126432858Y-7148242D01*
X126589925Y-7117000D01*
X126750075Y-7117000D01*
X126907142Y-7148242D01*
G37*
G36*
X126907142Y-4608242D02*
G01*
X127055101Y-4669529D01*
X127188255Y-4758499D01*
X127301501Y-4871745D01*
X127390471Y-5004899D01*
X127451758Y-5152858D01*
X127483000Y-5309925D01*
X127483000Y-5470075D01*
X127451758Y-5627142D01*
X127390471Y-5775101D01*
X127301501Y-5908255D01*
X127188255Y-6021501D01*
X127055101Y-6110471D01*
X126907142Y-6171758D01*
X126750075Y-6203000D01*
X126589925Y-6203000D01*
X126432858Y-6171758D01*
X126284899Y-6110471D01*
X126151745Y-6021501D01*
X126038499Y-5908255D01*
X125949529Y-5775101D01*
X125888242Y-5627142D01*
X125857000Y-5470075D01*
X125857000Y-5309925D01*
X125888242Y-5152858D01*
X125949529Y-5004899D01*
X126038499Y-4871745D01*
X126151745Y-4758499D01*
X126284899Y-4669529D01*
X126432858Y-4608242D01*
X126589925Y-4577000D01*
X126750075Y-4577000D01*
X126907142Y-4608242D01*
G37*
G36*
X-921746Y-1487818D02*
G01*
X-548489Y-1642426D01*
X-548487Y-1642427D01*
X-220929Y-1861295D01*
X-212564Y-1866884D01*
X73116Y-2152564D01*
X297574Y-2488489D01*
X452182Y-2861746D01*
X531000Y-3257993D01*
X531000Y-3662007D01*
X452182Y-4058254D01*
X383329Y-4224479D01*
X297573Y-4431513D01*
X73116Y-4767436D01*
X-212564Y-5053116D01*
X-548487Y-5277573D01*
X-548488Y-5277574D01*
X-548489Y-5277574D01*
X-921746Y-5432182D01*
X-1317993Y-5511000D01*
X-1722007Y-5511000D01*
X-2118254Y-5432182D01*
X-2491511Y-5277574D01*
X-2491512Y-5277574D01*
X-2491513Y-5277573D01*
X-2827436Y-5053116D01*
X-3113116Y-4767436D01*
X-3337573Y-4431513D01*
X-3423329Y-4224479D01*
X-3492182Y-4058254D01*
X-3571000Y-3662007D01*
X-3571000Y-3257993D01*
X-3492182Y-2861746D01*
X-3337574Y-2488489D01*
X-3113116Y-2152564D01*
X-2827436Y-1866884D01*
X-2819071Y-1861295D01*
X-2491513Y-1642427D01*
X-2491511Y-1642426D01*
X-2118254Y-1487818D01*
X-1722007Y-1409000D01*
X-1317993Y-1409000D01*
X-921746Y-1487818D01*
G37*
G36*
X132052585Y-1328802D02*
G01*
X132202410Y-1358604D01*
X132484674Y-1475521D01*
X132738705Y-1645259D01*
X132954741Y-1861295D01*
X133124479Y-2115326D01*
X133241396Y-2397590D01*
X133301000Y-2697240D01*
X133301000Y-3002760D01*
X133241396Y-3302410D01*
X133124479Y-3584674D01*
X132954741Y-3838705D01*
X132738705Y-4054741D01*
X132484674Y-4224479D01*
X132202410Y-4341396D01*
X132052585Y-4371198D01*
X131902761Y-4401000D01*
X131597239Y-4401000D01*
X131447415Y-4371198D01*
X131297590Y-4341396D01*
X131015326Y-4224479D01*
X130761295Y-4054741D01*
X130545259Y-3838705D01*
X130375521Y-3584674D01*
X130258604Y-3302410D01*
X130199000Y-3002760D01*
X130199000Y-2697240D01*
X130258604Y-2397590D01*
X130375521Y-2115326D01*
X130545259Y-1861295D01*
X130761295Y-1645259D01*
X131015326Y-1475521D01*
X131297590Y-1358604D01*
X131447415Y-1328802D01*
X131597239Y-1299000D01*
X131902761Y-1299000D01*
X132052585Y-1328802D01*
G37*
M02*
