G04 #@! TF.GenerationSoftware,KiCad,Pcbnew,(5.1.5)-3*
G04 #@! TF.CreationDate,2021-03-25T21:43:08+01:00*
G04 #@! TF.ProjectId,tiepieLCR,74696570-6965-44c4-9352-2e6b69636164,rev?*
G04 #@! TF.SameCoordinates,Original*
G04 #@! TF.FileFunction,Legend,Top*
G04 #@! TF.FilePolarity,Positive*
%FSLAX46Y46*%
G04 Gerber Fmt 4.6, Leading zero omitted, Abs format (unit mm)*
G04 Created by KiCad (PCBNEW (5.1.5)-3) date 2021-03-25 21:43:08*
%MOMM*%
%LPD*%
G04 APERTURE LIST*
%ADD10C,0.300000*%
%ADD11C,0.150000*%
%ADD12C,0.120000*%
G04 APERTURE END LIST*
D10*
X74103571Y-46007142D02*
X75246428Y-46007142D01*
X75889285Y-45221428D02*
X75960714Y-45150000D01*
X76103571Y-45078571D01*
X76460714Y-45078571D01*
X76603571Y-45150000D01*
X76675000Y-45221428D01*
X76746428Y-45364285D01*
X76746428Y-45507142D01*
X76675000Y-45721428D01*
X75817857Y-46578571D01*
X76746428Y-46578571D01*
X77246428Y-45578571D02*
X77603571Y-46578571D01*
X77960714Y-45578571D01*
X79246428Y-45078571D02*
X78532142Y-45078571D01*
X78460714Y-45792857D01*
X78532142Y-45721428D01*
X78675000Y-45650000D01*
X79032142Y-45650000D01*
X79175000Y-45721428D01*
X79246428Y-45792857D01*
X79317857Y-45935714D01*
X79317857Y-46292857D01*
X79246428Y-46435714D01*
X79175000Y-46507142D01*
X79032142Y-46578571D01*
X78675000Y-46578571D01*
X78532142Y-46507142D01*
X78460714Y-46435714D01*
X50403571Y-46307142D02*
X51546428Y-46307142D01*
X50975000Y-46878571D02*
X50975000Y-45735714D01*
X52189285Y-45521428D02*
X52260714Y-45450000D01*
X52403571Y-45378571D01*
X52760714Y-45378571D01*
X52903571Y-45450000D01*
X52975000Y-45521428D01*
X53046428Y-45664285D01*
X53046428Y-45807142D01*
X52975000Y-46021428D01*
X52117857Y-46878571D01*
X53046428Y-46878571D01*
X53546428Y-45878571D02*
X53903571Y-46878571D01*
X54260714Y-45878571D01*
X55546428Y-45378571D02*
X54832142Y-45378571D01*
X54760714Y-46092857D01*
X54832142Y-46021428D01*
X54975000Y-45950000D01*
X55332142Y-45950000D01*
X55475000Y-46021428D01*
X55546428Y-46092857D01*
X55617857Y-46235714D01*
X55617857Y-46592857D01*
X55546428Y-46735714D01*
X55475000Y-46807142D01*
X55332142Y-46878571D01*
X54975000Y-46878571D01*
X54832142Y-46807142D01*
X54760714Y-46735714D01*
D11*
X101275000Y-14485714D02*
X101513095Y-15152380D01*
X101751190Y-14485714D01*
X102560714Y-15104761D02*
X102465476Y-15152380D01*
X102275000Y-15152380D01*
X102179761Y-15104761D01*
X102132142Y-15057142D01*
X102084523Y-14961904D01*
X102084523Y-14676190D01*
X102132142Y-14580952D01*
X102179761Y-14533333D01*
X102275000Y-14485714D01*
X102465476Y-14485714D01*
X102560714Y-14533333D01*
X103417857Y-15104761D02*
X103322619Y-15152380D01*
X103132142Y-15152380D01*
X103036904Y-15104761D01*
X102989285Y-15057142D01*
X102941666Y-14961904D01*
X102941666Y-14676190D01*
X102989285Y-14580952D01*
X103036904Y-14533333D01*
X103132142Y-14485714D01*
X103322619Y-14485714D01*
X103417857Y-14533333D01*
X103798809Y-15104761D02*
X103894047Y-15152380D01*
X104084523Y-15152380D01*
X104179761Y-15104761D01*
X104227380Y-15009523D01*
X104227380Y-14961904D01*
X104179761Y-14866666D01*
X104084523Y-14819047D01*
X103941666Y-14819047D01*
X103846428Y-14771428D01*
X103798809Y-14676190D01*
X103798809Y-14628571D01*
X103846428Y-14533333D01*
X103941666Y-14485714D01*
X104084523Y-14485714D01*
X104179761Y-14533333D01*
X57346428Y-16885714D02*
X57346428Y-17695238D01*
X57298809Y-17790476D01*
X57251190Y-17838095D01*
X57155952Y-17885714D01*
X57013095Y-17885714D01*
X56917857Y-17838095D01*
X57346428Y-17504761D02*
X57251190Y-17552380D01*
X57060714Y-17552380D01*
X56965476Y-17504761D01*
X56917857Y-17457142D01*
X56870238Y-17361904D01*
X56870238Y-17076190D01*
X56917857Y-16980952D01*
X56965476Y-16933333D01*
X57060714Y-16885714D01*
X57251190Y-16885714D01*
X57346428Y-16933333D01*
X58251190Y-17552380D02*
X58251190Y-17028571D01*
X58203571Y-16933333D01*
X58108333Y-16885714D01*
X57917857Y-16885714D01*
X57822619Y-16933333D01*
X58251190Y-17504761D02*
X58155952Y-17552380D01*
X57917857Y-17552380D01*
X57822619Y-17504761D01*
X57775000Y-17409523D01*
X57775000Y-17314285D01*
X57822619Y-17219047D01*
X57917857Y-17171428D01*
X58155952Y-17171428D01*
X58251190Y-17123809D01*
X58727380Y-17552380D02*
X58727380Y-16885714D01*
X58727380Y-16552380D02*
X58679761Y-16600000D01*
X58727380Y-16647619D01*
X58775000Y-16600000D01*
X58727380Y-16552380D01*
X58727380Y-16647619D01*
X59203571Y-16885714D02*
X59203571Y-17552380D01*
X59203571Y-16980952D02*
X59251190Y-16933333D01*
X59346428Y-16885714D01*
X59489285Y-16885714D01*
X59584523Y-16933333D01*
X59632142Y-17028571D01*
X59632142Y-17552380D01*
X2316666Y-49427380D02*
X2316666Y-48760714D01*
X2316666Y-48951190D02*
X2364285Y-48855952D01*
X2411904Y-48808333D01*
X2507142Y-48760714D01*
X2602380Y-48760714D01*
X3364285Y-49427380D02*
X3364285Y-48903571D01*
X3316666Y-48808333D01*
X3221428Y-48760714D01*
X3030952Y-48760714D01*
X2935714Y-48808333D01*
X3364285Y-49379761D02*
X3269047Y-49427380D01*
X3030952Y-49427380D01*
X2935714Y-49379761D01*
X2888095Y-49284523D01*
X2888095Y-49189285D01*
X2935714Y-49094047D01*
X3030952Y-49046428D01*
X3269047Y-49046428D01*
X3364285Y-48998809D01*
X3840476Y-48760714D02*
X3840476Y-49427380D01*
X3840476Y-48855952D02*
X3888095Y-48808333D01*
X3983333Y-48760714D01*
X4126190Y-48760714D01*
X4221428Y-48808333D01*
X4269047Y-48903571D01*
X4269047Y-49427380D01*
X5173809Y-48760714D02*
X5173809Y-49570238D01*
X5126190Y-49665476D01*
X5078571Y-49713095D01*
X4983333Y-49760714D01*
X4840476Y-49760714D01*
X4745238Y-49713095D01*
X5173809Y-49379761D02*
X5078571Y-49427380D01*
X4888095Y-49427380D01*
X4792857Y-49379761D01*
X4745238Y-49332142D01*
X4697619Y-49236904D01*
X4697619Y-48951190D01*
X4745238Y-48855952D01*
X4792857Y-48808333D01*
X4888095Y-48760714D01*
X5078571Y-48760714D01*
X5173809Y-48808333D01*
X6030952Y-49379761D02*
X5935714Y-49427380D01*
X5745238Y-49427380D01*
X5650000Y-49379761D01*
X5602380Y-49284523D01*
X5602380Y-48903571D01*
X5650000Y-48808333D01*
X5745238Y-48760714D01*
X5935714Y-48760714D01*
X6030952Y-48808333D01*
X6078571Y-48903571D01*
X6078571Y-48998809D01*
X5602380Y-49094047D01*
X7030952Y-49427380D02*
X6459523Y-49427380D01*
X6745238Y-49427380D02*
X6745238Y-48427380D01*
X6650000Y-48570238D01*
X6554761Y-48665476D01*
X6459523Y-48713095D01*
X26266666Y-18602380D02*
X26266666Y-17935714D01*
X26266666Y-18126190D02*
X26314285Y-18030952D01*
X26361904Y-17983333D01*
X26457142Y-17935714D01*
X26552380Y-17935714D01*
X27314285Y-18602380D02*
X27314285Y-18078571D01*
X27266666Y-17983333D01*
X27171428Y-17935714D01*
X26980952Y-17935714D01*
X26885714Y-17983333D01*
X27314285Y-18554761D02*
X27219047Y-18602380D01*
X26980952Y-18602380D01*
X26885714Y-18554761D01*
X26838095Y-18459523D01*
X26838095Y-18364285D01*
X26885714Y-18269047D01*
X26980952Y-18221428D01*
X27219047Y-18221428D01*
X27314285Y-18173809D01*
X27790476Y-17935714D02*
X27790476Y-18602380D01*
X27790476Y-18030952D02*
X27838095Y-17983333D01*
X27933333Y-17935714D01*
X28076190Y-17935714D01*
X28171428Y-17983333D01*
X28219047Y-18078571D01*
X28219047Y-18602380D01*
X29123809Y-17935714D02*
X29123809Y-18745238D01*
X29076190Y-18840476D01*
X29028571Y-18888095D01*
X28933333Y-18935714D01*
X28790476Y-18935714D01*
X28695238Y-18888095D01*
X29123809Y-18554761D02*
X29028571Y-18602380D01*
X28838095Y-18602380D01*
X28742857Y-18554761D01*
X28695238Y-18507142D01*
X28647619Y-18411904D01*
X28647619Y-18126190D01*
X28695238Y-18030952D01*
X28742857Y-17983333D01*
X28838095Y-17935714D01*
X29028571Y-17935714D01*
X29123809Y-17983333D01*
X29980952Y-18554761D02*
X29885714Y-18602380D01*
X29695238Y-18602380D01*
X29600000Y-18554761D01*
X29552380Y-18459523D01*
X29552380Y-18078571D01*
X29600000Y-17983333D01*
X29695238Y-17935714D01*
X29885714Y-17935714D01*
X29980952Y-17983333D01*
X30028571Y-18078571D01*
X30028571Y-18173809D01*
X29552380Y-18269047D01*
X30885714Y-17935714D02*
X30885714Y-18602380D01*
X30647619Y-17554761D02*
X30409523Y-18269047D01*
X31028571Y-18269047D01*
X16741666Y-18652380D02*
X16741666Y-17985714D01*
X16741666Y-18176190D02*
X16789285Y-18080952D01*
X16836904Y-18033333D01*
X16932142Y-17985714D01*
X17027380Y-17985714D01*
X17789285Y-18652380D02*
X17789285Y-18128571D01*
X17741666Y-18033333D01*
X17646428Y-17985714D01*
X17455952Y-17985714D01*
X17360714Y-18033333D01*
X17789285Y-18604761D02*
X17694047Y-18652380D01*
X17455952Y-18652380D01*
X17360714Y-18604761D01*
X17313095Y-18509523D01*
X17313095Y-18414285D01*
X17360714Y-18319047D01*
X17455952Y-18271428D01*
X17694047Y-18271428D01*
X17789285Y-18223809D01*
X18265476Y-17985714D02*
X18265476Y-18652380D01*
X18265476Y-18080952D02*
X18313095Y-18033333D01*
X18408333Y-17985714D01*
X18551190Y-17985714D01*
X18646428Y-18033333D01*
X18694047Y-18128571D01*
X18694047Y-18652380D01*
X19598809Y-17985714D02*
X19598809Y-18795238D01*
X19551190Y-18890476D01*
X19503571Y-18938095D01*
X19408333Y-18985714D01*
X19265476Y-18985714D01*
X19170238Y-18938095D01*
X19598809Y-18604761D02*
X19503571Y-18652380D01*
X19313095Y-18652380D01*
X19217857Y-18604761D01*
X19170238Y-18557142D01*
X19122619Y-18461904D01*
X19122619Y-18176190D01*
X19170238Y-18080952D01*
X19217857Y-18033333D01*
X19313095Y-17985714D01*
X19503571Y-17985714D01*
X19598809Y-18033333D01*
X20455952Y-18604761D02*
X20360714Y-18652380D01*
X20170238Y-18652380D01*
X20075000Y-18604761D01*
X20027380Y-18509523D01*
X20027380Y-18128571D01*
X20075000Y-18033333D01*
X20170238Y-17985714D01*
X20360714Y-17985714D01*
X20455952Y-18033333D01*
X20503571Y-18128571D01*
X20503571Y-18223809D01*
X20027380Y-18319047D01*
X20836904Y-17652380D02*
X21455952Y-17652380D01*
X21122619Y-18033333D01*
X21265476Y-18033333D01*
X21360714Y-18080952D01*
X21408333Y-18128571D01*
X21455952Y-18223809D01*
X21455952Y-18461904D01*
X21408333Y-18557142D01*
X21360714Y-18604761D01*
X21265476Y-18652380D01*
X20979761Y-18652380D01*
X20884523Y-18604761D01*
X20836904Y-18557142D01*
X7316666Y-18752380D02*
X7316666Y-18085714D01*
X7316666Y-18276190D02*
X7364285Y-18180952D01*
X7411904Y-18133333D01*
X7507142Y-18085714D01*
X7602380Y-18085714D01*
X8364285Y-18752380D02*
X8364285Y-18228571D01*
X8316666Y-18133333D01*
X8221428Y-18085714D01*
X8030952Y-18085714D01*
X7935714Y-18133333D01*
X8364285Y-18704761D02*
X8269047Y-18752380D01*
X8030952Y-18752380D01*
X7935714Y-18704761D01*
X7888095Y-18609523D01*
X7888095Y-18514285D01*
X7935714Y-18419047D01*
X8030952Y-18371428D01*
X8269047Y-18371428D01*
X8364285Y-18323809D01*
X8840476Y-18085714D02*
X8840476Y-18752380D01*
X8840476Y-18180952D02*
X8888095Y-18133333D01*
X8983333Y-18085714D01*
X9126190Y-18085714D01*
X9221428Y-18133333D01*
X9269047Y-18228571D01*
X9269047Y-18752380D01*
X10173809Y-18085714D02*
X10173809Y-18895238D01*
X10126190Y-18990476D01*
X10078571Y-19038095D01*
X9983333Y-19085714D01*
X9840476Y-19085714D01*
X9745238Y-19038095D01*
X10173809Y-18704761D02*
X10078571Y-18752380D01*
X9888095Y-18752380D01*
X9792857Y-18704761D01*
X9745238Y-18657142D01*
X9697619Y-18561904D01*
X9697619Y-18276190D01*
X9745238Y-18180952D01*
X9792857Y-18133333D01*
X9888095Y-18085714D01*
X10078571Y-18085714D01*
X10173809Y-18133333D01*
X11030952Y-18704761D02*
X10935714Y-18752380D01*
X10745238Y-18752380D01*
X10650000Y-18704761D01*
X10602380Y-18609523D01*
X10602380Y-18228571D01*
X10650000Y-18133333D01*
X10745238Y-18085714D01*
X10935714Y-18085714D01*
X11030952Y-18133333D01*
X11078571Y-18228571D01*
X11078571Y-18323809D01*
X10602380Y-18419047D01*
X11459523Y-17847619D02*
X11507142Y-17800000D01*
X11602380Y-17752380D01*
X11840476Y-17752380D01*
X11935714Y-17800000D01*
X11983333Y-17847619D01*
X12030952Y-17942857D01*
X12030952Y-18038095D01*
X11983333Y-18180952D01*
X11411904Y-18752380D01*
X12030952Y-18752380D01*
D10*
X78014285Y-5855952D02*
X78014285Y-3355952D01*
X78847619Y-5141666D01*
X79680952Y-3355952D01*
X79680952Y-5855952D01*
X80752380Y-5141666D02*
X81942857Y-5141666D01*
X80514285Y-5855952D02*
X81347619Y-3355952D01*
X82180952Y-5855952D01*
X82776190Y-3355952D02*
X84442857Y-5855952D01*
X84442857Y-3355952D02*
X82776190Y-5855952D01*
X85395238Y-5617857D02*
X85514285Y-5736904D01*
X85395238Y-5855952D01*
X85276190Y-5736904D01*
X85395238Y-5617857D01*
X85395238Y-5855952D01*
X88490476Y-4427380D02*
X90395238Y-4427380D01*
X89442857Y-5379761D02*
X89442857Y-3475000D01*
X90395238Y-5855952D02*
X88490476Y-5855952D01*
X91466666Y-3594047D02*
X91585714Y-3475000D01*
X91823809Y-3355952D01*
X92419047Y-3355952D01*
X92657142Y-3475000D01*
X92776190Y-3594047D01*
X92895238Y-3832142D01*
X92895238Y-4070238D01*
X92776190Y-4427380D01*
X91347619Y-5855952D01*
X92895238Y-5855952D01*
X93966666Y-5617857D02*
X94085714Y-5736904D01*
X93966666Y-5855952D01*
X93847619Y-5736904D01*
X93966666Y-5617857D01*
X93966666Y-5855952D01*
X96347619Y-3355952D02*
X95157142Y-3355952D01*
X95038095Y-4546428D01*
X95157142Y-4427380D01*
X95395238Y-4308333D01*
X95990476Y-4308333D01*
X96228571Y-4427380D01*
X96347619Y-4546428D01*
X96466666Y-4784523D01*
X96466666Y-5379761D01*
X96347619Y-5617857D01*
X96228571Y-5736904D01*
X95990476Y-5855952D01*
X95395238Y-5855952D01*
X95157142Y-5736904D01*
X95038095Y-5617857D01*
X97180952Y-3355952D02*
X98014285Y-5855952D01*
X98847619Y-3355952D01*
X101585714Y-5617857D02*
X101704761Y-5736904D01*
X101585714Y-5855952D01*
X101466666Y-5736904D01*
X101585714Y-5617857D01*
X101585714Y-5855952D01*
X101585714Y-4903571D02*
X101466666Y-3475000D01*
X101585714Y-3355952D01*
X101704761Y-3475000D01*
X101585714Y-4903571D01*
X101585714Y-3355952D01*
X78430952Y-9905952D02*
X78192857Y-9786904D01*
X78073809Y-9667857D01*
X77954761Y-9429761D01*
X77954761Y-8715476D01*
X78073809Y-8477380D01*
X78192857Y-8358333D01*
X78430952Y-8239285D01*
X78788095Y-8239285D01*
X79026190Y-8358333D01*
X79145238Y-8477380D01*
X79264285Y-8715476D01*
X79264285Y-9429761D01*
X79145238Y-9667857D01*
X79026190Y-9786904D01*
X78788095Y-9905952D01*
X78430952Y-9905952D01*
X80335714Y-8239285D02*
X80335714Y-9905952D01*
X80335714Y-8477380D02*
X80454761Y-8358333D01*
X80692857Y-8239285D01*
X81050000Y-8239285D01*
X81288095Y-8358333D01*
X81407142Y-8596428D01*
X81407142Y-9905952D01*
X85573809Y-9905952D02*
X85573809Y-8596428D01*
X85454761Y-8358333D01*
X85216666Y-8239285D01*
X84740476Y-8239285D01*
X84502380Y-8358333D01*
X85573809Y-9786904D02*
X85335714Y-9905952D01*
X84740476Y-9905952D01*
X84502380Y-9786904D01*
X84383333Y-9548809D01*
X84383333Y-9310714D01*
X84502380Y-9072619D01*
X84740476Y-8953571D01*
X85335714Y-8953571D01*
X85573809Y-8834523D01*
X87121428Y-9905952D02*
X86883333Y-9786904D01*
X86764285Y-9548809D01*
X86764285Y-7405952D01*
X88430952Y-9905952D02*
X88192857Y-9786904D01*
X88073809Y-9548809D01*
X88073809Y-7405952D01*
X91288095Y-9905952D02*
X91288095Y-8239285D01*
X91288095Y-7405952D02*
X91169047Y-7525000D01*
X91288095Y-7644047D01*
X91407142Y-7525000D01*
X91288095Y-7405952D01*
X91288095Y-7644047D01*
X92478571Y-8239285D02*
X92478571Y-9905952D01*
X92478571Y-8477380D02*
X92597619Y-8358333D01*
X92835714Y-8239285D01*
X93192857Y-8239285D01*
X93430952Y-8358333D01*
X93550000Y-8596428D01*
X93550000Y-9905952D01*
X94740476Y-8239285D02*
X94740476Y-10739285D01*
X94740476Y-8358333D02*
X94978571Y-8239285D01*
X95454761Y-8239285D01*
X95692857Y-8358333D01*
X95811904Y-8477380D01*
X95930952Y-8715476D01*
X95930952Y-9429761D01*
X95811904Y-9667857D01*
X95692857Y-9786904D01*
X95454761Y-9905952D01*
X94978571Y-9905952D01*
X94740476Y-9786904D01*
X98073809Y-8239285D02*
X98073809Y-9905952D01*
X97002380Y-8239285D02*
X97002380Y-9548809D01*
X97121428Y-9786904D01*
X97359523Y-9905952D01*
X97716666Y-9905952D01*
X97954761Y-9786904D01*
X98073809Y-9667857D01*
X98907142Y-8239285D02*
X99859523Y-8239285D01*
X99264285Y-7405952D02*
X99264285Y-9548809D01*
X99383333Y-9786904D01*
X99621428Y-9905952D01*
X99859523Y-9905952D01*
X100573809Y-9786904D02*
X100811904Y-9905952D01*
X101288095Y-9905952D01*
X101526190Y-9786904D01*
X101645238Y-9548809D01*
X101645238Y-9429761D01*
X101526190Y-9191666D01*
X101288095Y-9072619D01*
X100930952Y-9072619D01*
X100692857Y-8953571D01*
X100573809Y-8715476D01*
X100573809Y-8596428D01*
X100692857Y-8358333D01*
X100930952Y-8239285D01*
X101288095Y-8239285D01*
X101526190Y-8358333D01*
X6746428Y-11900000D02*
X6746428Y-12757142D01*
X5246428Y-12328571D02*
X6746428Y-12328571D01*
X5246428Y-13471428D02*
X5317857Y-13328571D01*
X5389285Y-13257142D01*
X5532142Y-13185714D01*
X5960714Y-13185714D01*
X6103571Y-13257142D01*
X6175000Y-13328571D01*
X6246428Y-13471428D01*
X6246428Y-13685714D01*
X6175000Y-13828571D01*
X6103571Y-13900000D01*
X5960714Y-13971428D01*
X5532142Y-13971428D01*
X5389285Y-13900000D01*
X5317857Y-13828571D01*
X5246428Y-13685714D01*
X5246428Y-13471428D01*
X6746428Y-15542857D02*
X6746428Y-16400000D01*
X5246428Y-15971428D02*
X6746428Y-15971428D01*
X5246428Y-16900000D02*
X6246428Y-16900000D01*
X6746428Y-16900000D02*
X6675000Y-16828571D01*
X6603571Y-16900000D01*
X6675000Y-16971428D01*
X6746428Y-16900000D01*
X6603571Y-16900000D01*
X5317857Y-18185714D02*
X5246428Y-18042857D01*
X5246428Y-17757142D01*
X5317857Y-17614285D01*
X5460714Y-17542857D01*
X6032142Y-17542857D01*
X6175000Y-17614285D01*
X6246428Y-17757142D01*
X6246428Y-18042857D01*
X6175000Y-18185714D01*
X6032142Y-18257142D01*
X5889285Y-18257142D01*
X5746428Y-17542857D01*
X5246428Y-18900000D02*
X6746428Y-18900000D01*
X6746428Y-19471428D01*
X6675000Y-19614285D01*
X6603571Y-19685714D01*
X6460714Y-19757142D01*
X6246428Y-19757142D01*
X6103571Y-19685714D01*
X6032142Y-19614285D01*
X5960714Y-19471428D01*
X5960714Y-18900000D01*
X5246428Y-20400000D02*
X6246428Y-20400000D01*
X6746428Y-20400000D02*
X6674999Y-20328571D01*
X6603571Y-20400000D01*
X6674999Y-20471428D01*
X6746428Y-20400000D01*
X6603571Y-20400000D01*
X5317857Y-21685714D02*
X5246428Y-21542857D01*
X5246428Y-21257142D01*
X5317857Y-21114285D01*
X5460714Y-21042857D01*
X6032142Y-21042857D01*
X6174999Y-21114285D01*
X6246428Y-21257142D01*
X6246428Y-21542857D01*
X6174999Y-21685714D01*
X6032142Y-21757142D01*
X5889285Y-21757142D01*
X5746428Y-21042857D01*
X3482142Y-5685714D02*
X3482142Y-6185714D01*
X2696428Y-6399999D02*
X2696428Y-5685714D01*
X4196428Y-5685714D01*
X4196428Y-6399999D01*
X2696428Y-6899999D02*
X3696428Y-7685714D01*
X3696428Y-6899999D02*
X2696428Y-7685714D01*
X3696428Y-8042857D02*
X3696428Y-8614285D01*
X4196428Y-8257142D02*
X2910714Y-8257142D01*
X2767857Y-8328571D01*
X2696428Y-8471428D01*
X2696428Y-8614285D01*
X2767857Y-9685714D02*
X2696428Y-9542857D01*
X2696428Y-9257142D01*
X2767857Y-9114285D01*
X2910714Y-9042857D01*
X3482142Y-9042857D01*
X3625000Y-9114285D01*
X3696428Y-9257142D01*
X3696428Y-9542857D01*
X3625000Y-9685714D01*
X3482142Y-9757142D01*
X3339285Y-9757142D01*
X3196428Y-9042857D01*
X3696428Y-10399999D02*
X2696428Y-10399999D01*
X3553571Y-10399999D02*
X3625000Y-10471428D01*
X3696428Y-10614285D01*
X3696428Y-10828571D01*
X3625000Y-10971428D01*
X3482142Y-11042857D01*
X2696428Y-11042857D01*
X2767857Y-11685714D02*
X2696428Y-11828571D01*
X2696428Y-12114285D01*
X2767857Y-12257142D01*
X2910714Y-12328571D01*
X2982142Y-12328571D01*
X3125000Y-12257142D01*
X3196428Y-12114285D01*
X3196428Y-11899999D01*
X3267857Y-11757142D01*
X3410714Y-11685714D01*
X3482142Y-11685714D01*
X3625000Y-11757142D01*
X3696428Y-11899999D01*
X3696428Y-12114285D01*
X3625000Y-12257142D01*
X2696428Y-12971428D02*
X3696428Y-12971428D01*
X4196428Y-12971428D02*
X4125000Y-12899999D01*
X4053571Y-12971428D01*
X4125000Y-13042857D01*
X4196428Y-12971428D01*
X4053571Y-12971428D01*
X2696428Y-13899999D02*
X2767857Y-13757142D01*
X2839285Y-13685714D01*
X2982142Y-13614285D01*
X3410714Y-13614285D01*
X3553571Y-13685714D01*
X3625000Y-13757142D01*
X3696428Y-13899999D01*
X3696428Y-14114285D01*
X3625000Y-14257142D01*
X3553571Y-14328571D01*
X3410714Y-14399999D01*
X2982142Y-14399999D01*
X2839285Y-14328571D01*
X2767857Y-14257142D01*
X2696428Y-14114285D01*
X2696428Y-13899999D01*
X3696428Y-15042857D02*
X2696428Y-15042857D01*
X3553571Y-15042857D02*
X3625000Y-15114285D01*
X3696428Y-15257142D01*
X3696428Y-15471428D01*
X3625000Y-15614285D01*
X3482142Y-15685714D01*
X2696428Y-15685714D01*
X2839285Y-18399999D02*
X2767857Y-18328571D01*
X2696428Y-18114285D01*
X2696428Y-17971428D01*
X2767857Y-17757142D01*
X2910714Y-17614285D01*
X3053571Y-17542857D01*
X3339285Y-17471428D01*
X3553571Y-17471428D01*
X3839285Y-17542857D01*
X3982142Y-17614285D01*
X4125000Y-17757142D01*
X4196428Y-17971428D01*
X4196428Y-18114285D01*
X4125000Y-18328571D01*
X4053571Y-18399999D01*
X2696428Y-19257142D02*
X2767857Y-19114285D01*
X2839285Y-19042857D01*
X2982142Y-18971428D01*
X3410714Y-18971428D01*
X3553571Y-19042857D01*
X3624999Y-19114285D01*
X3696428Y-19257142D01*
X3696428Y-19471428D01*
X3624999Y-19614285D01*
X3553571Y-19685714D01*
X3410714Y-19757142D01*
X2982142Y-19757142D01*
X2839285Y-19685714D01*
X2767857Y-19614285D01*
X2696428Y-19471428D01*
X2696428Y-19257142D01*
X3696428Y-20399999D02*
X2696428Y-20399999D01*
X3553571Y-20399999D02*
X3624999Y-20471428D01*
X3696428Y-20614285D01*
X3696428Y-20828571D01*
X3624999Y-20971428D01*
X3482142Y-21042857D01*
X2696428Y-21042857D01*
X3696428Y-21757142D02*
X2696428Y-21757142D01*
X3553571Y-21757142D02*
X3624999Y-21828571D01*
X3696428Y-21971428D01*
X3696428Y-22185714D01*
X3624999Y-22328571D01*
X3482142Y-22399999D01*
X2696428Y-22399999D01*
X2767857Y-23685714D02*
X2696428Y-23542857D01*
X2696428Y-23257142D01*
X2767857Y-23114285D01*
X2910714Y-23042857D01*
X3482142Y-23042857D01*
X3624999Y-23114285D01*
X3696428Y-23257142D01*
X3696428Y-23542857D01*
X3624999Y-23685714D01*
X3482142Y-23757142D01*
X3339285Y-23757142D01*
X3196428Y-23042857D01*
X2767857Y-25042857D02*
X2696428Y-24900000D01*
X2696428Y-24614285D01*
X2767857Y-24471428D01*
X2839285Y-24400000D01*
X2982142Y-24328571D01*
X3410714Y-24328571D01*
X3553571Y-24400000D01*
X3624999Y-24471428D01*
X3696428Y-24614285D01*
X3696428Y-24900000D01*
X3624999Y-25042857D01*
X3696428Y-25471428D02*
X3696428Y-26042857D01*
X4196428Y-25685714D02*
X2910714Y-25685714D01*
X2767857Y-25757142D01*
X2696428Y-25900000D01*
X2696428Y-26042857D01*
X2696428Y-26757142D02*
X2767857Y-26614285D01*
X2839285Y-26542857D01*
X2982142Y-26471428D01*
X3410714Y-26471428D01*
X3553571Y-26542857D01*
X3624999Y-26614285D01*
X3696428Y-26757142D01*
X3696428Y-26971428D01*
X3624999Y-27114285D01*
X3553571Y-27185714D01*
X3410714Y-27257142D01*
X2982142Y-27257142D01*
X2839285Y-27185714D01*
X2767857Y-27114285D01*
X2696428Y-26971428D01*
X2696428Y-26757142D01*
X2696428Y-27900000D02*
X3696428Y-27900000D01*
X3410714Y-27900000D02*
X3553571Y-27971428D01*
X3624999Y-28042857D01*
X3696428Y-28185714D01*
X3696428Y-28328571D01*
X25992857Y-2710714D02*
X25849999Y-2639285D01*
X25564285Y-2639285D01*
X25421428Y-2710714D01*
X25278571Y-2853571D01*
X25207142Y-2996428D01*
X25207142Y-3282142D01*
X25278571Y-3425000D01*
X25421428Y-3567857D01*
X25564285Y-3639285D01*
X25849999Y-3639285D01*
X25992857Y-3567857D01*
X25707142Y-2139285D02*
X25349999Y-2210714D01*
X24992857Y-2425000D01*
X24778571Y-2782142D01*
X24707142Y-3139285D01*
X24778571Y-3496428D01*
X24992857Y-3853571D01*
X25349999Y-4067857D01*
X25707142Y-4139285D01*
X26064285Y-4067857D01*
X26421428Y-3853571D01*
X26635714Y-3496428D01*
X26707142Y-3139285D01*
X26635714Y-2782142D01*
X26421428Y-2425000D01*
X26064285Y-2210714D01*
X25707142Y-2139285D01*
X27349999Y-2353571D02*
X27349999Y-3567857D01*
X27421428Y-3710714D01*
X27492857Y-3782142D01*
X27635714Y-3853571D01*
X27921428Y-3853571D01*
X28064285Y-3782142D01*
X28135714Y-3710714D01*
X28207142Y-3567857D01*
X28207142Y-2353571D01*
X28921428Y-2853571D02*
X28921428Y-3853571D01*
X28921428Y-2996428D02*
X28992857Y-2925000D01*
X29135714Y-2853571D01*
X29349999Y-2853571D01*
X29492857Y-2925000D01*
X29564285Y-3067857D01*
X29564285Y-3853571D01*
X30278571Y-3853571D02*
X30278571Y-2853571D01*
X30278571Y-2353571D02*
X30207142Y-2425000D01*
X30278571Y-2496428D01*
X30349999Y-2425000D01*
X30278571Y-2353571D01*
X30278571Y-2496428D01*
X30849999Y-2853571D02*
X31207142Y-3853571D01*
X31564285Y-2853571D01*
X32707142Y-3782142D02*
X32564285Y-3853571D01*
X32278571Y-3853571D01*
X32135714Y-3782142D01*
X32064285Y-3639285D01*
X32064285Y-3067857D01*
X32135714Y-2925000D01*
X32278571Y-2853571D01*
X32564285Y-2853571D01*
X32707142Y-2925000D01*
X32778571Y-3067857D01*
X32778571Y-3210714D01*
X32064285Y-3353571D01*
X33421428Y-3853571D02*
X33421428Y-2853571D01*
X33421428Y-3139285D02*
X33492857Y-2996428D01*
X33564285Y-2925000D01*
X33707142Y-2853571D01*
X33850000Y-2853571D01*
X34278571Y-3782142D02*
X34421428Y-3853571D01*
X34707142Y-3853571D01*
X34850000Y-3782142D01*
X34921428Y-3639285D01*
X34921428Y-3567857D01*
X34850000Y-3425000D01*
X34707142Y-3353571D01*
X34492857Y-3353571D01*
X34350000Y-3282142D01*
X34278571Y-3139285D01*
X34278571Y-3067857D01*
X34350000Y-2925000D01*
X34492857Y-2853571D01*
X34707142Y-2853571D01*
X34850000Y-2925000D01*
X35564285Y-3853571D02*
X35564285Y-2853571D01*
X35564285Y-2353571D02*
X35492857Y-2425000D01*
X35564285Y-2496428D01*
X35635714Y-2425000D01*
X35564285Y-2353571D01*
X35564285Y-2496428D01*
X36064285Y-2853571D02*
X36635714Y-2853571D01*
X36278571Y-2353571D02*
X36278571Y-3639285D01*
X36350000Y-3782142D01*
X36492857Y-3853571D01*
X36635714Y-3853571D01*
X36992857Y-2853571D02*
X37350000Y-3853571D01*
X37707142Y-2853571D02*
X37350000Y-3853571D01*
X37207142Y-4210714D01*
X37135714Y-4282142D01*
X36992857Y-4353571D01*
X39635714Y-3853571D02*
X39492857Y-3782142D01*
X39421428Y-3710714D01*
X39349999Y-3567857D01*
X39349999Y-3139285D01*
X39421428Y-2996428D01*
X39492857Y-2925000D01*
X39635714Y-2853571D01*
X39849999Y-2853571D01*
X39992857Y-2925000D01*
X40064285Y-2996428D01*
X40135714Y-3139285D01*
X40135714Y-3567857D01*
X40064285Y-3710714D01*
X39992857Y-3782142D01*
X39849999Y-3853571D01*
X39635714Y-3853571D01*
X40564285Y-2853571D02*
X41135714Y-2853571D01*
X40778571Y-3853571D02*
X40778571Y-2567857D01*
X40849999Y-2425000D01*
X40992857Y-2353571D01*
X41135714Y-2353571D01*
X42564285Y-2353571D02*
X43421428Y-2353571D01*
X42992857Y-3853571D02*
X42992857Y-2353571D01*
X43778571Y-2853571D02*
X44064285Y-3853571D01*
X44349999Y-3139285D01*
X44635714Y-3853571D01*
X44921428Y-2853571D01*
X46064285Y-3782142D02*
X45921428Y-3853571D01*
X45635714Y-3853571D01*
X45492857Y-3782142D01*
X45421428Y-3639285D01*
X45421428Y-3067857D01*
X45492857Y-2925000D01*
X45635714Y-2853571D01*
X45921428Y-2853571D01*
X46064285Y-2925000D01*
X46135714Y-3067857D01*
X46135714Y-3210714D01*
X45421428Y-3353571D01*
X46778571Y-2853571D02*
X46778571Y-3853571D01*
X46778571Y-2996428D02*
X46849999Y-2925000D01*
X46992857Y-2853571D01*
X47207142Y-2853571D01*
X47349999Y-2925000D01*
X47421428Y-3067857D01*
X47421428Y-3853571D01*
X47921428Y-2853571D02*
X48492857Y-2853571D01*
X48135714Y-2353571D02*
X48135714Y-3639285D01*
X48207142Y-3782142D01*
X48349999Y-3853571D01*
X48492857Y-3853571D01*
X49564285Y-3782142D02*
X49421428Y-3853571D01*
X49135714Y-3853571D01*
X48992857Y-3782142D01*
X48921428Y-3639285D01*
X48921428Y-3067857D01*
X48992857Y-2925000D01*
X49135714Y-2853571D01*
X49421428Y-2853571D01*
X49564285Y-2925000D01*
X49635714Y-3067857D01*
X49635714Y-3210714D01*
X48921428Y-3353571D01*
X51350000Y-2496428D02*
X51421428Y-2425000D01*
X51564285Y-2353571D01*
X51921428Y-2353571D01*
X52064285Y-2425000D01*
X52135714Y-2496428D01*
X52207142Y-2639285D01*
X52207142Y-2782142D01*
X52135714Y-2996428D01*
X51278571Y-3853571D01*
X52207142Y-3853571D01*
X53135714Y-2353571D02*
X53278571Y-2353571D01*
X53421428Y-2425000D01*
X53492857Y-2496428D01*
X53564285Y-2639285D01*
X53635714Y-2925000D01*
X53635714Y-3282142D01*
X53564285Y-3567857D01*
X53492857Y-3710714D01*
X53421428Y-3782142D01*
X53278571Y-3853571D01*
X53135714Y-3853571D01*
X52992857Y-3782142D01*
X52921428Y-3710714D01*
X52850000Y-3567857D01*
X52778571Y-3282142D01*
X52778571Y-2925000D01*
X52850000Y-2639285D01*
X52921428Y-2496428D01*
X52992857Y-2425000D01*
X53135714Y-2353571D01*
X54207142Y-2496428D02*
X54278571Y-2425000D01*
X54421428Y-2353571D01*
X54778571Y-2353571D01*
X54921428Y-2425000D01*
X54992857Y-2496428D01*
X55064285Y-2639285D01*
X55064285Y-2782142D01*
X54992857Y-2996428D01*
X54135714Y-3853571D01*
X55064285Y-3853571D01*
X56492857Y-3853571D02*
X55635714Y-3853571D01*
X56064285Y-3853571D02*
X56064285Y-2353571D01*
X55921428Y-2567857D01*
X55778571Y-2710714D01*
X55635714Y-2782142D01*
X32814285Y-4903571D02*
X33671428Y-4903571D01*
X33242857Y-6403571D02*
X33242857Y-4903571D01*
X34171428Y-6403571D02*
X34171428Y-5403571D01*
X34171428Y-4903571D02*
X34100000Y-4975000D01*
X34171428Y-5046428D01*
X34242857Y-4975000D01*
X34171428Y-4903571D01*
X34171428Y-5046428D01*
X35457142Y-6332142D02*
X35314285Y-6403571D01*
X35028571Y-6403571D01*
X34885714Y-6332142D01*
X34814285Y-6189285D01*
X34814285Y-5617857D01*
X34885714Y-5475000D01*
X35028571Y-5403571D01*
X35314285Y-5403571D01*
X35457142Y-5475000D01*
X35528571Y-5617857D01*
X35528571Y-5760714D01*
X34814285Y-5903571D01*
X36171428Y-6403571D02*
X36171428Y-4903571D01*
X36742857Y-4903571D01*
X36885714Y-4975000D01*
X36957142Y-5046428D01*
X37028571Y-5189285D01*
X37028571Y-5403571D01*
X36957142Y-5546428D01*
X36885714Y-5617857D01*
X36742857Y-5689285D01*
X36171428Y-5689285D01*
X37671428Y-6403571D02*
X37671428Y-5403571D01*
X37671428Y-4903571D02*
X37600000Y-4975000D01*
X37671428Y-5046428D01*
X37742857Y-4975000D01*
X37671428Y-4903571D01*
X37671428Y-5046428D01*
X38957142Y-6332142D02*
X38814285Y-6403571D01*
X38528571Y-6403571D01*
X38385714Y-6332142D01*
X38314285Y-6189285D01*
X38314285Y-5617857D01*
X38385714Y-5475000D01*
X38528571Y-5403571D01*
X38814285Y-5403571D01*
X38957142Y-5475000D01*
X39028571Y-5617857D01*
X39028571Y-5760714D01*
X38314285Y-5903571D01*
X40385714Y-6403571D02*
X39671428Y-6403571D01*
X39671428Y-4903571D01*
X41742857Y-6260714D02*
X41671428Y-6332142D01*
X41457142Y-6403571D01*
X41314285Y-6403571D01*
X41100000Y-6332142D01*
X40957142Y-6189285D01*
X40885714Y-6046428D01*
X40814285Y-5760714D01*
X40814285Y-5546428D01*
X40885714Y-5260714D01*
X40957142Y-5117857D01*
X41100000Y-4975000D01*
X41314285Y-4903571D01*
X41457142Y-4903571D01*
X41671428Y-4975000D01*
X41742857Y-5046428D01*
X43242857Y-6403571D02*
X42742857Y-5689285D01*
X42385714Y-6403571D02*
X42385714Y-4903571D01*
X42957142Y-4903571D01*
X43100000Y-4975000D01*
X43171428Y-5046428D01*
X43242857Y-5189285D01*
X43242857Y-5403571D01*
X43171428Y-5546428D01*
X43100000Y-5617857D01*
X42957142Y-5689285D01*
X42385714Y-5689285D01*
X43528571Y-6546428D02*
X44671428Y-6546428D01*
X44814285Y-4903571D02*
X45314285Y-6403571D01*
X45814285Y-4903571D01*
X46242857Y-5046428D02*
X46314285Y-4975000D01*
X46457142Y-4903571D01*
X46814285Y-4903571D01*
X46957142Y-4975000D01*
X47028571Y-5046428D01*
X47100000Y-5189285D01*
X47100000Y-5332142D01*
X47028571Y-5546428D01*
X46171428Y-6403571D01*
X47100000Y-6403571D01*
X24814285Y-8953571D02*
X24814285Y-7453571D01*
X25528571Y-7953571D02*
X25528571Y-8953571D01*
X25528571Y-8096428D02*
X25600000Y-8025000D01*
X25742857Y-7953571D01*
X25957142Y-7953571D01*
X26100000Y-8025000D01*
X26171428Y-8167857D01*
X26171428Y-8953571D01*
X26671428Y-7953571D02*
X27242857Y-7953571D01*
X26885714Y-8953571D02*
X26885714Y-7667857D01*
X26957142Y-7525000D01*
X27100000Y-7453571D01*
X27242857Y-7453571D01*
X27957142Y-8953571D02*
X27814285Y-8882142D01*
X27742857Y-8810714D01*
X27671428Y-8667857D01*
X27671428Y-8239285D01*
X27742857Y-8096428D01*
X27814285Y-8025000D01*
X27957142Y-7953571D01*
X28171428Y-7953571D01*
X28314285Y-8025000D01*
X28385714Y-8096428D01*
X28457142Y-8239285D01*
X28457142Y-8667857D01*
X28385714Y-8810714D01*
X28314285Y-8882142D01*
X28171428Y-8953571D01*
X27957142Y-8953571D01*
X29100000Y-8810714D02*
X29171428Y-8882142D01*
X29100000Y-8953571D01*
X29028571Y-8882142D01*
X29100000Y-8810714D01*
X29100000Y-8953571D01*
X29100000Y-8025000D02*
X29171428Y-8096428D01*
X29100000Y-8167857D01*
X29028571Y-8096428D01*
X29100000Y-8025000D01*
X29100000Y-8167857D01*
X30957142Y-8953571D02*
X30957142Y-7953571D01*
X30957142Y-8096428D02*
X31028571Y-8025000D01*
X31171428Y-7953571D01*
X31385714Y-7953571D01*
X31528571Y-8025000D01*
X31600000Y-8167857D01*
X31600000Y-8953571D01*
X31600000Y-8167857D02*
X31671428Y-8025000D01*
X31814285Y-7953571D01*
X32028571Y-7953571D01*
X32171428Y-8025000D01*
X32242857Y-8167857D01*
X32242857Y-8953571D01*
X32957142Y-8810714D02*
X33028571Y-8882142D01*
X32957142Y-8953571D01*
X32885714Y-8882142D01*
X32957142Y-8810714D01*
X32957142Y-8953571D01*
X33600000Y-8882142D02*
X33742857Y-8953571D01*
X34028571Y-8953571D01*
X34171428Y-8882142D01*
X34242857Y-8739285D01*
X34242857Y-8667857D01*
X34171428Y-8525000D01*
X34028571Y-8453571D01*
X33814285Y-8453571D01*
X33671428Y-8382142D01*
X33600000Y-8239285D01*
X33600000Y-8167857D01*
X33671428Y-8025000D01*
X33814285Y-7953571D01*
X34028571Y-7953571D01*
X34171428Y-8025000D01*
X35528571Y-8882142D02*
X35385714Y-8953571D01*
X35100000Y-8953571D01*
X34957142Y-8882142D01*
X34885714Y-8810714D01*
X34814285Y-8667857D01*
X34814285Y-8239285D01*
X34885714Y-8096428D01*
X34957142Y-8025000D01*
X35100000Y-7953571D01*
X35385714Y-7953571D01*
X35528571Y-8025000D01*
X36171428Y-8953571D02*
X36171428Y-7453571D01*
X36814285Y-8953571D02*
X36814285Y-8167857D01*
X36742857Y-8025000D01*
X36600000Y-7953571D01*
X36385714Y-7953571D01*
X36242857Y-8025000D01*
X36171428Y-8096428D01*
X37742857Y-8953571D02*
X37600000Y-8882142D01*
X37528571Y-8810714D01*
X37457142Y-8667857D01*
X37457142Y-8239285D01*
X37528571Y-8096428D01*
X37600000Y-8025000D01*
X37742857Y-7953571D01*
X37957142Y-7953571D01*
X38100000Y-8025000D01*
X38171428Y-8096428D01*
X38242857Y-8239285D01*
X38242857Y-8667857D01*
X38171428Y-8810714D01*
X38100000Y-8882142D01*
X37957142Y-8953571D01*
X37742857Y-8953571D01*
X39528571Y-7953571D02*
X39528571Y-8953571D01*
X38885714Y-7953571D02*
X38885714Y-8739285D01*
X38957142Y-8882142D01*
X39100000Y-8953571D01*
X39314285Y-8953571D01*
X39457142Y-8882142D01*
X39528571Y-8810714D01*
X40028571Y-7953571D02*
X40600000Y-7953571D01*
X40242857Y-7453571D02*
X40242857Y-8739285D01*
X40314285Y-8882142D01*
X40457142Y-8953571D01*
X40600000Y-8953571D01*
X41671428Y-8882142D02*
X41528571Y-8953571D01*
X41242857Y-8953571D01*
X41100000Y-8882142D01*
X41028571Y-8739285D01*
X41028571Y-8167857D01*
X41100000Y-8025000D01*
X41242857Y-7953571D01*
X41528571Y-7953571D01*
X41671428Y-8025000D01*
X41742857Y-8167857D01*
X41742857Y-8310714D01*
X41028571Y-8453571D01*
X42385714Y-7953571D02*
X42385714Y-8953571D01*
X42385714Y-8096428D02*
X42457142Y-8025000D01*
X42600000Y-7953571D01*
X42814285Y-7953571D01*
X42957142Y-8025000D01*
X43028571Y-8167857D01*
X43028571Y-8953571D01*
X44671428Y-8239285D02*
X44600000Y-8167857D01*
X44457142Y-8096428D01*
X44314285Y-8096428D01*
X44171428Y-8167857D01*
X44100000Y-8239285D01*
X44028571Y-8382142D01*
X44028571Y-8525000D01*
X44100000Y-8667857D01*
X44171428Y-8739285D01*
X44314285Y-8810714D01*
X44457142Y-8810714D01*
X44600000Y-8739285D01*
X44671428Y-8667857D01*
X44671428Y-8096428D02*
X44671428Y-8667857D01*
X44742857Y-8739285D01*
X44814285Y-8739285D01*
X44957142Y-8667857D01*
X45028571Y-8525000D01*
X45028571Y-8167857D01*
X44885714Y-7953571D01*
X44671428Y-7810714D01*
X44385714Y-7739285D01*
X44100000Y-7810714D01*
X43885714Y-7953571D01*
X43742857Y-8167857D01*
X43671428Y-8453571D01*
X43742857Y-8739285D01*
X43885714Y-8953571D01*
X44100000Y-9096428D01*
X44385714Y-9167857D01*
X44671428Y-9096428D01*
X44885714Y-8953571D01*
X46314285Y-7953571D02*
X46314285Y-8953571D01*
X45671428Y-7953571D02*
X45671428Y-8739285D01*
X45742857Y-8882142D01*
X45885714Y-8953571D01*
X46100000Y-8953571D01*
X46242857Y-8882142D01*
X46314285Y-8810714D01*
X46814285Y-7953571D02*
X47385714Y-7953571D01*
X47028571Y-7453571D02*
X47028571Y-8739285D01*
X47100000Y-8882142D01*
X47242857Y-8953571D01*
X47385714Y-8953571D01*
X47742857Y-7953571D02*
X48028571Y-8953571D01*
X48314285Y-8239285D01*
X48600000Y-8953571D01*
X48885714Y-7953571D01*
X50028571Y-8882142D02*
X49885714Y-8953571D01*
X49600000Y-8953571D01*
X49457142Y-8882142D01*
X49385714Y-8739285D01*
X49385714Y-8167857D01*
X49457142Y-8025000D01*
X49600000Y-7953571D01*
X49885714Y-7953571D01*
X50028571Y-8025000D01*
X50100000Y-8167857D01*
X50100000Y-8310714D01*
X49385714Y-8453571D01*
X50742857Y-7953571D02*
X50742857Y-8953571D01*
X50742857Y-8096428D02*
X50814285Y-8025000D01*
X50957142Y-7953571D01*
X51171428Y-7953571D01*
X51314285Y-8025000D01*
X51385714Y-8167857D01*
X51385714Y-8953571D01*
X51885714Y-7953571D02*
X52457142Y-7953571D01*
X52100000Y-7453571D02*
X52100000Y-8739285D01*
X52171428Y-8882142D01*
X52314285Y-8953571D01*
X52457142Y-8953571D01*
X53528571Y-8882142D02*
X53385714Y-8953571D01*
X53100000Y-8953571D01*
X52957142Y-8882142D01*
X52885714Y-8739285D01*
X52885714Y-8167857D01*
X52957142Y-8025000D01*
X53100000Y-7953571D01*
X53385714Y-7953571D01*
X53528571Y-8025000D01*
X53600000Y-8167857D01*
X53600000Y-8310714D01*
X52885714Y-8453571D01*
X54242857Y-8810714D02*
X54314285Y-8882142D01*
X54242857Y-8953571D01*
X54171428Y-8882142D01*
X54242857Y-8810714D01*
X54242857Y-8953571D01*
X54957142Y-7953571D02*
X54957142Y-8953571D01*
X54957142Y-8096428D02*
X55028571Y-8025000D01*
X55171428Y-7953571D01*
X55385714Y-7953571D01*
X55528571Y-8025000D01*
X55600000Y-8167857D01*
X55600000Y-8953571D01*
X56528571Y-8953571D02*
X56385714Y-8882142D01*
X56314285Y-8739285D01*
X56314285Y-7453571D01*
X33814285Y-11503571D02*
X33314285Y-10789285D01*
X32957142Y-11503571D02*
X32957142Y-10003571D01*
X33528571Y-10003571D01*
X33671428Y-10075000D01*
X33742857Y-10146428D01*
X33814285Y-10289285D01*
X33814285Y-10503571D01*
X33742857Y-10646428D01*
X33671428Y-10717857D01*
X33528571Y-10789285D01*
X32957142Y-10789285D01*
X35028571Y-11432142D02*
X34885714Y-11503571D01*
X34600000Y-11503571D01*
X34457142Y-11432142D01*
X34385714Y-11289285D01*
X34385714Y-10717857D01*
X34457142Y-10575000D01*
X34600000Y-10503571D01*
X34885714Y-10503571D01*
X35028571Y-10575000D01*
X35100000Y-10717857D01*
X35100000Y-10860714D01*
X34385714Y-11003571D01*
X35671428Y-11432142D02*
X35814285Y-11503571D01*
X36100000Y-11503571D01*
X36242857Y-11432142D01*
X36314285Y-11289285D01*
X36314285Y-11217857D01*
X36242857Y-11075000D01*
X36100000Y-11003571D01*
X35885714Y-11003571D01*
X35742857Y-10932142D01*
X35671428Y-10789285D01*
X35671428Y-10717857D01*
X35742857Y-10575000D01*
X35885714Y-10503571D01*
X36100000Y-10503571D01*
X36242857Y-10575000D01*
X37528571Y-11432142D02*
X37385714Y-11503571D01*
X37100000Y-11503571D01*
X36957142Y-11432142D01*
X36885714Y-11289285D01*
X36885714Y-10717857D01*
X36957142Y-10575000D01*
X37100000Y-10503571D01*
X37385714Y-10503571D01*
X37528571Y-10575000D01*
X37600000Y-10717857D01*
X37600000Y-10860714D01*
X36885714Y-11003571D01*
X38885714Y-11503571D02*
X38885714Y-10717857D01*
X38814285Y-10575000D01*
X38671428Y-10503571D01*
X38385714Y-10503571D01*
X38242857Y-10575000D01*
X38885714Y-11432142D02*
X38742857Y-11503571D01*
X38385714Y-11503571D01*
X38242857Y-11432142D01*
X38171428Y-11289285D01*
X38171428Y-11146428D01*
X38242857Y-11003571D01*
X38385714Y-10932142D01*
X38742857Y-10932142D01*
X38885714Y-10860714D01*
X39600000Y-11503571D02*
X39600000Y-10503571D01*
X39600000Y-10789285D02*
X39671428Y-10646428D01*
X39742857Y-10575000D01*
X39885714Y-10503571D01*
X40028571Y-10503571D01*
X41171428Y-11432142D02*
X41028571Y-11503571D01*
X40742857Y-11503571D01*
X40600000Y-11432142D01*
X40528571Y-11360714D01*
X40457142Y-11217857D01*
X40457142Y-10789285D01*
X40528571Y-10646428D01*
X40600000Y-10575000D01*
X40742857Y-10503571D01*
X41028571Y-10503571D01*
X41171428Y-10575000D01*
X41814285Y-11503571D02*
X41814285Y-10003571D01*
X42457142Y-11503571D02*
X42457142Y-10717857D01*
X42385714Y-10575000D01*
X42242857Y-10503571D01*
X42028571Y-10503571D01*
X41885714Y-10575000D01*
X41814285Y-10646428D01*
X44528571Y-11503571D02*
X44385714Y-11432142D01*
X44314285Y-11360714D01*
X44242857Y-11217857D01*
X44242857Y-10789285D01*
X44314285Y-10646428D01*
X44385714Y-10575000D01*
X44528571Y-10503571D01*
X44742857Y-10503571D01*
X44885714Y-10575000D01*
X44957142Y-10646428D01*
X45028571Y-10789285D01*
X45028571Y-11217857D01*
X44957142Y-11360714D01*
X44885714Y-11432142D01*
X44742857Y-11503571D01*
X44528571Y-11503571D01*
X45671428Y-10503571D02*
X45671428Y-11503571D01*
X45671428Y-10646428D02*
X45742857Y-10575000D01*
X45885714Y-10503571D01*
X46100000Y-10503571D01*
X46242857Y-10575000D01*
X46314285Y-10717857D01*
X46314285Y-11503571D01*
X47242857Y-11503571D02*
X47100000Y-11432142D01*
X47028571Y-11289285D01*
X47028571Y-10003571D01*
X47671428Y-10503571D02*
X48028571Y-11503571D01*
X48385714Y-10503571D02*
X48028571Y-11503571D01*
X47885714Y-11860714D01*
X47814285Y-11932142D01*
X47671428Y-12003571D01*
D11*
X138547619Y-25880952D02*
X138500000Y-25833333D01*
X138452380Y-25738095D01*
X138452380Y-25500000D01*
X138500000Y-25404761D01*
X138547619Y-25357142D01*
X138642857Y-25309523D01*
X138738095Y-25309523D01*
X138880952Y-25357142D01*
X139452380Y-25928571D01*
X139452380Y-25309523D01*
X139452380Y-24976190D02*
X138785714Y-24452380D01*
X138785714Y-24976190D02*
X139452380Y-24452380D01*
X138452380Y-23404761D02*
X138452380Y-22785714D01*
X138833333Y-23119047D01*
X138833333Y-22976190D01*
X138880952Y-22880952D01*
X138928571Y-22833333D01*
X139023809Y-22785714D01*
X139261904Y-22785714D01*
X139357142Y-22833333D01*
X139404761Y-22880952D01*
X139452380Y-22976190D01*
X139452380Y-23261904D01*
X139404761Y-23357142D01*
X139357142Y-23404761D01*
X139357142Y-22357142D02*
X139404761Y-22309523D01*
X139452380Y-22357142D01*
X139404761Y-22404761D01*
X139357142Y-22357142D01*
X139452380Y-22357142D01*
X138547619Y-21928571D02*
X138500000Y-21880952D01*
X138452380Y-21785714D01*
X138452380Y-21547619D01*
X138500000Y-21452380D01*
X138547619Y-21404761D01*
X138642857Y-21357142D01*
X138738095Y-21357142D01*
X138880952Y-21404761D01*
X139452380Y-21976190D01*
X139452380Y-21357142D01*
X139071428Y-20928571D02*
X139071428Y-20166666D01*
X138785714Y-19261904D02*
X139452380Y-19261904D01*
X138404761Y-19500000D02*
X139119047Y-19738095D01*
X139119047Y-19119047D01*
X139357142Y-18738095D02*
X139404761Y-18690476D01*
X139452380Y-18738095D01*
X139404761Y-18785714D01*
X139357142Y-18738095D01*
X139452380Y-18738095D01*
X138452380Y-17785714D02*
X138452380Y-18261904D01*
X138928571Y-18309523D01*
X138880952Y-18261904D01*
X138833333Y-18166666D01*
X138833333Y-17928571D01*
X138880952Y-17833333D01*
X138928571Y-17785714D01*
X139023809Y-17738095D01*
X139261904Y-17738095D01*
X139357142Y-17785714D01*
X139404761Y-17833333D01*
X139452380Y-17928571D01*
X139452380Y-18166666D01*
X139404761Y-18261904D01*
X139357142Y-18309523D01*
X138452380Y-16690476D02*
X139452380Y-16357142D01*
X138452380Y-16023809D01*
X126207142Y-22276190D02*
X126302380Y-21990476D01*
X126397619Y-21895238D01*
X126588095Y-21800000D01*
X126873809Y-21800000D01*
X127064285Y-21895238D01*
X127159523Y-21990476D01*
X127254761Y-22180952D01*
X127254761Y-22942857D01*
X125254761Y-22942857D01*
X125254761Y-22276190D01*
X125350000Y-22085714D01*
X125445238Y-21990476D01*
X125635714Y-21895238D01*
X125826190Y-21895238D01*
X126016666Y-21990476D01*
X126111904Y-22085714D01*
X126207142Y-22276190D01*
X126207142Y-22942857D01*
X126683333Y-21038095D02*
X126683333Y-20085714D01*
X127254761Y-21228571D02*
X125254761Y-20561904D01*
X127254761Y-19895238D01*
X125254761Y-19514285D02*
X125254761Y-18371428D01*
X127254761Y-18942857D02*
X125254761Y-18942857D01*
X20416442Y-14608966D02*
X20516534Y-14518843D01*
X20806841Y-14438689D01*
X20997056Y-14448657D01*
X21277395Y-14558718D01*
X21457641Y-14758902D01*
X21542780Y-14954101D01*
X21617950Y-15339516D01*
X21602997Y-15624839D01*
X21487952Y-16000285D01*
X21382875Y-16185515D01*
X21182692Y-16365762D01*
X20892384Y-16445916D01*
X20702169Y-16435948D01*
X20421831Y-16325887D01*
X20331708Y-16225795D01*
X19570443Y-14373892D02*
X19465771Y-16371151D01*
X19515615Y-15420075D02*
X18374324Y-15360262D01*
X18429152Y-14314079D02*
X18324480Y-16311338D01*
X16431893Y-14209407D02*
X17573184Y-14269220D01*
X17002538Y-14239313D02*
X16897866Y-16236573D01*
X17103035Y-15961219D01*
X17303218Y-15780972D01*
X17498418Y-15695833D01*
X71130952Y-15735714D02*
X71226190Y-15640476D01*
X71511904Y-15545238D01*
X71702380Y-15545238D01*
X71988095Y-15640476D01*
X72178571Y-15830952D01*
X72273809Y-16021428D01*
X72369047Y-16402380D01*
X72369047Y-16688095D01*
X72273809Y-17069047D01*
X72178571Y-17259523D01*
X71988095Y-17450000D01*
X71702380Y-17545238D01*
X71511904Y-17545238D01*
X71226190Y-17450000D01*
X71130952Y-17354761D01*
X70273809Y-15545238D02*
X70273809Y-17545238D01*
X70273809Y-16592857D02*
X69130952Y-16592857D01*
X69130952Y-15545238D02*
X69130952Y-17545238D01*
X68273809Y-17354761D02*
X68178571Y-17450000D01*
X67988095Y-17545238D01*
X67511904Y-17545238D01*
X67321428Y-17450000D01*
X67226190Y-17354761D01*
X67130952Y-17164285D01*
X67130952Y-16973809D01*
X67226190Y-16688095D01*
X68369047Y-15545238D01*
X67130952Y-15545238D01*
X122028949Y-15573863D02*
X122224149Y-15659002D01*
X122509471Y-15644049D01*
X122789810Y-15533988D01*
X122970056Y-15333804D01*
X123055195Y-15138605D01*
X123130365Y-14753190D01*
X123115412Y-14467868D01*
X123000367Y-14092422D01*
X122895290Y-13907191D01*
X122695107Y-13726944D01*
X122404799Y-13646790D01*
X122214584Y-13656759D01*
X121934246Y-13766819D01*
X121844123Y-13866911D01*
X121879013Y-14532664D01*
X122259444Y-14512727D01*
X121033014Y-14767739D02*
X120367261Y-14802630D01*
X120027110Y-13771399D02*
X120978186Y-13721556D01*
X121082858Y-15718815D01*
X120131782Y-15768658D01*
X119171142Y-13816259D02*
X119275814Y-15813518D01*
X118029851Y-13876071D01*
X118134523Y-15873330D01*
X125504761Y-15309523D02*
X123504761Y-15309523D01*
X124457142Y-15309523D02*
X124457142Y-14166666D01*
X125504761Y-14166666D02*
X123504761Y-14166666D01*
X125409523Y-12357142D02*
X125504761Y-12547619D01*
X125504761Y-12928571D01*
X125409523Y-13119047D01*
X125314285Y-13214285D01*
X125123809Y-13309523D01*
X124552380Y-13309523D01*
X124361904Y-13214285D01*
X124266666Y-13119047D01*
X124171428Y-12928571D01*
X124171428Y-12547619D01*
X124266666Y-12357142D01*
X124171428Y-10642857D02*
X125504761Y-10642857D01*
X124171428Y-11500000D02*
X125219047Y-11500000D01*
X125409523Y-11404761D01*
X125504761Y-11214285D01*
X125504761Y-10928571D01*
X125409523Y-10738095D01*
X125314285Y-10642857D01*
X125504761Y-9690476D02*
X124171428Y-9690476D01*
X124552380Y-9690476D02*
X124361904Y-9595238D01*
X124266666Y-9500000D01*
X124171428Y-9309523D01*
X124171428Y-9119047D01*
X123504761Y-8738095D02*
X125504761Y-8071428D01*
X123504761Y-7404761D01*
X122965000Y-41985714D02*
X122965000Y-39890476D01*
X125504761Y-41509523D02*
X123504761Y-41509523D01*
X124457142Y-41509523D02*
X124457142Y-40366666D01*
X125504761Y-40366666D02*
X123504761Y-40366666D01*
X122965000Y-39890476D02*
X122965000Y-38176190D01*
X125409523Y-38557142D02*
X125504761Y-38747619D01*
X125504761Y-39128571D01*
X125409523Y-39319047D01*
X125314285Y-39414285D01*
X125123809Y-39509523D01*
X124552380Y-39509523D01*
X124361904Y-39414285D01*
X124266666Y-39319047D01*
X124171428Y-39128571D01*
X124171428Y-38747619D01*
X124266666Y-38557142D01*
X122965000Y-38176190D02*
X122965000Y-36366666D01*
X124171428Y-36842857D02*
X125504761Y-36842857D01*
X124171428Y-37700000D02*
X125219047Y-37700000D01*
X125409523Y-37604761D01*
X125504761Y-37414285D01*
X125504761Y-37128571D01*
X125409523Y-36938095D01*
X125314285Y-36842857D01*
X122965000Y-36366666D02*
X122965000Y-35128571D01*
X125504761Y-35890476D02*
X124171428Y-35890476D01*
X124552380Y-35890476D02*
X124361904Y-35795238D01*
X124266666Y-35700000D01*
X124171428Y-35509523D01*
X124171428Y-35319047D01*
X122965000Y-35128571D02*
X122965000Y-33414285D01*
X123504761Y-34938095D02*
X125504761Y-34271428D01*
X123504761Y-33604761D01*
X105645238Y-32665000D02*
X107740476Y-32665000D01*
X106121428Y-35204761D02*
X106121428Y-33204761D01*
X106121428Y-34157142D02*
X107264285Y-34157142D01*
X107264285Y-35204761D02*
X107264285Y-33204761D01*
X107740476Y-32665000D02*
X109454761Y-32665000D01*
X109073809Y-35109523D02*
X108883333Y-35204761D01*
X108502380Y-35204761D01*
X108311904Y-35109523D01*
X108216666Y-35014285D01*
X108121428Y-34823809D01*
X108121428Y-34252380D01*
X108216666Y-34061904D01*
X108311904Y-33966666D01*
X108502380Y-33871428D01*
X108883333Y-33871428D01*
X109073809Y-33966666D01*
X109454761Y-32665000D02*
X111264285Y-32665000D01*
X110788095Y-33871428D02*
X110788095Y-35204761D01*
X109930952Y-33871428D02*
X109930952Y-34919047D01*
X110026190Y-35109523D01*
X110216666Y-35204761D01*
X110502380Y-35204761D01*
X110692857Y-35109523D01*
X110788095Y-35014285D01*
X111264285Y-32665000D02*
X112502380Y-32665000D01*
X111740476Y-35204761D02*
X111740476Y-33871428D01*
X111740476Y-34252380D02*
X111835714Y-34061904D01*
X111930952Y-33966666D01*
X112121428Y-33871428D01*
X112311904Y-33871428D01*
X112502380Y-32665000D02*
X113454761Y-32665000D01*
X112978571Y-35204761D02*
X112978571Y-33204761D01*
X81871428Y-35204761D02*
X81871428Y-33204761D01*
X81871428Y-34157142D02*
X83014285Y-34157142D01*
X83014285Y-35204761D02*
X83014285Y-33204761D01*
X84823809Y-35109523D02*
X84633333Y-35204761D01*
X84252380Y-35204761D01*
X84061904Y-35109523D01*
X83966666Y-35014285D01*
X83871428Y-34823809D01*
X83871428Y-34252380D01*
X83966666Y-34061904D01*
X84061904Y-33966666D01*
X84252380Y-33871428D01*
X84633333Y-33871428D01*
X84823809Y-33966666D01*
X86538095Y-33871428D02*
X86538095Y-35204761D01*
X85680952Y-33871428D02*
X85680952Y-34919047D01*
X85776190Y-35109523D01*
X85966666Y-35204761D01*
X86252380Y-35204761D01*
X86442857Y-35109523D01*
X86538095Y-35014285D01*
X87490476Y-35204761D02*
X87490476Y-33871428D01*
X87490476Y-34252380D02*
X87585714Y-34061904D01*
X87680952Y-33966666D01*
X87871428Y-33871428D01*
X88061904Y-33871428D01*
X88728571Y-35204761D02*
X88728571Y-33204761D01*
X57622619Y-35204761D02*
X57622619Y-33204761D01*
X57622619Y-34157142D02*
X58765476Y-34157142D01*
X58765476Y-35204761D02*
X58765476Y-33204761D01*
X59717857Y-33871428D02*
X59717857Y-35871428D01*
X59717857Y-33966666D02*
X59908333Y-33871428D01*
X60289285Y-33871428D01*
X60479761Y-33966666D01*
X60575000Y-34061904D01*
X60670238Y-34252380D01*
X60670238Y-34823809D01*
X60575000Y-35014285D01*
X60479761Y-35109523D01*
X60289285Y-35204761D01*
X59908333Y-35204761D01*
X59717857Y-35109523D01*
X61813095Y-35204761D02*
X61622619Y-35109523D01*
X61527380Y-35014285D01*
X61432142Y-34823809D01*
X61432142Y-34252380D01*
X61527380Y-34061904D01*
X61622619Y-33966666D01*
X61813095Y-33871428D01*
X62098809Y-33871428D01*
X62289285Y-33966666D01*
X62384523Y-34061904D01*
X62479761Y-34252380D01*
X62479761Y-34823809D01*
X62384523Y-35014285D01*
X62289285Y-35109523D01*
X62098809Y-35204761D01*
X61813095Y-35204761D01*
X63051190Y-33871428D02*
X63813095Y-33871428D01*
X63336904Y-33204761D02*
X63336904Y-34919047D01*
X63432142Y-35109523D01*
X63622619Y-35204761D01*
X63813095Y-35204761D01*
X34438095Y-35204761D02*
X33485714Y-35204761D01*
X33485714Y-33204761D01*
X35104761Y-33871428D02*
X35104761Y-35871428D01*
X35104761Y-33966666D02*
X35295238Y-33871428D01*
X35676190Y-33871428D01*
X35866666Y-33966666D01*
X35961904Y-34061904D01*
X36057142Y-34252380D01*
X36057142Y-34823809D01*
X35961904Y-35014285D01*
X35866666Y-35109523D01*
X35676190Y-35204761D01*
X35295238Y-35204761D01*
X35104761Y-35109523D01*
X37200000Y-35204761D02*
X37009523Y-35109523D01*
X36914285Y-35014285D01*
X36819047Y-34823809D01*
X36819047Y-34252380D01*
X36914285Y-34061904D01*
X37009523Y-33966666D01*
X37200000Y-33871428D01*
X37485714Y-33871428D01*
X37676190Y-33966666D01*
X37771428Y-34061904D01*
X37866666Y-34252380D01*
X37866666Y-34823809D01*
X37771428Y-35014285D01*
X37676190Y-35109523D01*
X37485714Y-35204761D01*
X37200000Y-35204761D01*
X38438095Y-33871428D02*
X39200000Y-33871428D01*
X38723809Y-33204761D02*
X38723809Y-34919047D01*
X38819047Y-35109523D01*
X39009523Y-35204761D01*
X39200000Y-35204761D01*
X10088095Y-35204761D02*
X9135714Y-35204761D01*
X9135714Y-33204761D01*
X11611904Y-35109523D02*
X11421428Y-35204761D01*
X11040476Y-35204761D01*
X10850000Y-35109523D01*
X10754761Y-35014285D01*
X10659523Y-34823809D01*
X10659523Y-34252380D01*
X10754761Y-34061904D01*
X10850000Y-33966666D01*
X11040476Y-33871428D01*
X11421428Y-33871428D01*
X11611904Y-33966666D01*
X13326190Y-33871428D02*
X13326190Y-35204761D01*
X12469047Y-33871428D02*
X12469047Y-34919047D01*
X12564285Y-35109523D01*
X12754761Y-35204761D01*
X13040476Y-35204761D01*
X13230952Y-35109523D01*
X13326190Y-35014285D01*
X14278571Y-35204761D02*
X14278571Y-33871428D01*
X14278571Y-34252380D02*
X14373809Y-34061904D01*
X14469047Y-33966666D01*
X14659523Y-33871428D01*
X14850000Y-33871428D01*
D10*
X129092857Y-24261904D02*
X129092857Y-22738095D01*
X128438095Y-18242857D02*
X129961904Y-18242857D01*
X129200000Y-19004761D02*
X129200000Y-17480952D01*
D12*
X-2590000Y-42152500D02*
X-3850000Y-42152500D01*
X-9410000Y-42152500D02*
X-8150000Y-42152500D01*
X-2590000Y-45912500D02*
X-2590000Y-42152500D01*
X-9410000Y-48162500D02*
X-9410000Y-42152500D01*
X105775000Y-14510000D02*
X112435000Y-14500000D01*
X112435000Y-14500000D02*
X112435000Y-15000000D01*
X112435000Y-16600000D02*
X112435000Y-18000000D01*
X112435000Y-19600000D02*
X112435000Y-20400000D01*
X112435000Y-22000000D02*
X112435000Y-22600000D01*
X112435000Y-24200000D02*
X112435000Y-24700000D01*
X112435000Y-24700000D02*
X105735000Y-24700000D01*
X105735000Y-24700000D02*
X105735000Y-24200000D01*
X105735000Y-22600000D02*
X105735000Y-22000000D01*
X105735000Y-20400000D02*
X105735000Y-19600000D01*
X105775000Y-17910000D02*
X105775000Y-16510000D01*
X105775000Y-14510000D02*
X105775000Y-15010000D01*
X105775000Y-15010000D02*
X105175000Y-15010000D01*
X105775000Y-16510000D02*
X105175000Y-16510000D01*
X7785275Y469607D02*
X7057805Y-13411343D01*
X22564992Y-304965D02*
X7785275Y469607D01*
X21837523Y-14185916D02*
X22564992Y-304965D01*
X7057805Y-13411343D02*
X21837523Y-14185916D01*
X21345841Y22289806D02*
X20168282Y-179359D01*
X11359545Y22813165D02*
X21345841Y22289806D01*
X10181986Y344001D02*
X11359545Y22813165D01*
X139850000Y-26850000D02*
X125950000Y-26850000D01*
X139850000Y-41650000D02*
X139850000Y-26850000D01*
X125950000Y-41650000D02*
X139850000Y-41650000D01*
X125950000Y-26850000D02*
X125950000Y-41650000D01*
X162350000Y-39250000D02*
X139850000Y-39250000D01*
X162350000Y-29250000D02*
X162350000Y-39250000D01*
X139850000Y-29250000D02*
X162350000Y-29250000D01*
X60000000Y-1400000D02*
X60000000Y21100000D01*
X60000000Y21100000D02*
X70000000Y21100000D01*
X70000000Y21100000D02*
X70000000Y-1400000D01*
X57600000Y-15300000D02*
X72400000Y-15300000D01*
X72400000Y-15300000D02*
X72400000Y-1400000D01*
X72400000Y-1400000D02*
X57600000Y-1400000D01*
X57600000Y-1400000D02*
X57600000Y-15300000D01*
X15450000Y-22300000D02*
X15450000Y-19750000D01*
X17150000Y-22300000D02*
X17150000Y-19750000D01*
X15450000Y-22300000D02*
X17150000Y-22300000D01*
X7600000Y-44290000D02*
X8200000Y-44290000D01*
X7600000Y-45790000D02*
X8200000Y-45790000D01*
X7600000Y-46290000D02*
X7600000Y-45790000D01*
X7600000Y-42890000D02*
X7600000Y-44290000D01*
X7640000Y-40400000D02*
X7640000Y-41200000D01*
X7640000Y-38200000D02*
X7640000Y-38800000D01*
X7640000Y-36100000D02*
X7640000Y-36600000D01*
X940000Y-36100000D02*
X7640000Y-36100000D01*
X940000Y-36600000D02*
X940000Y-36100000D01*
X940000Y-38800000D02*
X940000Y-38200000D01*
X940000Y-41200000D02*
X940000Y-40400000D01*
X940000Y-44200000D02*
X940000Y-42800000D01*
X940000Y-46300000D02*
X940000Y-45800000D01*
X7600000Y-46290000D02*
X940000Y-46300000D01*
X15800000Y-24710000D02*
X15200000Y-24710000D01*
X15800000Y-23210000D02*
X15200000Y-23210000D01*
X15800000Y-22710000D02*
X15800000Y-23210000D01*
X15800000Y-26110000D02*
X15800000Y-24710000D01*
X15760000Y-28600000D02*
X15760000Y-27800000D01*
X15760000Y-30800000D02*
X15760000Y-30200000D01*
X15760000Y-32900000D02*
X15760000Y-32400000D01*
X22460000Y-32900000D02*
X15760000Y-32900000D01*
X22460000Y-32400000D02*
X22460000Y-32900000D01*
X22460000Y-30200000D02*
X22460000Y-30800000D01*
X22460000Y-27800000D02*
X22460000Y-28600000D01*
X22460000Y-24800000D02*
X22460000Y-26200000D01*
X22460000Y-22700000D02*
X22460000Y-23200000D01*
X15800000Y-22710000D02*
X22460000Y-22700000D01*
X-7305000Y-37160000D02*
X-7305000Y-35700000D01*
X-4145000Y-37160000D02*
X-4145000Y-35000000D01*
X-4145000Y-37160000D02*
X-5075000Y-37160000D01*
X-7305000Y-37160000D02*
X-6375000Y-37160000D01*
X51510000Y-37928733D02*
X51510000Y-38271267D01*
X50490000Y-37928733D02*
X50490000Y-38271267D01*
X53828733Y-36060000D02*
X54171267Y-36060000D01*
X53828733Y-35040000D02*
X54171267Y-35040000D01*
X25810000Y-39328733D02*
X25810000Y-39671267D01*
X24790000Y-39328733D02*
X24790000Y-39671267D01*
X28228733Y-37610000D02*
X28571267Y-37610000D01*
X28228733Y-36590000D02*
X28571267Y-36590000D01*
X98390000Y-37878733D02*
X98390000Y-38221267D01*
X99410000Y-37878733D02*
X99410000Y-38221267D01*
X101628733Y-36110000D02*
X101971267Y-36110000D01*
X101628733Y-35090000D02*
X101971267Y-35090000D01*
X52275000Y-44960000D02*
X54960000Y-44960000D01*
X54960000Y-44960000D02*
X54960000Y-43040000D01*
X54960000Y-43040000D02*
X52275000Y-43040000D01*
X75715000Y-42960000D02*
X78400000Y-42960000D01*
X75715000Y-41040000D02*
X75715000Y-42960000D01*
X78400000Y-41040000D02*
X75715000Y-41040000D01*
X8475000Y-48350000D02*
X8475000Y-46650000D01*
X8475000Y-46650000D02*
X5925000Y-46650000D01*
X8475000Y-48350000D02*
X5925000Y-48350000D01*
X5975000Y-22325000D02*
X5975000Y-19775000D01*
X7675000Y-22325000D02*
X7675000Y-19775000D01*
X5975000Y-22325000D02*
X7675000Y-22325000D01*
X24950000Y-22250000D02*
X26650000Y-22250000D01*
X26650000Y-22250000D02*
X26650000Y-19700000D01*
X24950000Y-22250000D02*
X24950000Y-19700000D01*
X103225000Y-14100000D02*
X103225000Y-11550000D01*
X104925000Y-14100000D02*
X104925000Y-11550000D01*
X103225000Y-14100000D02*
X104925000Y-14100000D01*
X131600000Y-16780000D02*
X131600000Y-25100000D01*
X136700000Y-16780000D02*
X136700000Y-25100000D01*
X137820000Y-16780000D02*
X137820000Y-25100000D01*
X131080000Y-16780000D02*
X131080000Y-25100000D01*
X137820000Y-16780000D02*
X131080000Y-16780000D01*
X137820000Y-25100000D02*
X131080000Y-25100000D01*
X131480000Y-16540000D02*
X130840000Y-16540000D01*
X130840000Y-16540000D02*
X130840000Y-16940000D01*
X-10580000Y-475000D02*
X1760000Y-475000D01*
X1760000Y-475000D02*
X1760000Y-31445000D01*
X1760000Y-31445000D02*
X-10580000Y-31445000D01*
X2654338Y-21250000D02*
X2654338Y-21750000D01*
X2654338Y-21750000D02*
X2221325Y-21500000D01*
X2221325Y-21500000D02*
X2654338Y-21250000D01*
X70000000Y-49900000D02*
X70000000Y-72400000D01*
X70000000Y-72400000D02*
X60000000Y-72400000D01*
X60000000Y-72400000D02*
X60000000Y-49900000D01*
X72400000Y-36000000D02*
X57600000Y-36000000D01*
X57600000Y-36000000D02*
X57600000Y-49900000D01*
X57600000Y-49900000D02*
X72400000Y-49900000D01*
X72400000Y-49900000D02*
X72400000Y-36000000D01*
X48200000Y-49900000D02*
X48200000Y-36000000D01*
X33400000Y-49900000D02*
X48200000Y-49900000D01*
X33400000Y-36000000D02*
X33400000Y-49900000D01*
X48200000Y-36000000D02*
X33400000Y-36000000D01*
X35800000Y-72400000D02*
X35800000Y-49900000D01*
X45800000Y-72400000D02*
X35800000Y-72400000D01*
X45800000Y-49900000D02*
X45800000Y-72400000D01*
X23900000Y-49900000D02*
X23900000Y-36000000D01*
X9100000Y-49900000D02*
X23900000Y-49900000D01*
X9100000Y-36000000D02*
X9100000Y-49900000D01*
X23900000Y-36000000D02*
X9100000Y-36000000D01*
X11500000Y-72400000D02*
X11500000Y-49900000D01*
X21500000Y-72400000D02*
X11500000Y-72400000D01*
X21500000Y-49900000D02*
X21500000Y-72400000D01*
X96700000Y-49900000D02*
X96700000Y-36000000D01*
X81900000Y-49900000D02*
X96700000Y-49900000D01*
X81900000Y-36000000D02*
X81900000Y-49900000D01*
X96700000Y-36000000D02*
X81900000Y-36000000D01*
X84300000Y-72400000D02*
X84300000Y-49900000D01*
X94300000Y-72400000D02*
X84300000Y-72400000D01*
X94300000Y-49900000D02*
X94300000Y-72400000D01*
X109831718Y-179359D02*
X108654159Y22289806D01*
X108654159Y22289806D02*
X118640455Y22813165D01*
X118640455Y22813165D02*
X119818014Y344001D01*
X108162477Y-14185916D02*
X122942195Y-13411343D01*
X122942195Y-13411343D02*
X122214725Y469607D01*
X122214725Y469607D02*
X107435008Y-304965D01*
X107435008Y-304965D02*
X108162477Y-14185916D01*
X139570000Y-2930000D02*
X162070000Y-2930000D01*
X162070000Y-2930000D02*
X162070000Y-12930000D01*
X162070000Y-12930000D02*
X139570000Y-12930000D01*
X125670000Y-530000D02*
X125670000Y-15330000D01*
X125670000Y-15330000D02*
X139570000Y-15330000D01*
X139570000Y-15330000D02*
X139570000Y-530000D01*
X139570000Y-530000D02*
X125670000Y-530000D01*
X120900000Y-49900000D02*
X120900000Y-36000000D01*
X106100000Y-49900000D02*
X120900000Y-49900000D01*
X106100000Y-36000000D02*
X106100000Y-49900000D01*
X120900000Y-36000000D02*
X106100000Y-36000000D01*
X108500000Y-72400000D02*
X108500000Y-49900000D01*
X118500000Y-72400000D02*
X108500000Y-72400000D01*
X118500000Y-49900000D02*
X118500000Y-72400000D01*
X54950000Y-22410000D02*
X54350000Y-22410000D01*
X54950000Y-20910000D02*
X54350000Y-20910000D01*
X54950000Y-20410000D02*
X54950000Y-20910000D01*
X54950000Y-23810000D02*
X54950000Y-22410000D01*
X54910000Y-26300000D02*
X54910000Y-25500000D01*
X54910000Y-28500000D02*
X54910000Y-27900000D01*
X54910000Y-30600000D02*
X54910000Y-30100000D01*
X61610000Y-30600000D02*
X54910000Y-30600000D01*
X61610000Y-30100000D02*
X61610000Y-30600000D01*
X61610000Y-27900000D02*
X61610000Y-28500000D01*
X61610000Y-25500000D02*
X61610000Y-26300000D01*
X61610000Y-22500000D02*
X61610000Y-23900000D01*
X61610000Y-20400000D02*
X61610000Y-20900000D01*
X54950000Y-20410000D02*
X61610000Y-20400000D01*
X6300000Y-22710000D02*
X12960000Y-22700000D01*
X12960000Y-22700000D02*
X12960000Y-23200000D01*
X12960000Y-24800000D02*
X12960000Y-26200000D01*
X12960000Y-27800000D02*
X12960000Y-28600000D01*
X12960000Y-30200000D02*
X12960000Y-30800000D01*
X12960000Y-32400000D02*
X12960000Y-32900000D01*
X12960000Y-32900000D02*
X6260000Y-32900000D01*
X6260000Y-32900000D02*
X6260000Y-32400000D01*
X6260000Y-30800000D02*
X6260000Y-30200000D01*
X6260000Y-28600000D02*
X6260000Y-27800000D01*
X6300000Y-26110000D02*
X6300000Y-24710000D01*
X6300000Y-22710000D02*
X6300000Y-23210000D01*
X6300000Y-23210000D02*
X5700000Y-23210000D01*
X6300000Y-24710000D02*
X5700000Y-24710000D01*
X25600000Y-22710000D02*
X32260000Y-22700000D01*
X32260000Y-22700000D02*
X32260000Y-23200000D01*
X32260000Y-24800000D02*
X32260000Y-26200000D01*
X32260000Y-27800000D02*
X32260000Y-28600000D01*
X32260000Y-30200000D02*
X32260000Y-30800000D01*
X32260000Y-32400000D02*
X32260000Y-32900000D01*
X32260000Y-32900000D02*
X25560000Y-32900000D01*
X25560000Y-32900000D02*
X25560000Y-32400000D01*
X25560000Y-30800000D02*
X25560000Y-30200000D01*
X25560000Y-28600000D02*
X25560000Y-27800000D01*
X25600000Y-26110000D02*
X25600000Y-24710000D01*
X25600000Y-22710000D02*
X25600000Y-23210000D01*
X25600000Y-23210000D02*
X25000000Y-23210000D01*
X25600000Y-24710000D02*
X25000000Y-24710000D01*
X54880000Y-36590000D02*
X52450000Y-36590000D01*
X53120000Y-39660000D02*
X54880000Y-39660000D01*
X27420000Y-41160000D02*
X29180000Y-41160000D01*
X29180000Y-38090000D02*
X26750000Y-38090000D01*
X101020000Y-39910000D02*
X102780000Y-39910000D01*
X102780000Y-36840000D02*
X100350000Y-36840000D01*
X54325000Y-20100000D02*
X54325000Y-17550000D01*
X56025000Y-20100000D02*
X56025000Y-17550000D01*
X54325000Y-20100000D02*
X56025000Y-20100000D01*
X-7915000Y-36571267D02*
X-7915000Y-36228733D01*
X-8935000Y-36571267D02*
X-8935000Y-36228733D01*
X53128733Y-41790000D02*
X53471267Y-41790000D01*
X53128733Y-42810000D02*
X53471267Y-42810000D01*
X77571267Y-44210000D02*
X77228733Y-44210000D01*
X77571267Y-43190000D02*
X77228733Y-43190000D01*
X60003733Y-32010000D02*
X60346267Y-32010000D01*
X60003733Y-30990000D02*
X60346267Y-30990000D01*
X122300000Y-49750000D02*
X122300000Y-42150000D01*
X139100000Y-49750000D02*
X122300000Y-49750000D01*
X139100000Y-42150000D02*
X139100000Y-49750000D01*
X122300000Y-42150000D02*
X139100000Y-42150000D01*
X130700000Y-49700000D02*
X130700000Y-49950000D01*
X130700000Y-55450000D02*
X130700000Y-49700000D01*
X125700000Y-55450000D02*
X130700000Y-55450000D01*
X125700000Y-49700000D02*
X125700000Y-55450000D01*
X59960000Y-18190000D02*
X57275000Y-18190000D01*
X59960000Y-20110000D02*
X59960000Y-18190000D01*
X57275000Y-20110000D02*
X59960000Y-20110000D01*
X1990000Y-48360000D02*
X4675000Y-48360000D01*
X1990000Y-46440000D02*
X1990000Y-48360000D01*
X4675000Y-46440000D02*
X1990000Y-46440000D01*
X11285000Y-20515000D02*
X8600000Y-20515000D01*
X11285000Y-22435000D02*
X11285000Y-20515000D01*
X8600000Y-22435000D02*
X11285000Y-22435000D01*
X27775000Y-22535000D02*
X30460000Y-22535000D01*
X30460000Y-22535000D02*
X30460000Y-20615000D01*
X30460000Y-20615000D02*
X27775000Y-20615000D01*
X17950000Y-22560000D02*
X20635000Y-22560000D01*
X20635000Y-22560000D02*
X20635000Y-20640000D01*
X20635000Y-20640000D02*
X17950000Y-20640000D01*
X107035000Y-13600000D02*
X107035000Y-10915000D01*
X107035000Y-10915000D02*
X105115000Y-10915000D01*
X105115000Y-10915000D02*
X105115000Y-13600000D01*
X61785000Y-18671267D02*
X61785000Y-18328733D01*
X60765000Y-18671267D02*
X60765000Y-18328733D01*
X396267Y-47935000D02*
X53733Y-47935000D01*
X396267Y-46915000D02*
X53733Y-46915000D01*
X13235000Y-21046267D02*
X13235000Y-20703733D01*
X12215000Y-21046267D02*
X12215000Y-20703733D01*
X31090000Y-21046267D02*
X31090000Y-20703733D01*
X32110000Y-21046267D02*
X32110000Y-20703733D01*
X22585000Y-20971267D02*
X22585000Y-20628733D01*
X21565000Y-20971267D02*
X21565000Y-20628733D01*
X105046267Y-10610000D02*
X104703733Y-10610000D01*
X105046267Y-9590000D02*
X104703733Y-9590000D01*
X-2265000Y-36621267D02*
X-2265000Y-36278733D01*
X-3285000Y-36621267D02*
X-3285000Y-36278733D01*
X-4296267Y-39410000D02*
X-3953733Y-39410000D01*
X-4296267Y-38390000D02*
X-3953733Y-38390000D01*
X-7696267Y-39410000D02*
X-7353733Y-39410000D01*
X-7696267Y-38390000D02*
X-7353733Y-38390000D01*
X55246267Y-33510000D02*
X54903733Y-33510000D01*
X55246267Y-32490000D02*
X54903733Y-32490000D01*
X56403733Y-30990000D02*
X56746267Y-30990000D01*
X56403733Y-32010000D02*
X56746267Y-32010000D01*
M02*
