G04 #@! TF.GenerationSoftware,KiCad,Pcbnew,(5.1.5)-3*
G04 #@! TF.CreationDate,2021-03-25T21:43:08+01:00*
G04 #@! TF.ProjectId,tiepieLCR,74696570-6965-44c4-9352-2e6b69636164,rev?*
G04 #@! TF.SameCoordinates,Original*
G04 #@! TF.FileFunction,Legend,Bot*
G04 #@! TF.FilePolarity,Positive*
%FSLAX46Y46*%
G04 Gerber Fmt 4.6, Leading zero omitted, Abs format (unit mm)*
G04 Created by KiCad (PCBNEW (5.1.5)-3) date 2021-03-25 21:43:08*
%MOMM*%
%LPD*%
G04 APERTURE LIST*
%ADD10C,0.300000*%
%ADD11C,0.150000*%
%ADD12C,0.120000*%
%ADD13C,0.100000*%
G04 APERTURE END LIST*
D10*
X99938095Y-5855952D02*
X99938095Y-3355952D01*
X99104761Y-5141666D01*
X98271428Y-3355952D01*
X98271428Y-5855952D01*
X97200000Y-5141666D02*
X96009523Y-5141666D01*
X97438095Y-5855952D02*
X96604761Y-3355952D01*
X95771428Y-5855952D01*
X95176190Y-3355952D02*
X93509523Y-5855952D01*
X93509523Y-3355952D02*
X95176190Y-5855952D01*
X92557142Y-5617857D02*
X92438095Y-5736904D01*
X92557142Y-5855952D01*
X92676190Y-5736904D01*
X92557142Y-5617857D01*
X92557142Y-5855952D01*
X89461904Y-4427380D02*
X87557142Y-4427380D01*
X88509523Y-5379761D02*
X88509523Y-3475000D01*
X87557142Y-5855952D02*
X89461904Y-5855952D01*
X86485714Y-3594047D02*
X86366666Y-3475000D01*
X86128571Y-3355952D01*
X85533333Y-3355952D01*
X85295238Y-3475000D01*
X85176190Y-3594047D01*
X85057142Y-3832142D01*
X85057142Y-4070238D01*
X85176190Y-4427380D01*
X86604761Y-5855952D01*
X85057142Y-5855952D01*
X83985714Y-5617857D02*
X83866666Y-5736904D01*
X83985714Y-5855952D01*
X84104761Y-5736904D01*
X83985714Y-5617857D01*
X83985714Y-5855952D01*
X81604761Y-3355952D02*
X82795238Y-3355952D01*
X82914285Y-4546428D01*
X82795238Y-4427380D01*
X82557142Y-4308333D01*
X81961904Y-4308333D01*
X81723809Y-4427380D01*
X81604761Y-4546428D01*
X81485714Y-4784523D01*
X81485714Y-5379761D01*
X81604761Y-5617857D01*
X81723809Y-5736904D01*
X81961904Y-5855952D01*
X82557142Y-5855952D01*
X82795238Y-5736904D01*
X82914285Y-5617857D01*
X80771428Y-3355952D02*
X79938095Y-5855952D01*
X79104761Y-3355952D01*
X101069047Y-9905952D02*
X101307142Y-9786904D01*
X101426190Y-9667857D01*
X101545238Y-9429761D01*
X101545238Y-8715476D01*
X101426190Y-8477380D01*
X101307142Y-8358333D01*
X101069047Y-8239285D01*
X100711904Y-8239285D01*
X100473809Y-8358333D01*
X100354761Y-8477380D01*
X100235714Y-8715476D01*
X100235714Y-9429761D01*
X100354761Y-9667857D01*
X100473809Y-9786904D01*
X100711904Y-9905952D01*
X101069047Y-9905952D01*
X99164285Y-8239285D02*
X99164285Y-9905952D01*
X99164285Y-8477380D02*
X99045238Y-8358333D01*
X98807142Y-8239285D01*
X98450000Y-8239285D01*
X98211904Y-8358333D01*
X98092857Y-8596428D01*
X98092857Y-9905952D01*
X93926190Y-9905952D02*
X93926190Y-8596428D01*
X94045238Y-8358333D01*
X94283333Y-8239285D01*
X94759523Y-8239285D01*
X94997619Y-8358333D01*
X93926190Y-9786904D02*
X94164285Y-9905952D01*
X94759523Y-9905952D01*
X94997619Y-9786904D01*
X95116666Y-9548809D01*
X95116666Y-9310714D01*
X94997619Y-9072619D01*
X94759523Y-8953571D01*
X94164285Y-8953571D01*
X93926190Y-8834523D01*
X92378571Y-9905952D02*
X92616666Y-9786904D01*
X92735714Y-9548809D01*
X92735714Y-7405952D01*
X91069047Y-9905952D02*
X91307142Y-9786904D01*
X91426190Y-9548809D01*
X91426190Y-7405952D01*
X88211904Y-9905952D02*
X88211904Y-8239285D01*
X88211904Y-7405952D02*
X88330952Y-7525000D01*
X88211904Y-7644047D01*
X88092857Y-7525000D01*
X88211904Y-7405952D01*
X88211904Y-7644047D01*
X87021428Y-8239285D02*
X87021428Y-9905952D01*
X87021428Y-8477380D02*
X86902380Y-8358333D01*
X86664285Y-8239285D01*
X86307142Y-8239285D01*
X86069047Y-8358333D01*
X85950000Y-8596428D01*
X85950000Y-9905952D01*
X84759523Y-8239285D02*
X84759523Y-10739285D01*
X84759523Y-8358333D02*
X84521428Y-8239285D01*
X84045238Y-8239285D01*
X83807142Y-8358333D01*
X83688095Y-8477380D01*
X83569047Y-8715476D01*
X83569047Y-9429761D01*
X83688095Y-9667857D01*
X83807142Y-9786904D01*
X84045238Y-9905952D01*
X84521428Y-9905952D01*
X84759523Y-9786904D01*
X81426190Y-8239285D02*
X81426190Y-9905952D01*
X82497619Y-8239285D02*
X82497619Y-9548809D01*
X82378571Y-9786904D01*
X82140476Y-9905952D01*
X81783333Y-9905952D01*
X81545238Y-9786904D01*
X81426190Y-9667857D01*
X80592857Y-8239285D02*
X79640476Y-8239285D01*
X80235714Y-7405952D02*
X80235714Y-9548809D01*
X80116666Y-9786904D01*
X79878571Y-9905952D01*
X79640476Y-9905952D01*
X78926190Y-9786904D02*
X78688095Y-9905952D01*
X78211904Y-9905952D01*
X77973809Y-9786904D01*
X77854761Y-9548809D01*
X77854761Y-9429761D01*
X77973809Y-9191666D01*
X78211904Y-9072619D01*
X78569047Y-9072619D01*
X78807142Y-8953571D01*
X78926190Y-8715476D01*
X78926190Y-8596428D01*
X78807142Y-8358333D01*
X78569047Y-8239285D01*
X78211904Y-8239285D01*
X77973809Y-8358333D01*
X55257142Y-2660714D02*
X55400000Y-2589285D01*
X55685714Y-2589285D01*
X55828571Y-2660714D01*
X55971428Y-2803571D01*
X56042857Y-2946428D01*
X56042857Y-3232142D01*
X55971428Y-3375000D01*
X55828571Y-3517857D01*
X55685714Y-3589285D01*
X55400000Y-3589285D01*
X55257142Y-3517857D01*
X55542857Y-2089285D02*
X55900000Y-2160714D01*
X56257142Y-2375000D01*
X56471428Y-2732142D01*
X56542857Y-3089285D01*
X56471428Y-3446428D01*
X56257142Y-3803571D01*
X55900000Y-4017857D01*
X55542857Y-4089285D01*
X55185714Y-4017857D01*
X54828571Y-3803571D01*
X54614285Y-3446428D01*
X54542857Y-3089285D01*
X54614285Y-2732142D01*
X54828571Y-2375000D01*
X55185714Y-2160714D01*
X55542857Y-2089285D01*
X53900000Y-2303571D02*
X53900000Y-3517857D01*
X53828571Y-3660714D01*
X53757142Y-3732142D01*
X53614285Y-3803571D01*
X53328571Y-3803571D01*
X53185714Y-3732142D01*
X53114285Y-3660714D01*
X53042857Y-3517857D01*
X53042857Y-2303571D01*
X52328571Y-2803571D02*
X52328571Y-3803571D01*
X52328571Y-2946428D02*
X52257142Y-2875000D01*
X52114285Y-2803571D01*
X51900000Y-2803571D01*
X51757142Y-2875000D01*
X51685714Y-3017857D01*
X51685714Y-3803571D01*
X50971428Y-3803571D02*
X50971428Y-2803571D01*
X50971428Y-2303571D02*
X51042857Y-2375000D01*
X50971428Y-2446428D01*
X50900000Y-2375000D01*
X50971428Y-2303571D01*
X50971428Y-2446428D01*
X50400000Y-2803571D02*
X50042857Y-3803571D01*
X49685714Y-2803571D01*
X48542857Y-3732142D02*
X48685714Y-3803571D01*
X48971428Y-3803571D01*
X49114285Y-3732142D01*
X49185714Y-3589285D01*
X49185714Y-3017857D01*
X49114285Y-2875000D01*
X48971428Y-2803571D01*
X48685714Y-2803571D01*
X48542857Y-2875000D01*
X48471428Y-3017857D01*
X48471428Y-3160714D01*
X49185714Y-3303571D01*
X47828571Y-3803571D02*
X47828571Y-2803571D01*
X47828571Y-3089285D02*
X47757142Y-2946428D01*
X47685714Y-2875000D01*
X47542857Y-2803571D01*
X47400000Y-2803571D01*
X46971428Y-3732142D02*
X46828571Y-3803571D01*
X46542857Y-3803571D01*
X46400000Y-3732142D01*
X46328571Y-3589285D01*
X46328571Y-3517857D01*
X46400000Y-3375000D01*
X46542857Y-3303571D01*
X46757142Y-3303571D01*
X46900000Y-3232142D01*
X46971428Y-3089285D01*
X46971428Y-3017857D01*
X46900000Y-2875000D01*
X46757142Y-2803571D01*
X46542857Y-2803571D01*
X46400000Y-2875000D01*
X45685714Y-3803571D02*
X45685714Y-2803571D01*
X45685714Y-2303571D02*
X45757142Y-2375000D01*
X45685714Y-2446428D01*
X45614285Y-2375000D01*
X45685714Y-2303571D01*
X45685714Y-2446428D01*
X45185714Y-2803571D02*
X44614285Y-2803571D01*
X44971428Y-2303571D02*
X44971428Y-3589285D01*
X44900000Y-3732142D01*
X44757142Y-3803571D01*
X44614285Y-3803571D01*
X44257142Y-2803571D02*
X43900000Y-3803571D01*
X43542857Y-2803571D02*
X43900000Y-3803571D01*
X44042857Y-4160714D01*
X44114285Y-4232142D01*
X44257142Y-4303571D01*
X41614285Y-3803571D02*
X41757142Y-3732142D01*
X41828571Y-3660714D01*
X41900000Y-3517857D01*
X41900000Y-3089285D01*
X41828571Y-2946428D01*
X41757142Y-2875000D01*
X41614285Y-2803571D01*
X41400000Y-2803571D01*
X41257142Y-2875000D01*
X41185714Y-2946428D01*
X41114285Y-3089285D01*
X41114285Y-3517857D01*
X41185714Y-3660714D01*
X41257142Y-3732142D01*
X41400000Y-3803571D01*
X41614285Y-3803571D01*
X40685714Y-2803571D02*
X40114285Y-2803571D01*
X40471428Y-3803571D02*
X40471428Y-2517857D01*
X40400000Y-2375000D01*
X40257142Y-2303571D01*
X40114285Y-2303571D01*
X38685714Y-2303571D02*
X37828571Y-2303571D01*
X38257142Y-3803571D02*
X38257142Y-2303571D01*
X37471428Y-2803571D02*
X37185714Y-3803571D01*
X36900000Y-3089285D01*
X36614285Y-3803571D01*
X36328571Y-2803571D01*
X35185714Y-3732142D02*
X35328571Y-3803571D01*
X35614285Y-3803571D01*
X35757142Y-3732142D01*
X35828571Y-3589285D01*
X35828571Y-3017857D01*
X35757142Y-2875000D01*
X35614285Y-2803571D01*
X35328571Y-2803571D01*
X35185714Y-2875000D01*
X35114285Y-3017857D01*
X35114285Y-3160714D01*
X35828571Y-3303571D01*
X34471428Y-2803571D02*
X34471428Y-3803571D01*
X34471428Y-2946428D02*
X34400000Y-2875000D01*
X34257142Y-2803571D01*
X34042857Y-2803571D01*
X33900000Y-2875000D01*
X33828571Y-3017857D01*
X33828571Y-3803571D01*
X33328571Y-2803571D02*
X32757142Y-2803571D01*
X33114285Y-2303571D02*
X33114285Y-3589285D01*
X33042857Y-3732142D01*
X32900000Y-3803571D01*
X32757142Y-3803571D01*
X31685714Y-3732142D02*
X31828571Y-3803571D01*
X32114285Y-3803571D01*
X32257142Y-3732142D01*
X32328571Y-3589285D01*
X32328571Y-3017857D01*
X32257142Y-2875000D01*
X32114285Y-2803571D01*
X31828571Y-2803571D01*
X31685714Y-2875000D01*
X31614285Y-3017857D01*
X31614285Y-3160714D01*
X32328571Y-3303571D01*
X29900000Y-2446428D02*
X29828571Y-2375000D01*
X29685714Y-2303571D01*
X29328571Y-2303571D01*
X29185714Y-2375000D01*
X29114285Y-2446428D01*
X29042857Y-2589285D01*
X29042857Y-2732142D01*
X29114285Y-2946428D01*
X29971428Y-3803571D01*
X29042857Y-3803571D01*
X28114285Y-2303571D02*
X27971428Y-2303571D01*
X27828571Y-2375000D01*
X27757142Y-2446428D01*
X27685714Y-2589285D01*
X27614285Y-2875000D01*
X27614285Y-3232142D01*
X27685714Y-3517857D01*
X27757142Y-3660714D01*
X27828571Y-3732142D01*
X27971428Y-3803571D01*
X28114285Y-3803571D01*
X28257142Y-3732142D01*
X28328571Y-3660714D01*
X28400000Y-3517857D01*
X28471428Y-3232142D01*
X28471428Y-2875000D01*
X28400000Y-2589285D01*
X28328571Y-2446428D01*
X28257142Y-2375000D01*
X28114285Y-2303571D01*
X27042857Y-2446428D02*
X26971428Y-2375000D01*
X26828571Y-2303571D01*
X26471428Y-2303571D01*
X26328571Y-2375000D01*
X26257142Y-2446428D01*
X26185714Y-2589285D01*
X26185714Y-2732142D01*
X26257142Y-2946428D01*
X27114285Y-3803571D01*
X26185714Y-3803571D01*
X24757142Y-3803571D02*
X25614285Y-3803571D01*
X25185714Y-3803571D02*
X25185714Y-2303571D01*
X25328571Y-2517857D01*
X25471428Y-2660714D01*
X25614285Y-2732142D01*
X48435714Y-4853571D02*
X47578571Y-4853571D01*
X48007142Y-6353571D02*
X48007142Y-4853571D01*
X47078571Y-6353571D02*
X47078571Y-5353571D01*
X47078571Y-4853571D02*
X47150000Y-4925000D01*
X47078571Y-4996428D01*
X47007142Y-4925000D01*
X47078571Y-4853571D01*
X47078571Y-4996428D01*
X45792857Y-6282142D02*
X45935714Y-6353571D01*
X46221428Y-6353571D01*
X46364285Y-6282142D01*
X46435714Y-6139285D01*
X46435714Y-5567857D01*
X46364285Y-5425000D01*
X46221428Y-5353571D01*
X45935714Y-5353571D01*
X45792857Y-5425000D01*
X45721428Y-5567857D01*
X45721428Y-5710714D01*
X46435714Y-5853571D01*
X45078571Y-6353571D02*
X45078571Y-4853571D01*
X44507142Y-4853571D01*
X44364285Y-4925000D01*
X44292857Y-4996428D01*
X44221428Y-5139285D01*
X44221428Y-5353571D01*
X44292857Y-5496428D01*
X44364285Y-5567857D01*
X44507142Y-5639285D01*
X45078571Y-5639285D01*
X43578571Y-6353571D02*
X43578571Y-5353571D01*
X43578571Y-4853571D02*
X43650000Y-4925000D01*
X43578571Y-4996428D01*
X43507142Y-4925000D01*
X43578571Y-4853571D01*
X43578571Y-4996428D01*
X42292857Y-6282142D02*
X42435714Y-6353571D01*
X42721428Y-6353571D01*
X42864285Y-6282142D01*
X42935714Y-6139285D01*
X42935714Y-5567857D01*
X42864285Y-5425000D01*
X42721428Y-5353571D01*
X42435714Y-5353571D01*
X42292857Y-5425000D01*
X42221428Y-5567857D01*
X42221428Y-5710714D01*
X42935714Y-5853571D01*
X40864285Y-6353571D02*
X41578571Y-6353571D01*
X41578571Y-4853571D01*
X39507142Y-6210714D02*
X39578571Y-6282142D01*
X39792857Y-6353571D01*
X39935714Y-6353571D01*
X40150000Y-6282142D01*
X40292857Y-6139285D01*
X40364285Y-5996428D01*
X40435714Y-5710714D01*
X40435714Y-5496428D01*
X40364285Y-5210714D01*
X40292857Y-5067857D01*
X40150000Y-4925000D01*
X39935714Y-4853571D01*
X39792857Y-4853571D01*
X39578571Y-4925000D01*
X39507142Y-4996428D01*
X38007142Y-6353571D02*
X38507142Y-5639285D01*
X38864285Y-6353571D02*
X38864285Y-4853571D01*
X38292857Y-4853571D01*
X38150000Y-4925000D01*
X38078571Y-4996428D01*
X38007142Y-5139285D01*
X38007142Y-5353571D01*
X38078571Y-5496428D01*
X38150000Y-5567857D01*
X38292857Y-5639285D01*
X38864285Y-5639285D01*
X37721428Y-6496428D02*
X36578571Y-6496428D01*
X36435714Y-4853571D02*
X35935714Y-6353571D01*
X35435714Y-4853571D01*
X35007142Y-4996428D02*
X34935714Y-4925000D01*
X34792857Y-4853571D01*
X34435714Y-4853571D01*
X34292857Y-4925000D01*
X34221428Y-4996428D01*
X34150000Y-5139285D01*
X34150000Y-5282142D01*
X34221428Y-5496428D01*
X35078571Y-6353571D01*
X34150000Y-6353571D01*
X56435714Y-8903571D02*
X56435714Y-7403571D01*
X55721428Y-7903571D02*
X55721428Y-8903571D01*
X55721428Y-8046428D02*
X55650000Y-7975000D01*
X55507142Y-7903571D01*
X55292857Y-7903571D01*
X55150000Y-7975000D01*
X55078571Y-8117857D01*
X55078571Y-8903571D01*
X54578571Y-7903571D02*
X54007142Y-7903571D01*
X54364285Y-8903571D02*
X54364285Y-7617857D01*
X54292857Y-7475000D01*
X54150000Y-7403571D01*
X54007142Y-7403571D01*
X53292857Y-8903571D02*
X53435714Y-8832142D01*
X53507142Y-8760714D01*
X53578571Y-8617857D01*
X53578571Y-8189285D01*
X53507142Y-8046428D01*
X53435714Y-7975000D01*
X53292857Y-7903571D01*
X53078571Y-7903571D01*
X52935714Y-7975000D01*
X52864285Y-8046428D01*
X52792857Y-8189285D01*
X52792857Y-8617857D01*
X52864285Y-8760714D01*
X52935714Y-8832142D01*
X53078571Y-8903571D01*
X53292857Y-8903571D01*
X52150000Y-8760714D02*
X52078571Y-8832142D01*
X52150000Y-8903571D01*
X52221428Y-8832142D01*
X52150000Y-8760714D01*
X52150000Y-8903571D01*
X52150000Y-7975000D02*
X52078571Y-8046428D01*
X52150000Y-8117857D01*
X52221428Y-8046428D01*
X52150000Y-7975000D01*
X52150000Y-8117857D01*
X50292857Y-8903571D02*
X50292857Y-7903571D01*
X50292857Y-8046428D02*
X50221428Y-7975000D01*
X50078571Y-7903571D01*
X49864285Y-7903571D01*
X49721428Y-7975000D01*
X49650000Y-8117857D01*
X49650000Y-8903571D01*
X49650000Y-8117857D02*
X49578571Y-7975000D01*
X49435714Y-7903571D01*
X49221428Y-7903571D01*
X49078571Y-7975000D01*
X49007142Y-8117857D01*
X49007142Y-8903571D01*
X48292857Y-8760714D02*
X48221428Y-8832142D01*
X48292857Y-8903571D01*
X48364285Y-8832142D01*
X48292857Y-8760714D01*
X48292857Y-8903571D01*
X47650000Y-8832142D02*
X47507142Y-8903571D01*
X47221428Y-8903571D01*
X47078571Y-8832142D01*
X47007142Y-8689285D01*
X47007142Y-8617857D01*
X47078571Y-8475000D01*
X47221428Y-8403571D01*
X47435714Y-8403571D01*
X47578571Y-8332142D01*
X47650000Y-8189285D01*
X47650000Y-8117857D01*
X47578571Y-7975000D01*
X47435714Y-7903571D01*
X47221428Y-7903571D01*
X47078571Y-7975000D01*
X45721428Y-8832142D02*
X45864285Y-8903571D01*
X46150000Y-8903571D01*
X46292857Y-8832142D01*
X46364285Y-8760714D01*
X46435714Y-8617857D01*
X46435714Y-8189285D01*
X46364285Y-8046428D01*
X46292857Y-7975000D01*
X46150000Y-7903571D01*
X45864285Y-7903571D01*
X45721428Y-7975000D01*
X45078571Y-8903571D02*
X45078571Y-7403571D01*
X44435714Y-8903571D02*
X44435714Y-8117857D01*
X44507142Y-7975000D01*
X44650000Y-7903571D01*
X44864285Y-7903571D01*
X45007142Y-7975000D01*
X45078571Y-8046428D01*
X43507142Y-8903571D02*
X43650000Y-8832142D01*
X43721428Y-8760714D01*
X43792857Y-8617857D01*
X43792857Y-8189285D01*
X43721428Y-8046428D01*
X43650000Y-7975000D01*
X43507142Y-7903571D01*
X43292857Y-7903571D01*
X43150000Y-7975000D01*
X43078571Y-8046428D01*
X43007142Y-8189285D01*
X43007142Y-8617857D01*
X43078571Y-8760714D01*
X43150000Y-8832142D01*
X43292857Y-8903571D01*
X43507142Y-8903571D01*
X41721428Y-7903571D02*
X41721428Y-8903571D01*
X42364285Y-7903571D02*
X42364285Y-8689285D01*
X42292857Y-8832142D01*
X42150000Y-8903571D01*
X41935714Y-8903571D01*
X41792857Y-8832142D01*
X41721428Y-8760714D01*
X41221428Y-7903571D02*
X40650000Y-7903571D01*
X41007142Y-7403571D02*
X41007142Y-8689285D01*
X40935714Y-8832142D01*
X40792857Y-8903571D01*
X40650000Y-8903571D01*
X39578571Y-8832142D02*
X39721428Y-8903571D01*
X40007142Y-8903571D01*
X40150000Y-8832142D01*
X40221428Y-8689285D01*
X40221428Y-8117857D01*
X40150000Y-7975000D01*
X40007142Y-7903571D01*
X39721428Y-7903571D01*
X39578571Y-7975000D01*
X39507142Y-8117857D01*
X39507142Y-8260714D01*
X40221428Y-8403571D01*
X38864285Y-7903571D02*
X38864285Y-8903571D01*
X38864285Y-8046428D02*
X38792857Y-7975000D01*
X38650000Y-7903571D01*
X38435714Y-7903571D01*
X38292857Y-7975000D01*
X38221428Y-8117857D01*
X38221428Y-8903571D01*
X36578571Y-8189285D02*
X36650000Y-8117857D01*
X36792857Y-8046428D01*
X36935714Y-8046428D01*
X37078571Y-8117857D01*
X37150000Y-8189285D01*
X37221428Y-8332142D01*
X37221428Y-8475000D01*
X37150000Y-8617857D01*
X37078571Y-8689285D01*
X36935714Y-8760714D01*
X36792857Y-8760714D01*
X36650000Y-8689285D01*
X36578571Y-8617857D01*
X36578571Y-8046428D02*
X36578571Y-8617857D01*
X36507142Y-8689285D01*
X36435714Y-8689285D01*
X36292857Y-8617857D01*
X36221428Y-8475000D01*
X36221428Y-8117857D01*
X36364285Y-7903571D01*
X36578571Y-7760714D01*
X36864285Y-7689285D01*
X37150000Y-7760714D01*
X37364285Y-7903571D01*
X37507142Y-8117857D01*
X37578571Y-8403571D01*
X37507142Y-8689285D01*
X37364285Y-8903571D01*
X37150000Y-9046428D01*
X36864285Y-9117857D01*
X36578571Y-9046428D01*
X36364285Y-8903571D01*
X34935714Y-7903571D02*
X34935714Y-8903571D01*
X35578571Y-7903571D02*
X35578571Y-8689285D01*
X35507142Y-8832142D01*
X35364285Y-8903571D01*
X35150000Y-8903571D01*
X35007142Y-8832142D01*
X34935714Y-8760714D01*
X34435714Y-7903571D02*
X33864285Y-7903571D01*
X34221428Y-7403571D02*
X34221428Y-8689285D01*
X34150000Y-8832142D01*
X34007142Y-8903571D01*
X33864285Y-8903571D01*
X33507142Y-7903571D02*
X33221428Y-8903571D01*
X32935714Y-8189285D01*
X32650000Y-8903571D01*
X32364285Y-7903571D01*
X31221428Y-8832142D02*
X31364285Y-8903571D01*
X31650000Y-8903571D01*
X31792857Y-8832142D01*
X31864285Y-8689285D01*
X31864285Y-8117857D01*
X31792857Y-7975000D01*
X31650000Y-7903571D01*
X31364285Y-7903571D01*
X31221428Y-7975000D01*
X31150000Y-8117857D01*
X31150000Y-8260714D01*
X31864285Y-8403571D01*
X30507142Y-7903571D02*
X30507142Y-8903571D01*
X30507142Y-8046428D02*
X30435714Y-7975000D01*
X30292857Y-7903571D01*
X30078571Y-7903571D01*
X29935714Y-7975000D01*
X29864285Y-8117857D01*
X29864285Y-8903571D01*
X29364285Y-7903571D02*
X28792857Y-7903571D01*
X29150000Y-7403571D02*
X29150000Y-8689285D01*
X29078571Y-8832142D01*
X28935714Y-8903571D01*
X28792857Y-8903571D01*
X27721428Y-8832142D02*
X27864285Y-8903571D01*
X28150000Y-8903571D01*
X28292857Y-8832142D01*
X28364285Y-8689285D01*
X28364285Y-8117857D01*
X28292857Y-7975000D01*
X28150000Y-7903571D01*
X27864285Y-7903571D01*
X27721428Y-7975000D01*
X27650000Y-8117857D01*
X27650000Y-8260714D01*
X28364285Y-8403571D01*
X27007142Y-8760714D02*
X26935714Y-8832142D01*
X27007142Y-8903571D01*
X27078571Y-8832142D01*
X27007142Y-8760714D01*
X27007142Y-8903571D01*
X26292857Y-7903571D02*
X26292857Y-8903571D01*
X26292857Y-8046428D02*
X26221428Y-7975000D01*
X26078571Y-7903571D01*
X25864285Y-7903571D01*
X25721428Y-7975000D01*
X25650000Y-8117857D01*
X25650000Y-8903571D01*
X24721428Y-8903571D02*
X24864285Y-8832142D01*
X24935714Y-8689285D01*
X24935714Y-7403571D01*
X47435714Y-11453571D02*
X47935714Y-10739285D01*
X48292857Y-11453571D02*
X48292857Y-9953571D01*
X47721428Y-9953571D01*
X47578571Y-10025000D01*
X47507142Y-10096428D01*
X47435714Y-10239285D01*
X47435714Y-10453571D01*
X47507142Y-10596428D01*
X47578571Y-10667857D01*
X47721428Y-10739285D01*
X48292857Y-10739285D01*
X46221428Y-11382142D02*
X46364285Y-11453571D01*
X46650000Y-11453571D01*
X46792857Y-11382142D01*
X46864285Y-11239285D01*
X46864285Y-10667857D01*
X46792857Y-10525000D01*
X46650000Y-10453571D01*
X46364285Y-10453571D01*
X46221428Y-10525000D01*
X46150000Y-10667857D01*
X46150000Y-10810714D01*
X46864285Y-10953571D01*
X45578571Y-11382142D02*
X45435714Y-11453571D01*
X45150000Y-11453571D01*
X45007142Y-11382142D01*
X44935714Y-11239285D01*
X44935714Y-11167857D01*
X45007142Y-11025000D01*
X45150000Y-10953571D01*
X45364285Y-10953571D01*
X45507142Y-10882142D01*
X45578571Y-10739285D01*
X45578571Y-10667857D01*
X45507142Y-10525000D01*
X45364285Y-10453571D01*
X45150000Y-10453571D01*
X45007142Y-10525000D01*
X43721428Y-11382142D02*
X43864285Y-11453571D01*
X44150000Y-11453571D01*
X44292857Y-11382142D01*
X44364285Y-11239285D01*
X44364285Y-10667857D01*
X44292857Y-10525000D01*
X44150000Y-10453571D01*
X43864285Y-10453571D01*
X43721428Y-10525000D01*
X43650000Y-10667857D01*
X43650000Y-10810714D01*
X44364285Y-10953571D01*
X42364285Y-11453571D02*
X42364285Y-10667857D01*
X42435714Y-10525000D01*
X42578571Y-10453571D01*
X42864285Y-10453571D01*
X43007142Y-10525000D01*
X42364285Y-11382142D02*
X42507142Y-11453571D01*
X42864285Y-11453571D01*
X43007142Y-11382142D01*
X43078571Y-11239285D01*
X43078571Y-11096428D01*
X43007142Y-10953571D01*
X42864285Y-10882142D01*
X42507142Y-10882142D01*
X42364285Y-10810714D01*
X41650000Y-11453571D02*
X41650000Y-10453571D01*
X41650000Y-10739285D02*
X41578571Y-10596428D01*
X41507142Y-10525000D01*
X41364285Y-10453571D01*
X41221428Y-10453571D01*
X40078571Y-11382142D02*
X40221428Y-11453571D01*
X40507142Y-11453571D01*
X40650000Y-11382142D01*
X40721428Y-11310714D01*
X40792857Y-11167857D01*
X40792857Y-10739285D01*
X40721428Y-10596428D01*
X40650000Y-10525000D01*
X40507142Y-10453571D01*
X40221428Y-10453571D01*
X40078571Y-10525000D01*
X39435714Y-11453571D02*
X39435714Y-9953571D01*
X38792857Y-11453571D02*
X38792857Y-10667857D01*
X38864285Y-10525000D01*
X39007142Y-10453571D01*
X39221428Y-10453571D01*
X39364285Y-10525000D01*
X39435714Y-10596428D01*
X36721428Y-11453571D02*
X36864285Y-11382142D01*
X36935714Y-11310714D01*
X37007142Y-11167857D01*
X37007142Y-10739285D01*
X36935714Y-10596428D01*
X36864285Y-10525000D01*
X36721428Y-10453571D01*
X36507142Y-10453571D01*
X36364285Y-10525000D01*
X36292857Y-10596428D01*
X36221428Y-10739285D01*
X36221428Y-11167857D01*
X36292857Y-11310714D01*
X36364285Y-11382142D01*
X36507142Y-11453571D01*
X36721428Y-11453571D01*
X35578571Y-10453571D02*
X35578571Y-11453571D01*
X35578571Y-10596428D02*
X35507142Y-10525000D01*
X35364285Y-10453571D01*
X35150000Y-10453571D01*
X35007142Y-10525000D01*
X34935714Y-10667857D01*
X34935714Y-11453571D01*
X34007142Y-11453571D02*
X34150000Y-11382142D01*
X34221428Y-11239285D01*
X34221428Y-9953571D01*
X33578571Y-10453571D02*
X33221428Y-11453571D01*
X32864285Y-10453571D02*
X33221428Y-11453571D01*
X33364285Y-11810714D01*
X33435714Y-11882142D01*
X33578571Y-11953571D01*
X6746428Y-22050000D02*
X6746428Y-21192857D01*
X5246428Y-21621428D02*
X6746428Y-21621428D01*
X5246428Y-20478571D02*
X5317857Y-20621428D01*
X5389285Y-20692857D01*
X5532142Y-20764285D01*
X5960714Y-20764285D01*
X6103571Y-20692857D01*
X6174999Y-20621428D01*
X6246428Y-20478571D01*
X6246428Y-20264285D01*
X6174999Y-20121428D01*
X6103571Y-20050000D01*
X5960714Y-19978571D01*
X5532142Y-19978571D01*
X5389285Y-20050000D01*
X5317857Y-20121428D01*
X5246428Y-20264285D01*
X5246428Y-20478571D01*
X6746428Y-18407142D02*
X6746428Y-17550000D01*
X5246428Y-17978571D02*
X6746428Y-17978571D01*
X5246428Y-17050000D02*
X6246428Y-17050000D01*
X6746428Y-17050000D02*
X6675000Y-17121428D01*
X6603571Y-17050000D01*
X6675000Y-16978571D01*
X6746428Y-17050000D01*
X6603571Y-17050000D01*
X5317857Y-15764285D02*
X5246428Y-15907142D01*
X5246428Y-16192857D01*
X5317857Y-16335714D01*
X5460714Y-16407142D01*
X6032142Y-16407142D01*
X6175000Y-16335714D01*
X6246428Y-16192857D01*
X6246428Y-15907142D01*
X6175000Y-15764285D01*
X6032142Y-15692857D01*
X5889285Y-15692857D01*
X5746428Y-16407142D01*
X5246428Y-15049999D02*
X6746428Y-15050000D01*
X6746428Y-14478571D01*
X6675000Y-14335714D01*
X6603571Y-14264285D01*
X6460714Y-14192857D01*
X6246428Y-14192857D01*
X6103571Y-14264285D01*
X6032142Y-14335714D01*
X5960714Y-14478571D01*
X5960714Y-15050000D01*
X5246428Y-13550000D02*
X6246428Y-13550000D01*
X6746428Y-13550000D02*
X6675000Y-13621428D01*
X6603571Y-13550000D01*
X6675000Y-13478571D01*
X6746428Y-13550000D01*
X6603571Y-13550000D01*
X5317857Y-12264285D02*
X5246428Y-12407142D01*
X5246428Y-12692857D01*
X5317857Y-12835714D01*
X5460714Y-12907142D01*
X6032142Y-12907142D01*
X6175000Y-12835714D01*
X6246428Y-12692857D01*
X6246428Y-12407142D01*
X6175000Y-12264285D01*
X6032142Y-12192857D01*
X5889285Y-12192857D01*
X5746428Y-12907142D01*
X3482142Y-28264285D02*
X3482142Y-27764285D01*
X2696428Y-27550000D02*
X2696428Y-28264285D01*
X4196428Y-28264285D01*
X4196428Y-27550000D01*
X2696428Y-27050000D02*
X3696428Y-26264285D01*
X3696428Y-27050000D02*
X2696428Y-26264285D01*
X3696428Y-25907142D02*
X3696428Y-25335714D01*
X4196428Y-25692857D02*
X2910714Y-25692857D01*
X2767857Y-25621428D01*
X2696428Y-25478571D01*
X2696428Y-25335714D01*
X2767857Y-24264285D02*
X2696428Y-24407142D01*
X2696428Y-24692857D01*
X2767857Y-24835714D01*
X2910714Y-24907142D01*
X3482142Y-24907142D01*
X3624999Y-24835714D01*
X3696428Y-24692857D01*
X3696428Y-24407142D01*
X3624999Y-24264285D01*
X3482142Y-24192857D01*
X3339285Y-24192857D01*
X3196428Y-24907142D01*
X3696428Y-23550000D02*
X2696428Y-23550000D01*
X3553571Y-23550000D02*
X3624999Y-23478571D01*
X3696428Y-23335714D01*
X3696428Y-23121428D01*
X3624999Y-22978571D01*
X3482142Y-22907142D01*
X2696428Y-22907142D01*
X2767857Y-22264285D02*
X2696428Y-22121428D01*
X2696428Y-21835714D01*
X2767857Y-21692857D01*
X2910714Y-21621428D01*
X2982142Y-21621428D01*
X3124999Y-21692857D01*
X3196428Y-21835714D01*
X3196428Y-22050000D01*
X3267857Y-22192857D01*
X3410714Y-22264285D01*
X3482142Y-22264285D01*
X3624999Y-22192857D01*
X3696428Y-22050000D01*
X3696428Y-21835714D01*
X3624999Y-21692857D01*
X2696428Y-20978571D02*
X3696428Y-20978571D01*
X4196428Y-20978571D02*
X4124999Y-21050000D01*
X4053571Y-20978571D01*
X4124999Y-20907142D01*
X4196428Y-20978571D01*
X4053571Y-20978571D01*
X2696428Y-20050000D02*
X2767857Y-20192857D01*
X2839285Y-20264285D01*
X2982142Y-20335714D01*
X3410714Y-20335714D01*
X3553571Y-20264285D01*
X3624999Y-20192857D01*
X3696428Y-20050000D01*
X3696428Y-19835714D01*
X3624999Y-19692857D01*
X3553571Y-19621428D01*
X3410714Y-19550000D01*
X2982142Y-19550000D01*
X2839285Y-19621428D01*
X2767857Y-19692857D01*
X2696428Y-19835714D01*
X2696428Y-20050000D01*
X3696428Y-18907142D02*
X2696428Y-18907142D01*
X3553571Y-18907142D02*
X3624999Y-18835714D01*
X3696428Y-18692857D01*
X3696428Y-18478571D01*
X3625000Y-18335714D01*
X3482142Y-18264285D01*
X2696428Y-18264285D01*
X2839285Y-15550000D02*
X2767857Y-15621428D01*
X2696428Y-15835714D01*
X2696428Y-15978571D01*
X2767857Y-16192857D01*
X2910714Y-16335714D01*
X3053571Y-16407142D01*
X3339285Y-16478571D01*
X3553571Y-16478571D01*
X3839285Y-16407142D01*
X3982142Y-16335714D01*
X4125000Y-16192857D01*
X4196428Y-15978571D01*
X4196428Y-15835714D01*
X4125000Y-15621428D01*
X4053571Y-15550000D01*
X2696428Y-14692857D02*
X2767857Y-14835714D01*
X2839285Y-14907142D01*
X2982142Y-14978571D01*
X3410714Y-14978571D01*
X3553571Y-14907142D01*
X3625000Y-14835714D01*
X3696428Y-14692857D01*
X3696428Y-14478571D01*
X3625000Y-14335714D01*
X3553571Y-14264285D01*
X3410714Y-14192857D01*
X2982142Y-14192857D01*
X2839285Y-14264285D01*
X2767857Y-14335714D01*
X2696428Y-14478571D01*
X2696428Y-14692857D01*
X3696428Y-13550000D02*
X2696428Y-13550000D01*
X3553571Y-13550000D02*
X3625000Y-13478571D01*
X3696428Y-13335714D01*
X3696428Y-13121428D01*
X3625000Y-12978571D01*
X3482142Y-12907142D01*
X2696428Y-12907142D01*
X3696428Y-12192857D02*
X2696428Y-12192857D01*
X3553571Y-12192857D02*
X3625000Y-12121428D01*
X3696428Y-11978571D01*
X3696428Y-11764285D01*
X3625000Y-11621428D01*
X3482142Y-11550000D01*
X2696428Y-11550000D01*
X2767857Y-10264285D02*
X2696428Y-10407142D01*
X2696428Y-10692857D01*
X2767857Y-10835714D01*
X2910714Y-10907142D01*
X3482142Y-10907142D01*
X3625000Y-10835714D01*
X3696428Y-10692857D01*
X3696428Y-10407142D01*
X3625000Y-10264285D01*
X3482142Y-10192857D01*
X3339285Y-10192857D01*
X3196428Y-10907142D01*
X2767857Y-8907142D02*
X2696428Y-9050000D01*
X2696428Y-9335714D01*
X2767857Y-9478571D01*
X2839285Y-9550000D01*
X2982142Y-9621428D01*
X3410714Y-9621428D01*
X3553571Y-9550000D01*
X3625000Y-9478571D01*
X3696428Y-9335714D01*
X3696428Y-9050000D01*
X3625000Y-8907142D01*
X3696428Y-8478571D02*
X3696428Y-7907142D01*
X4196428Y-8264285D02*
X2910714Y-8264285D01*
X2767857Y-8192857D01*
X2696428Y-8050000D01*
X2696428Y-7907142D01*
X2696428Y-7192857D02*
X2767857Y-7335714D01*
X2839285Y-7407142D01*
X2982142Y-7478571D01*
X3410714Y-7478571D01*
X3553571Y-7407142D01*
X3625000Y-7335714D01*
X3696428Y-7192857D01*
X3696428Y-6978571D01*
X3625000Y-6835714D01*
X3553571Y-6764285D01*
X3410714Y-6692857D01*
X2982142Y-6692857D01*
X2839285Y-6764285D01*
X2767857Y-6835714D01*
X2696428Y-6978571D01*
X2696428Y-7192857D01*
X2696428Y-6050000D02*
X3696428Y-6050000D01*
X3410714Y-6050000D02*
X3553571Y-5978571D01*
X3625000Y-5907142D01*
X3696428Y-5764285D01*
X3696428Y-5621428D01*
X125228571Y-45728571D02*
X124942857Y-45728571D01*
X124800000Y-45800000D01*
X124657142Y-45942857D01*
X124585714Y-46228571D01*
X124585714Y-46728571D01*
X124657142Y-47014285D01*
X124800000Y-47157142D01*
X124942857Y-47228571D01*
X125228571Y-47228571D01*
X125371428Y-47157142D01*
X125514285Y-47014285D01*
X125585714Y-46728571D01*
X125585714Y-46228571D01*
X125514285Y-45942857D01*
X125371428Y-45800000D01*
X125228571Y-45728571D01*
X123442857Y-46442857D02*
X123942857Y-46442857D01*
X123942857Y-47228571D02*
X123942857Y-45728571D01*
X123228571Y-45728571D01*
X122157142Y-46442857D02*
X122657142Y-46442857D01*
X122657142Y-47228571D02*
X122657142Y-45728571D01*
X121942857Y-45728571D01*
X138478571Y-45678571D02*
X138192857Y-45678571D01*
X138050000Y-45750000D01*
X137907142Y-45892857D01*
X137835714Y-46178571D01*
X137835714Y-46678571D01*
X137907142Y-46964285D01*
X138050000Y-47107142D01*
X138192857Y-47178571D01*
X138478571Y-47178571D01*
X138621428Y-47107142D01*
X138764285Y-46964285D01*
X138835714Y-46678571D01*
X138835714Y-46178571D01*
X138764285Y-45892857D01*
X138621428Y-45750000D01*
X138478571Y-45678571D01*
X137192857Y-47178571D02*
X137192857Y-45678571D01*
X136335714Y-47178571D01*
X136335714Y-45678571D01*
D11*
X134865000Y-26014285D02*
X134865000Y-28109523D01*
X137404761Y-26490476D02*
X135404761Y-26490476D01*
X136357142Y-26490476D02*
X136357142Y-27633333D01*
X137404761Y-27633333D02*
X135404761Y-27633333D01*
X134865000Y-28109523D02*
X134865000Y-29823809D01*
X137309523Y-29442857D02*
X137404761Y-29252380D01*
X137404761Y-28871428D01*
X137309523Y-28680952D01*
X137214285Y-28585714D01*
X137023809Y-28490476D01*
X136452380Y-28490476D01*
X136261904Y-28585714D01*
X136166666Y-28680952D01*
X136071428Y-28871428D01*
X136071428Y-29252380D01*
X136166666Y-29442857D01*
X134865000Y-29823809D02*
X134865000Y-31633333D01*
X136071428Y-31157142D02*
X137404761Y-31157142D01*
X136071428Y-30300000D02*
X137119047Y-30300000D01*
X137309523Y-30395238D01*
X137404761Y-30585714D01*
X137404761Y-30871428D01*
X137309523Y-31061904D01*
X137214285Y-31157142D01*
X134865000Y-31633333D02*
X134865000Y-32871428D01*
X137404761Y-32109523D02*
X136071428Y-32109523D01*
X136452380Y-32109523D02*
X136261904Y-32204761D01*
X136166666Y-32300000D01*
X136071428Y-32490476D01*
X136071428Y-32680952D01*
X134865000Y-32871428D02*
X134865000Y-34585714D01*
X135404761Y-33061904D02*
X137404761Y-33728571D01*
X135404761Y-34395238D01*
X137404761Y-4190476D02*
X135404761Y-4190476D01*
X136357142Y-4190476D02*
X136357142Y-5333333D01*
X137404761Y-5333333D02*
X135404761Y-5333333D01*
X137309523Y-7142857D02*
X137404761Y-6952380D01*
X137404761Y-6571428D01*
X137309523Y-6380952D01*
X137214285Y-6285714D01*
X137023809Y-6190476D01*
X136452380Y-6190476D01*
X136261904Y-6285714D01*
X136166666Y-6380952D01*
X136071428Y-6571428D01*
X136071428Y-6952380D01*
X136166666Y-7142857D01*
X136071428Y-8857142D02*
X137404761Y-8857142D01*
X136071428Y-8000000D02*
X137119047Y-8000000D01*
X137309523Y-8095238D01*
X137404761Y-8285714D01*
X137404761Y-8571428D01*
X137309523Y-8761904D01*
X137214285Y-8857142D01*
X137404761Y-9809523D02*
X136071428Y-9809523D01*
X136452380Y-9809523D02*
X136261904Y-9904761D01*
X136166666Y-10000000D01*
X136071428Y-10190476D01*
X136071428Y-10380952D01*
X135404761Y-10761904D02*
X137404761Y-11428571D01*
X135404761Y-12095238D01*
X92328571Y-46904761D02*
X92328571Y-44904761D01*
X92328571Y-45857142D02*
X91185714Y-45857142D01*
X91185714Y-46904761D02*
X91185714Y-44904761D01*
X89376190Y-46809523D02*
X89566666Y-46904761D01*
X89947619Y-46904761D01*
X90138095Y-46809523D01*
X90233333Y-46714285D01*
X90328571Y-46523809D01*
X90328571Y-45952380D01*
X90233333Y-45761904D01*
X90138095Y-45666666D01*
X89947619Y-45571428D01*
X89566666Y-45571428D01*
X89376190Y-45666666D01*
X87661904Y-45571428D02*
X87661904Y-46904761D01*
X88519047Y-45571428D02*
X88519047Y-46619047D01*
X88423809Y-46809523D01*
X88233333Y-46904761D01*
X87947619Y-46904761D01*
X87757142Y-46809523D01*
X87661904Y-46714285D01*
X86709523Y-46904761D02*
X86709523Y-45571428D01*
X86709523Y-45952380D02*
X86614285Y-45761904D01*
X86519047Y-45666666D01*
X86328571Y-45571428D01*
X86138095Y-45571428D01*
X85471428Y-46904761D02*
X85471428Y-44904761D01*
X68152380Y-46904761D02*
X68152380Y-44904761D01*
X68152380Y-45857142D02*
X67009523Y-45857142D01*
X67009523Y-46904761D02*
X67009523Y-44904761D01*
X66057142Y-45571428D02*
X66057142Y-47571428D01*
X66057142Y-45666666D02*
X65866666Y-45571428D01*
X65485714Y-45571428D01*
X65295238Y-45666666D01*
X65200000Y-45761904D01*
X65104761Y-45952380D01*
X65104761Y-46523809D01*
X65200000Y-46714285D01*
X65295238Y-46809523D01*
X65485714Y-46904761D01*
X65866666Y-46904761D01*
X66057142Y-46809523D01*
X63961904Y-46904761D02*
X64152380Y-46809523D01*
X64247619Y-46714285D01*
X64342857Y-46523809D01*
X64342857Y-45952380D01*
X64247619Y-45761904D01*
X64152380Y-45666666D01*
X63961904Y-45571428D01*
X63676190Y-45571428D01*
X63485714Y-45666666D01*
X63390476Y-45761904D01*
X63295238Y-45952380D01*
X63295238Y-46523809D01*
X63390476Y-46714285D01*
X63485714Y-46809523D01*
X63676190Y-46904761D01*
X63961904Y-46904761D01*
X62723809Y-45571428D02*
X61961904Y-45571428D01*
X62438095Y-44904761D02*
X62438095Y-46619047D01*
X62342857Y-46809523D01*
X62152380Y-46904761D01*
X61961904Y-46904761D01*
X18561904Y-46904761D02*
X19514285Y-46904761D01*
X19514285Y-44904761D01*
X17038095Y-46809523D02*
X17228571Y-46904761D01*
X17609523Y-46904761D01*
X17800000Y-46809523D01*
X17895238Y-46714285D01*
X17990476Y-46523809D01*
X17990476Y-45952380D01*
X17895238Y-45761904D01*
X17800000Y-45666666D01*
X17609523Y-45571428D01*
X17228571Y-45571428D01*
X17038095Y-45666666D01*
X15323809Y-45571428D02*
X15323809Y-46904761D01*
X16180952Y-45571428D02*
X16180952Y-46619047D01*
X16085714Y-46809523D01*
X15895238Y-46904761D01*
X15609523Y-46904761D01*
X15419047Y-46809523D01*
X15323809Y-46714285D01*
X14371428Y-46904761D02*
X14371428Y-45571428D01*
X14371428Y-45952380D02*
X14276190Y-45761904D01*
X14180952Y-45666666D01*
X13990476Y-45571428D01*
X13800000Y-45571428D01*
X43061904Y-46904761D02*
X44014285Y-46904761D01*
X44014285Y-44904761D01*
X42395238Y-45571428D02*
X42395238Y-47571428D01*
X42395238Y-45666666D02*
X42204761Y-45571428D01*
X41823809Y-45571428D01*
X41633333Y-45666666D01*
X41538095Y-45761904D01*
X41442857Y-45952380D01*
X41442857Y-46523809D01*
X41538095Y-46714285D01*
X41633333Y-46809523D01*
X41823809Y-46904761D01*
X42204761Y-46904761D01*
X42395238Y-46809523D01*
X40300000Y-46904761D02*
X40490476Y-46809523D01*
X40585714Y-46714285D01*
X40680952Y-46523809D01*
X40680952Y-45952380D01*
X40585714Y-45761904D01*
X40490476Y-45666666D01*
X40300000Y-45571428D01*
X40014285Y-45571428D01*
X39823809Y-45666666D01*
X39728571Y-45761904D01*
X39633333Y-45952380D01*
X39633333Y-46523809D01*
X39728571Y-46714285D01*
X39823809Y-46809523D01*
X40014285Y-46904761D01*
X40300000Y-46904761D01*
X39061904Y-45571428D02*
X38300000Y-45571428D01*
X38776190Y-44904761D02*
X38776190Y-46619047D01*
X38680952Y-46809523D01*
X38490476Y-46904761D01*
X38300000Y-46904761D01*
X113571428Y-4000000D02*
X113380952Y-4095238D01*
X113095238Y-4095238D01*
X112809523Y-4000000D01*
X112619047Y-3809523D01*
X112523809Y-3619047D01*
X112428571Y-3238095D01*
X112428571Y-2952380D01*
X112523809Y-2571428D01*
X112619047Y-2380952D01*
X112809523Y-2190476D01*
X113095238Y-2095238D01*
X113285714Y-2095238D01*
X113571428Y-2190476D01*
X113666666Y-2285714D01*
X113666666Y-2952380D01*
X113285714Y-2952380D01*
X114523809Y-3142857D02*
X115190476Y-3142857D01*
X115476190Y-2095238D02*
X114523809Y-2095238D01*
X114523809Y-4095238D01*
X115476190Y-4095238D01*
X116333333Y-2095238D02*
X116333333Y-4095238D01*
X117476190Y-2095238D01*
X117476190Y-4095238D01*
X117504761Y-44365000D02*
X115409523Y-44365000D01*
X117028571Y-46904761D02*
X117028571Y-44904761D01*
X117028571Y-45857142D02*
X115885714Y-45857142D01*
X115885714Y-46904761D02*
X115885714Y-44904761D01*
X115409523Y-44365000D02*
X113695238Y-44365000D01*
X114076190Y-46809523D02*
X114266666Y-46904761D01*
X114647619Y-46904761D01*
X114838095Y-46809523D01*
X114933333Y-46714285D01*
X115028571Y-46523809D01*
X115028571Y-45952380D01*
X114933333Y-45761904D01*
X114838095Y-45666666D01*
X114647619Y-45571428D01*
X114266666Y-45571428D01*
X114076190Y-45666666D01*
X113695238Y-44365000D02*
X111885714Y-44365000D01*
X112361904Y-45571428D02*
X112361904Y-46904761D01*
X113219047Y-45571428D02*
X113219047Y-46619047D01*
X113123809Y-46809523D01*
X112933333Y-46904761D01*
X112647619Y-46904761D01*
X112457142Y-46809523D01*
X112361904Y-46714285D01*
X111885714Y-44365000D02*
X110647619Y-44365000D01*
X111409523Y-46904761D02*
X111409523Y-45571428D01*
X111409523Y-45952380D02*
X111314285Y-45761904D01*
X111219047Y-45666666D01*
X111028571Y-45571428D01*
X110838095Y-45571428D01*
X110647619Y-44365000D02*
X109695238Y-44365000D01*
X110171428Y-46904761D02*
X110171428Y-44904761D01*
X13719047Y-2285714D02*
X13623809Y-2190476D01*
X13338095Y-2095238D01*
X13147619Y-2095238D01*
X12861904Y-2190476D01*
X12671428Y-2380952D01*
X12576190Y-2571428D01*
X12480952Y-2952380D01*
X12480952Y-3238095D01*
X12576190Y-3619047D01*
X12671428Y-3809523D01*
X12861904Y-4000000D01*
X13147619Y-4095238D01*
X13338095Y-4095238D01*
X13623809Y-4000000D01*
X13719047Y-3904761D01*
X14576190Y-2095238D02*
X14576190Y-4095238D01*
X14576190Y-3142857D02*
X15719047Y-3142857D01*
X15719047Y-2095238D02*
X15719047Y-4095238D01*
X17719047Y-2095238D02*
X16576190Y-2095238D01*
X17147619Y-2095238D02*
X17147619Y-4095238D01*
X16957142Y-3809523D01*
X16766666Y-3619047D01*
X16576190Y-3523809D01*
X63619047Y-2285714D02*
X63523809Y-2190476D01*
X63238095Y-2095238D01*
X63047619Y-2095238D01*
X62761904Y-2190476D01*
X62571428Y-2380952D01*
X62476190Y-2571428D01*
X62380952Y-2952380D01*
X62380952Y-3238095D01*
X62476190Y-3619047D01*
X62571428Y-3809523D01*
X62761904Y-4000000D01*
X63047619Y-4095238D01*
X63238095Y-4095238D01*
X63523809Y-4000000D01*
X63619047Y-3904761D01*
X64476190Y-2095238D02*
X64476190Y-4095238D01*
X64476190Y-3142857D02*
X65619047Y-3142857D01*
X65619047Y-2095238D02*
X65619047Y-4095238D01*
X66476190Y-3904761D02*
X66571428Y-4000000D01*
X66761904Y-4095238D01*
X67238095Y-4095238D01*
X67428571Y-4000000D01*
X67523809Y-3904761D01*
X67619047Y-3714285D01*
X67619047Y-3523809D01*
X67523809Y-3238095D01*
X66380952Y-2095238D01*
X67619047Y-2095238D01*
D12*
X6265000Y-39528733D02*
X6265000Y-39871267D01*
X7285000Y-39528733D02*
X7285000Y-39871267D01*
X69965000Y-21228733D02*
X69965000Y-21571267D01*
X70985000Y-21228733D02*
X70985000Y-21571267D01*
X73185000Y-34028733D02*
X73185000Y-34371267D01*
X72165000Y-34028733D02*
X72165000Y-34371267D01*
X70212221Y-32310000D02*
X70537779Y-32310000D01*
X70212221Y-31290000D02*
X70537779Y-31290000D01*
X95546267Y-23890000D02*
X95203733Y-23890000D01*
X95546267Y-24910000D02*
X95203733Y-24910000D01*
X49085000Y-34128733D02*
X49085000Y-34471267D01*
X48065000Y-34128733D02*
X48065000Y-34471267D01*
D11*
X-3975000Y-39125000D02*
X-3975000Y-39350000D01*
X-8625000Y-39125000D02*
X-8625000Y-39450000D01*
X-8625000Y-49075000D02*
X-8625000Y-48750000D01*
X-3975000Y-49075000D02*
X-3975000Y-48750000D01*
X-3975000Y-39125000D02*
X-8625000Y-39125000D01*
X-3975000Y-49075000D02*
X-8625000Y-49075000D01*
X-3975000Y-39350000D02*
X-2900000Y-39350000D01*
D12*
X-9435000Y-23700000D02*
X-9435000Y-21250000D01*
X-6215000Y-21900000D02*
X-6215000Y-23700000D01*
X43646267Y-28290000D02*
X43303733Y-28290000D01*
X43646267Y-29310000D02*
X43303733Y-29310000D01*
X13721267Y-10260000D02*
X13378733Y-10260000D01*
X13721267Y-9240000D02*
X13378733Y-9240000D01*
X-8096267Y-26010000D02*
X-7753733Y-26010000D01*
X-8096267Y-24990000D02*
X-7753733Y-24990000D01*
X-7203733Y-19615000D02*
X-7546267Y-19615000D01*
X-7203733Y-20635000D02*
X-7546267Y-20635000D01*
X45071267Y-38190000D02*
X44728733Y-38190000D01*
X45071267Y-39210000D02*
X44728733Y-39210000D01*
X68528733Y-38290000D02*
X68871267Y-38290000D01*
X68528733Y-39310000D02*
X68871267Y-39310000D01*
X44585000Y-34471267D02*
X44585000Y-34128733D01*
X43565000Y-34471267D02*
X43565000Y-34128733D01*
X67665000Y-34371267D02*
X67665000Y-34028733D01*
X68685000Y-34371267D02*
X68685000Y-34028733D01*
X70646267Y-29790000D02*
X70303733Y-29790000D01*
X70646267Y-30810000D02*
X70303733Y-30810000D01*
X57210000Y-38271267D02*
X57210000Y-37928733D01*
X56190000Y-38271267D02*
X56190000Y-37928733D01*
X65546267Y-29310000D02*
X65203733Y-29310000D01*
X65546267Y-28290000D02*
X65203733Y-28290000D01*
X54171267Y-36060000D02*
X53828733Y-36060000D01*
X54171267Y-35040000D02*
X53828733Y-35040000D01*
X49246267Y-21790000D02*
X48903733Y-21790000D01*
X49246267Y-22810000D02*
X48903733Y-22810000D01*
X63971267Y-10210000D02*
X63628733Y-10210000D01*
X63971267Y-9190000D02*
X63628733Y-9190000D01*
X57410000Y-21428733D02*
X57410000Y-21771267D01*
X56390000Y-21428733D02*
X56390000Y-21771267D01*
X61735000Y-23946267D02*
X61735000Y-23603733D01*
X60715000Y-23946267D02*
X60715000Y-23603733D01*
X19971267Y-32760000D02*
X19628733Y-32760000D01*
X19971267Y-31740000D02*
X19628733Y-31740000D01*
X13810000Y-30928733D02*
X13810000Y-31271267D01*
X12790000Y-30928733D02*
X12790000Y-31271267D01*
X10721267Y-31790000D02*
X10378733Y-31790000D01*
X10721267Y-32810000D02*
X10378733Y-32810000D01*
X32560000Y-29928733D02*
X32560000Y-30271267D01*
X31540000Y-29928733D02*
X31540000Y-30271267D01*
X29771267Y-32510000D02*
X29428733Y-32510000D01*
X29771267Y-31490000D02*
X29428733Y-31490000D01*
X22710000Y-30828733D02*
X22710000Y-31171267D01*
X21690000Y-30828733D02*
X21690000Y-31171267D01*
X18403733Y-39190000D02*
X18746267Y-39190000D01*
X18403733Y-40210000D02*
X18746267Y-40210000D01*
X31810000Y-39771267D02*
X31810000Y-39428733D01*
X30790000Y-39771267D02*
X30790000Y-39428733D01*
X25810000Y-39671267D02*
X25810000Y-39328733D01*
X24790000Y-39671267D02*
X24790000Y-39328733D01*
X93371267Y-38140000D02*
X93028733Y-38140000D01*
X93371267Y-39160000D02*
X93028733Y-39160000D01*
X103735000Y-23553733D02*
X103735000Y-23896267D01*
X102715000Y-23553733D02*
X102715000Y-23896267D01*
X97446267Y-28390000D02*
X97103733Y-28390000D01*
X97446267Y-29410000D02*
X97103733Y-29410000D01*
X104190000Y-38621267D02*
X104190000Y-38278733D01*
X105210000Y-38621267D02*
X105210000Y-38278733D01*
X101971267Y-35090000D02*
X101628733Y-35090000D01*
X101971267Y-36110000D02*
X101628733Y-36110000D01*
X105085000Y-31128733D02*
X105085000Y-31471267D01*
X104065000Y-31128733D02*
X104065000Y-31471267D01*
X113203733Y-9040000D02*
X113546267Y-9040000D01*
X113203733Y-10060000D02*
X113546267Y-10060000D01*
X128965000Y-5928733D02*
X128965000Y-6271267D01*
X129985000Y-5928733D02*
X129985000Y-6271267D01*
X110303733Y-15810000D02*
X110646267Y-15810000D01*
X110303733Y-14790000D02*
X110646267Y-14790000D01*
X105565000Y-17971267D02*
X105565000Y-17628733D01*
X106585000Y-17971267D02*
X106585000Y-17628733D01*
X120015000Y-23278733D02*
X120015000Y-23621267D01*
X121035000Y-23278733D02*
X121035000Y-23621267D01*
X114746267Y-29210000D02*
X114403733Y-29210000D01*
X114746267Y-28190000D02*
X114403733Y-28190000D01*
X117771267Y-39210000D02*
X117428733Y-39210000D01*
X117771267Y-38190000D02*
X117428733Y-38190000D01*
D13*
X14640000Y-11050000D02*
G75*
G03X14640000Y-11050000I-50000J0D01*
G01*
X68560000Y-37000000D02*
G75*
G03X68560000Y-37000000I-50000J0D01*
G01*
X46440000Y-37000000D02*
G75*
G03X46440000Y-37000000I-50000J0D01*
G01*
X64940000Y-10900000D02*
G75*
G03X64940000Y-10900000I-50000J0D01*
G01*
X89560000Y-38300000D02*
G75*
G03X89560000Y-38300000I-50000J0D01*
G01*
X94940000Y-37100000D02*
G75*
G03X94940000Y-37100000I-50000J0D01*
G01*
X114365000Y-11125000D02*
G75*
G03X114365000Y-11125000I-50000J0D01*
G01*
X128300000Y-6965000D02*
G75*
G03X128300000Y-6965000I-50000J0D01*
G01*
X119040000Y-37000000D02*
G75*
G03X119040000Y-37000000I-50000J0D01*
G01*
X113760000Y-38400000D02*
G75*
G03X113760000Y-38400000I-50000J0D01*
G01*
D12*
X134195000Y-39215000D02*
X135125000Y-39215000D01*
X137355000Y-39215000D02*
X136425000Y-39215000D01*
X137355000Y-39215000D02*
X137355000Y-41375000D01*
X134195000Y-39215000D02*
X134195000Y-40675000D01*
X126940000Y-41230000D02*
X128400000Y-41230000D01*
X126940000Y-38070000D02*
X129100000Y-38070000D01*
X126940000Y-38070000D02*
X126940000Y-39000000D01*
X126940000Y-41230000D02*
X126940000Y-40300000D01*
X68337779Y-22810000D02*
X68012221Y-22810000D01*
X68337779Y-21790000D02*
X68012221Y-21790000D01*
X46037779Y-21790000D02*
X45712221Y-21790000D01*
X46037779Y-22810000D02*
X45712221Y-22810000D01*
X64912221Y-21710000D02*
X65237779Y-21710000D01*
X64912221Y-20690000D02*
X65237779Y-20690000D01*
X54262779Y-26560000D02*
X53937221Y-26560000D01*
X54262779Y-25540000D02*
X53937221Y-25540000D01*
X57412779Y-27140000D02*
X57087221Y-27140000D01*
X57412779Y-28160000D02*
X57087221Y-28160000D01*
X60210000Y-21537221D02*
X60210000Y-21862779D01*
X59190000Y-21537221D02*
X59190000Y-21862779D01*
X1237221Y-41690000D02*
X1562779Y-41690000D01*
X1237221Y-42710000D02*
X1562779Y-42710000D01*
X13810000Y-28062779D02*
X13810000Y-27737221D01*
X12790000Y-28062779D02*
X12790000Y-27737221D01*
X11502064Y-25560000D02*
X10297936Y-25560000D01*
X11502064Y-23740000D02*
X10297936Y-23740000D01*
X28502064Y-23890000D02*
X27297936Y-23890000D01*
X28502064Y-25710000D02*
X27297936Y-25710000D01*
X20147936Y-25960000D02*
X21352064Y-25960000D01*
X20147936Y-24140000D02*
X21352064Y-24140000D01*
X22390000Y-27962779D02*
X22390000Y-27637221D01*
X23410000Y-27962779D02*
X23410000Y-27637221D01*
X30562779Y-26290000D02*
X30237221Y-26290000D01*
X30562779Y-27310000D02*
X30237221Y-27310000D01*
X137330000Y-37310000D02*
X137330000Y-35850000D01*
X134170000Y-37310000D02*
X134170000Y-35150000D01*
X134170000Y-37310000D02*
X135100000Y-37310000D01*
X137330000Y-37310000D02*
X136400000Y-37310000D01*
X123315000Y-39830000D02*
X124775000Y-39830000D01*
X123315000Y-36670000D02*
X125475000Y-36670000D01*
X123315000Y-36670000D02*
X123315000Y-37600000D01*
X123315000Y-39830000D02*
X123315000Y-38900000D01*
X67165000Y-26300000D02*
X67165000Y-24800000D01*
X67165000Y-26300000D02*
X67165000Y-27800000D01*
X70385000Y-26300000D02*
X70385000Y-24800000D01*
X70385000Y-26300000D02*
X70385000Y-29225000D01*
X45265000Y-26400000D02*
X45265000Y-24900000D01*
X45265000Y-26400000D02*
X45265000Y-27900000D01*
X48485000Y-26400000D02*
X48485000Y-24900000D01*
X48485000Y-26400000D02*
X48485000Y-29325000D01*
X53100000Y-36490000D02*
X55550000Y-36490000D01*
X54900000Y-39710000D02*
X53100000Y-39710000D01*
X27600000Y-38090000D02*
X30050000Y-38090000D01*
X29400000Y-41310000D02*
X27600000Y-41310000D01*
X102335000Y-26625000D02*
X102335000Y-29550000D01*
X102335000Y-26625000D02*
X102335000Y-25125000D01*
X99115000Y-26625000D02*
X99115000Y-28125000D01*
X99115000Y-26625000D02*
X99115000Y-25125000D01*
X100900000Y-36640000D02*
X103350000Y-36640000D01*
X102700000Y-39860000D02*
X100900000Y-39860000D01*
X119585000Y-26400000D02*
X119585000Y-29325000D01*
X119585000Y-26400000D02*
X119585000Y-24900000D01*
X116365000Y-26400000D02*
X116365000Y-27900000D01*
X116365000Y-26400000D02*
X116365000Y-24900000D01*
X3128733Y-36390000D02*
X3471267Y-36390000D01*
X3128733Y-37410000D02*
X3471267Y-37410000D01*
X885000Y-38571267D02*
X885000Y-38228733D01*
X-135000Y-38571267D02*
X-135000Y-38228733D01*
X4475000Y-41110000D02*
X1525000Y-41110000D01*
X2675000Y-37890000D02*
X4475000Y-37890000D01*
X10500000Y-31310000D02*
X8700000Y-31310000D01*
X8700000Y-28090000D02*
X11650000Y-28090000D01*
X29800000Y-31010000D02*
X28000000Y-31010000D01*
X28000000Y-27790000D02*
X30950000Y-27790000D01*
X110175000Y-19510000D02*
X107225000Y-19510000D01*
X108375000Y-16290000D02*
X110175000Y-16290000D01*
X19950000Y-31260000D02*
X18150000Y-31260000D01*
X18150000Y-28040000D02*
X21100000Y-28040000D01*
X129040000Y-32728733D02*
X129040000Y-33071267D01*
X130060000Y-32728733D02*
X130060000Y-33071267D01*
X133610000Y-37180000D02*
X130890000Y-37180000D01*
X130890000Y-37180000D02*
X130890000Y-32200000D01*
X133610000Y-37180000D02*
X133610000Y-32200000D01*
X122090000Y-28170000D02*
X122090000Y-33150000D01*
X124810000Y-28170000D02*
X124810000Y-33150000D01*
X122090000Y-28170000D02*
X124810000Y-28170000D01*
D13*
X64960000Y-38550000D02*
G75*
G03X64960000Y-38550000I-50000J0D01*
G01*
X43190000Y-38250000D02*
G75*
G03X43190000Y-38250000I-50000J0D01*
G01*
X17635000Y-38475000D02*
G75*
G03X17635000Y-38475000I-50000J0D01*
G01*
D12*
X117400000Y-17025000D02*
X115700000Y-17025000D01*
X115700000Y-17025000D02*
X115700000Y-14475000D01*
X117400000Y-17025000D02*
X117400000Y-14475000D01*
X117700000Y-15550000D02*
X120250000Y-15550000D01*
X117700000Y-13850000D02*
X120250000Y-13850000D01*
X117700000Y-15550000D02*
X117700000Y-13850000D01*
D13*
X128350000Y-34090000D02*
G75*
G03X128350000Y-34090000I-50000J0D01*
G01*
D12*
X65262779Y-12910000D02*
X64937221Y-12910000D01*
X65262779Y-11890000D02*
X64937221Y-11890000D01*
X58950000Y-26710000D02*
X57150000Y-26710000D01*
X57150000Y-23490000D02*
X60100000Y-23490000D01*
X13721267Y-8760000D02*
X13378733Y-8760000D01*
X13721267Y-7740000D02*
X13378733Y-7740000D01*
X127821267Y-43010000D02*
X127478733Y-43010000D01*
X127821267Y-41990000D02*
X127478733Y-41990000D01*
X138860000Y-36746267D02*
X138860000Y-36403733D01*
X137840000Y-36746267D02*
X137840000Y-36403733D01*
X124296267Y-41435000D02*
X123953733Y-41435000D01*
X124296267Y-40415000D02*
X123953733Y-40415000D01*
X-1915000Y-37471267D02*
X-1915000Y-37128733D01*
X-2935000Y-37471267D02*
X-2935000Y-37128733D01*
X-5096267Y-38010000D02*
X-4753733Y-38010000D01*
X-5096267Y-36990000D02*
X-4753733Y-36990000D01*
X-8153733Y-38010000D02*
X-8496267Y-38010000D01*
X-8153733Y-36990000D02*
X-8496267Y-36990000D01*
X137865000Y-40196267D02*
X137865000Y-39853733D01*
X138885000Y-40196267D02*
X138885000Y-39853733D01*
X128071267Y-37610000D02*
X127728733Y-37610000D01*
X128071267Y-36590000D02*
X127728733Y-36590000D01*
X43085000Y-34471267D02*
X43085000Y-34128733D01*
X42065000Y-34471267D02*
X42065000Y-34128733D01*
X40365000Y-34128733D02*
X40365000Y-34471267D01*
X41385000Y-34128733D02*
X41385000Y-34471267D01*
X65185000Y-34028733D02*
X65185000Y-34371267D01*
X64165000Y-34028733D02*
X64165000Y-34371267D01*
X67185000Y-34371267D02*
X67185000Y-34028733D01*
X66165000Y-34371267D02*
X66165000Y-34028733D01*
X63971267Y-7690000D02*
X63628733Y-7690000D01*
X63971267Y-8710000D02*
X63628733Y-8710000D01*
X4378733Y-42710000D02*
X4721267Y-42710000D01*
X4378733Y-41690000D02*
X4721267Y-41690000D01*
X6946267Y-25910000D02*
X6603733Y-25910000D01*
X6946267Y-24890000D02*
X6603733Y-24890000D01*
X6960000Y-30321267D02*
X6960000Y-29978733D01*
X5940000Y-30321267D02*
X5940000Y-29978733D01*
X16428733Y-25960000D02*
X16771267Y-25960000D01*
X16428733Y-24940000D02*
X16771267Y-24940000D01*
X15390000Y-29971267D02*
X15390000Y-29628733D01*
X16410000Y-29971267D02*
X16410000Y-29628733D01*
X26210000Y-29571267D02*
X26210000Y-29228733D01*
X25190000Y-29571267D02*
X25190000Y-29228733D01*
X88285000Y-34128733D02*
X88285000Y-34471267D01*
X87265000Y-34128733D02*
X87265000Y-34471267D01*
X93565000Y-34128733D02*
X93565000Y-34471267D01*
X94585000Y-34128733D02*
X94585000Y-34471267D01*
X90565000Y-34471267D02*
X90565000Y-34128733D01*
X91585000Y-34471267D02*
X91585000Y-34128733D01*
X88765000Y-34128733D02*
X88765000Y-34471267D01*
X89785000Y-34128733D02*
X89785000Y-34471267D01*
X100403733Y-20590000D02*
X100746267Y-20590000D01*
X100403733Y-21610000D02*
X100746267Y-21610000D01*
X100746267Y-19090000D02*
X100403733Y-19090000D01*
X100746267Y-20110000D02*
X100403733Y-20110000D01*
X95546267Y-25590000D02*
X95203733Y-25590000D01*
X95546267Y-26610000D02*
X95203733Y-26610000D01*
X102665000Y-20571267D02*
X102665000Y-20228733D01*
X103685000Y-20571267D02*
X103685000Y-20228733D01*
X114485000Y-19371267D02*
X114485000Y-19028733D01*
X113465000Y-19371267D02*
X113465000Y-19028733D01*
X113203733Y-17310000D02*
X113546267Y-17310000D01*
X113203733Y-16290000D02*
X113546267Y-16290000D01*
X109053733Y-21440000D02*
X109396267Y-21440000D01*
X109053733Y-22460000D02*
X109396267Y-22460000D01*
X113465000Y-25171267D02*
X113465000Y-24828733D01*
X114485000Y-25171267D02*
X114485000Y-24828733D01*
X117703733Y-19910000D02*
X118046267Y-19910000D01*
X117703733Y-18890000D02*
X118046267Y-18890000D01*
X111965000Y-25171267D02*
X111965000Y-24828733D01*
X112985000Y-25171267D02*
X112985000Y-24828733D01*
X118046267Y-20390000D02*
X117703733Y-20390000D01*
X118046267Y-21410000D02*
X117703733Y-21410000D01*
X118085000Y-34128733D02*
X118085000Y-34471267D01*
X117065000Y-34128733D02*
X117065000Y-34471267D01*
X115565000Y-34471267D02*
X115565000Y-34128733D01*
X116585000Y-34471267D02*
X116585000Y-34128733D01*
X113285000Y-34471267D02*
X113285000Y-34128733D01*
X112265000Y-34471267D02*
X112265000Y-34128733D01*
X110765000Y-34128733D02*
X110765000Y-34471267D01*
X111785000Y-34128733D02*
X111785000Y-34471267D01*
X118037779Y-17415000D02*
X117712221Y-17415000D01*
X118037779Y-18435000D02*
X117712221Y-18435000D01*
X50515000Y-38271267D02*
X50515000Y-37928733D01*
X51535000Y-38271267D02*
X51535000Y-37928733D01*
X99410000Y-38371267D02*
X99410000Y-38028733D01*
X98390000Y-38371267D02*
X98390000Y-38028733D01*
X3927064Y-2540000D02*
X2722936Y-2540000D01*
X3927064Y-4360000D02*
X2722936Y-4360000D01*
X48103733Y-29890000D02*
X48446267Y-29890000D01*
X48103733Y-30910000D02*
X48446267Y-30910000D01*
X64803733Y-23210000D02*
X65146267Y-23210000D01*
X64803733Y-22190000D02*
X65146267Y-22190000D01*
X46046267Y-20290000D02*
X45703733Y-20290000D01*
X46046267Y-21310000D02*
X45703733Y-21310000D01*
X63846267Y-25290000D02*
X63503733Y-25290000D01*
X63846267Y-26310000D02*
X63503733Y-26310000D01*
X57446267Y-29710000D02*
X57103733Y-29710000D01*
X57446267Y-28690000D02*
X57103733Y-28690000D01*
X10721267Y-26340000D02*
X10378733Y-26340000D01*
X10721267Y-27360000D02*
X10378733Y-27360000D01*
X4128733Y-43190000D02*
X4471267Y-43190000D01*
X4128733Y-44210000D02*
X4471267Y-44210000D01*
X7765000Y-39528733D02*
X7765000Y-39871267D01*
X8785000Y-39528733D02*
X8785000Y-39871267D01*
X6946267Y-27410000D02*
X6603733Y-27410000D01*
X6946267Y-26390000D02*
X6603733Y-26390000D01*
X6646267Y-33110000D02*
X6303733Y-33110000D01*
X6646267Y-32090000D02*
X6303733Y-32090000D01*
X16728733Y-26440000D02*
X17071267Y-26440000D01*
X16728733Y-27460000D02*
X17071267Y-27460000D01*
X16278733Y-31740000D02*
X16621267Y-31740000D01*
X16278733Y-32760000D02*
X16621267Y-32760000D01*
X26078733Y-32510000D02*
X26421267Y-32510000D01*
X26078733Y-31490000D02*
X26421267Y-31490000D01*
X27271267Y-26290000D02*
X26928733Y-26290000D01*
X27271267Y-27310000D02*
X26928733Y-27310000D01*
X20278733Y-27460000D02*
X20621267Y-27460000D01*
X20278733Y-26440000D02*
X20621267Y-26440000D01*
X92065000Y-34128733D02*
X92065000Y-34471267D01*
X93085000Y-34128733D02*
X93085000Y-34471267D01*
X100453733Y-22115000D02*
X100796267Y-22115000D01*
X100453733Y-23135000D02*
X100796267Y-23135000D01*
X102003733Y-32610000D02*
X102346267Y-32610000D01*
X102003733Y-31590000D02*
X102346267Y-31590000D01*
X97315000Y-25346267D02*
X97315000Y-25003733D01*
X98335000Y-25346267D02*
X98335000Y-25003733D01*
X109103733Y-20960000D02*
X109446267Y-20960000D01*
X109103733Y-19940000D02*
X109446267Y-19940000D01*
X114965000Y-25171267D02*
X114965000Y-24828733D01*
X115985000Y-25171267D02*
X115985000Y-24828733D01*
X119203733Y-32410000D02*
X119546267Y-32410000D01*
X119203733Y-31390000D02*
X119546267Y-31390000D01*
X118565000Y-34471267D02*
X118565000Y-34128733D01*
X119585000Y-34471267D02*
X119585000Y-34128733D01*
X117703733Y-22910000D02*
X118046267Y-22910000D01*
X117703733Y-21890000D02*
X118046267Y-21890000D01*
X115085000Y-34471267D02*
X115085000Y-34128733D01*
X114065000Y-34471267D02*
X114065000Y-34128733D01*
X-7753733Y-29010000D02*
X-8096267Y-29010000D01*
X-7753733Y-27990000D02*
X-8096267Y-27990000D01*
X-7753733Y-26490000D02*
X-8096267Y-26490000D01*
X-7753733Y-27510000D02*
X-8096267Y-27510000D01*
X70185000Y-34028733D02*
X70185000Y-34371267D01*
X69165000Y-34028733D02*
X69165000Y-34371267D01*
X46085000Y-34128733D02*
X46085000Y-34471267D01*
X45065000Y-34128733D02*
X45065000Y-34471267D01*
X48437779Y-31390000D02*
X48112221Y-31390000D01*
X48437779Y-32410000D02*
X48112221Y-32410000D01*
X16210000Y-39571267D02*
X16210000Y-39228733D01*
X15190000Y-39571267D02*
X15190000Y-39228733D01*
X96085000Y-34471267D02*
X96085000Y-34128733D01*
X95065000Y-34471267D02*
X95065000Y-34128733D01*
X102346267Y-31110000D02*
X102003733Y-31110000D01*
X102346267Y-30090000D02*
X102003733Y-30090000D01*
X116310000Y-10078733D02*
X116310000Y-10421267D01*
X115290000Y-10078733D02*
X115290000Y-10421267D01*
X128962221Y-8065000D02*
X129287779Y-8065000D01*
X128962221Y-9085000D02*
X129287779Y-9085000D01*
X119546267Y-29890000D02*
X119203733Y-29890000D01*
X119546267Y-30910000D02*
X119203733Y-30910000D01*
X120065000Y-34128733D02*
X120065000Y-34471267D01*
X121085000Y-34128733D02*
X121085000Y-34471267D01*
X63837779Y-26790000D02*
X63512221Y-26790000D01*
X63837779Y-27810000D02*
X63512221Y-27810000D01*
X46565000Y-34471267D02*
X46565000Y-34128733D01*
X47585000Y-34471267D02*
X47585000Y-34128733D01*
X70665000Y-34028733D02*
X70665000Y-34371267D01*
X71685000Y-34028733D02*
X71685000Y-34371267D01*
X-4665000Y-33000000D02*
X-4665000Y-34950000D01*
X-4665000Y-33000000D02*
X-4665000Y-31050000D01*
X-9785000Y-33000000D02*
X-9785000Y-34950000D01*
X-9785000Y-33000000D02*
X-9785000Y-29550000D01*
M02*
